<svg width="190" height="217" viewBox="0 0 190 217" fill="none" xmlns="http://www.w3.org/2000/svg">
<path d="M4.59885 78.8196C-6.14545 147.538 65.7318 103.634 88.926 109.064C105.569 112.956 122.212 148.985 144.843 149.97C168.622 151.009 186.762 124.604 189.656 100.835C194.038 64.9139 150.445 -6.47702 112.183 0.472856C83.1626 5.74083 87.5803 53.0564 60.4484 62.9437C43.3879 69.1066 10.4456 41.3732 4.59885 78.8196Z" fill="#B2E6A8"/>
<path opacity="0.6" d="M168.239 119.963C191.379 174.17 123.511 153.049 105.708 162.33C92.9326 168.986 86.8756 202.037 68.6032 207.55C49.4051 213.345 29.0728 195.428 21.7399 176.507C10.6528 147.915 31.3212 80.2192 64.0159 77.9748C88.8125 76.27 95.0976 116.05 119.318 118.531C134.537 120.047 155.637 90.4222 168.239 119.963Z" fill="#24CC09" fill-opacity="0.19"/>
<path d="M128.335 73.9332V76.9999C128.331 84.1879 126.003 91.1821 121.699 96.9393C117.395 102.696 111.346 106.908 104.452 108.946C97.5594 110.984 90.1922 110.74 83.4495 108.248C76.7069 105.757 70.9501 101.154 67.0378 95.1234C63.1255 89.0933 61.2673 81.9601 61.7402 74.7876C62.2132 67.6151 64.992 60.7876 69.6622 55.3235C74.3325 49.8593 80.6439 46.0511 87.6553 44.467C94.6666 42.8829 102.002 43.6077 108.568 46.5332" stroke="#24CC09" stroke-width="7" stroke-linecap="round" stroke-linejoin="round"/>
<path d="M128.333 50.333L95 83.6997L85 73.6997" stroke="#24CC09" stroke-width="7" stroke-linecap="round" stroke-linejoin="round"/>
</svg>
