<svg width="25" height="26" fill="none" xmlns="http://www.w3.org/2000/svg">
    <path fill-rule="evenodd" clip-rule="evenodd" d="M18.97.629a.79.79 0 0 1 1.13 0l4.534 4.61a.82.82 0 0 1 0 1.15L13.3 17.916a.793.793 0 0 1-.566.238H8.202a.807.807 0 0 1-.8-.813v-4.61a.82.82 0 0 1 .234-.576L18.969.63zm.565 1.726L9.002 13.067v3.46h3.401L22.938 5.813l-3.402-3.46zM3.668 4.323c-.389 0-.762.157-1.037.437-.275.28-.43.659-.43 1.054V21.95c0 .396.155.775.43 1.055.275.28.648.437 1.037.437h15.867c.389 0 .762-.158 1.037-.437.275-.28.43-.66.43-1.055v-6.155c0-.449.358-.813.8-.813.441 0 .8.364.8.813v6.155c0 .827-.323 1.62-.899 2.205a3.041 3.041 0 0 1-2.168.914H3.668a3.041 3.041 0 0 1-2.168-.914 3.146 3.146 0 0 1-.898-2.205V5.814c0-.827.323-1.62.898-2.205a3.041 3.041 0 0 1 2.168-.913H9.72c.442 0 .8.364.8.813 0 .45-.358.814-.8.814H3.668z" fill="#C4C4C4"/>
</svg>
