<svg width="241" height="223" viewBox="0 0 241 223" fill="none" xmlns="http://www.w3.org/2000/svg">
<path d="M36.9085 21.358C39.234 19.1829 41.8478 17.3381 44.6763 15.8756C76.2463 -0.294382 103.997 32.8341 115.837 58.3796C121.381 70.33 126.524 83.6356 137.717 90.5471C151.977 99.3806 168.936 96.0049 184.256 100.656C200.272 105.528 214.686 121.957 214.902 139.15C215.154 158.609 196.81 166.709 180.825 170.837C157.612 176.92 133.211 176.814 110.052 170.529C64.4684 157.956 30.7115 122.222 23.5351 74.987C20.7631 56.7287 22.6727 34.602 36.9085 21.358Z" fill="#1EAAE7"/>
<path opacity="0.9" d="M36.9085 21.358C39.234 19.1829 41.8478 17.3381 44.6763 15.8756C76.2463 -0.294382 103.997 32.8341 115.837 58.3796C121.381 70.33 126.524 83.6356 137.717 90.5471C151.977 99.3806 168.936 96.0049 184.256 100.656C200.272 105.528 214.686 121.957 214.902 139.15C215.154 158.609 196.81 166.709 180.825 170.837C157.612 176.92 133.211 176.814 110.052 170.529C64.4684 157.956 30.7115 122.222 23.5351 74.987C20.7631 56.7287 22.6727 34.602 36.9085 21.358Z" fill="white"/>
<path d="M120.001 222.377C185.964 222.377 239.437 219.255 239.437 215.404C239.437 211.553 185.964 208.431 120.001 208.431C54.0379 208.431 0.564453 211.553 0.564453 215.404C0.564453 219.255 54.0379 222.377 120.001 222.377Z" fill="#F5F5F5"/>
<path d="M29.7802 179.023C28.8192 177.44 27.2422 178.814 27.2422 178.814C27.4702 175.789 24.6858 173.726 24.6858 173.726C24.6858 173.726 27.9198 173.726 28.3818 170.646C28.8438 167.566 27.2546 169.001 25.7762 168.976C24.2978 168.952 22.7516 173.288 24.6982 175.709C26.6447 178.13 26.1273 182.294 21.6182 186.286C20.5344 187.299 19.7249 188.571 19.265 189.982C19.6038 186.317 19.7948 181.148 18.7168 177.699C16.8688 171.841 20.38 170.264 21.3902 167.332C22.4005 164.399 18.7168 161.923 18.7168 161.923C18.7168 161.923 22.1787 160.346 20.4909 158.541C18.803 156.736 15.2795 156.958 15.2795 159.311C15.2795 161.664 17.6511 162.57 17.6511 162.57C17.6511 162.57 20.3554 165.385 20.3554 166.851C20.3554 168.317 17.6511 171.471 17.6511 171.471C17.6511 171.471 18.8831 168.773 16.4191 168.656C13.9551 168.539 13.1543 171.81 14.1646 173.276C15.1748 174.742 16.8688 173.498 16.8688 173.498C16.9747 175.207 17.2344 176.904 17.645 178.567C17.8975 179.411 17.7805 182.719 17.5649 186.156C17.0977 184.914 16.3468 183.798 15.3719 182.898C10.8628 178.906 10.3454 174.754 12.2919 172.327C14.2385 169.9 12.6985 165.551 11.2201 165.588C9.7417 165.625 8.1401 164.178 8.61442 167.264C9.08873 170.35 12.3104 170.344 12.3104 170.344C12.3104 170.344 9.53225 172.414 9.75401 175.432C9.75401 175.432 8.17705 174.064 7.22225 175.641C5.50978 178.456 9.47682 180.206 10.1421 178.82C10.1421 178.82 18.5443 184.764 16.5177 193.333L16.9858 194.029C16.9304 194.719 16.8873 195.132 16.8873 195.132L17.5464 194.848L18.2979 195.957C18.2693 197.192 18.3332 198.428 18.4889 199.653L20.497 196.684C18.4581 188.152 26.8603 182.196 26.8603 182.196C27.5256 183.582 31.4926 181.838 29.7802 179.023Z" fill="#1EAAE7"/>
<path opacity="0.2" d="M29.7802 179.023C28.8192 177.44 27.2422 178.814 27.2422 178.814C27.4702 175.789 24.6858 173.726 24.6858 173.726C24.6858 173.726 27.9198 173.726 28.3818 170.646C28.8438 167.566 27.2546 169.001 25.7762 168.976C24.2978 168.952 22.7516 173.288 24.6982 175.709C26.6447 178.13 26.1273 182.294 21.6182 186.286C20.5344 187.299 19.7249 188.571 19.265 189.982C19.6038 186.317 19.7948 181.148 18.7168 177.699C16.8688 171.841 20.38 170.264 21.3902 167.332C22.4005 164.399 18.7168 161.923 18.7168 161.923C18.7168 161.923 22.1787 160.346 20.4909 158.541C18.803 156.736 15.2795 156.958 15.2795 159.311C15.2795 161.664 17.6511 162.57 17.6511 162.57C17.6511 162.57 20.3554 165.385 20.3554 166.851C20.3554 168.317 17.6511 171.471 17.6511 171.471C17.6511 171.471 18.8831 168.773 16.4191 168.656C13.9551 168.539 13.1543 171.81 14.1646 173.276C15.1748 174.742 16.8688 173.498 16.8688 173.498C16.9747 175.207 17.2344 176.904 17.645 178.567C17.8975 179.411 17.7805 182.719 17.5649 186.156C17.0977 184.914 16.3468 183.798 15.3719 182.898C10.8628 178.906 10.3454 174.754 12.2919 172.327C14.2385 169.9 12.6985 165.551 11.2201 165.588C9.7417 165.625 8.1401 164.178 8.61442 167.264C9.08873 170.35 12.3104 170.344 12.3104 170.344C12.3104 170.344 9.53225 172.414 9.75401 175.432C9.75401 175.432 8.17705 174.064 7.22225 175.641C5.50978 178.456 9.47682 180.206 10.1421 178.82C10.1421 178.82 18.5443 184.764 16.5177 193.333L16.9858 194.029C16.9304 194.719 16.8873 195.132 16.8873 195.132L17.5464 194.848L18.2979 195.957C18.2693 197.192 18.3332 198.428 18.4889 199.653L20.497 196.684C18.4581 188.152 26.8603 182.196 26.8603 182.196C27.5256 183.582 31.4926 181.838 29.7802 179.023Z" fill="#1EAAE7"/>
<g opacity="0.3">
<path opacity="0.3" d="M29.7802 179.023C28.8192 177.44 27.2422 178.814 27.2422 178.814C27.4702 175.789 24.6858 173.726 24.6858 173.726C24.6858 173.726 27.9198 173.726 28.3818 170.646C28.8438 167.566 27.2546 169.001 25.7762 168.976C24.2978 168.952 22.7516 173.288 24.6982 175.709C26.6447 178.13 26.1273 182.294 21.6182 186.286C20.5344 187.299 19.7249 188.571 19.265 189.982C19.6038 186.317 19.7948 181.148 18.7168 177.699C16.8688 171.841 20.38 170.264 21.3902 167.332C22.4005 164.399 18.7168 161.923 18.7168 161.923C18.7168 161.923 22.1787 160.346 20.4909 158.541C18.803 156.736 15.2795 156.958 15.2795 159.311C15.2795 161.664 17.6511 162.57 17.6511 162.57C17.6511 162.57 20.3554 165.385 20.3554 166.851C20.3554 168.317 17.6511 171.471 17.6511 171.471C17.6511 171.471 18.8831 168.773 16.4191 168.656C13.9551 168.539 13.1543 171.81 14.1646 173.276C15.1748 174.742 16.8688 173.498 16.8688 173.498C16.9747 175.207 17.2344 176.904 17.645 178.567C17.8975 179.411 17.7805 182.719 17.5649 186.156C17.0977 184.914 16.3468 183.798 15.3719 182.898C10.8628 178.906 10.3454 174.754 12.2919 172.327C14.2385 169.9 12.6985 165.551 11.2201 165.588C9.7417 165.625 8.1401 164.178 8.61442 167.264C9.08873 170.35 12.3104 170.344 12.3104 170.344C12.3104 170.344 9.53225 172.414 9.75401 175.432C9.75401 175.432 8.17705 174.064 7.22225 175.641C5.50978 178.456 9.47682 180.206 10.1421 178.82C10.1421 178.82 18.5443 184.764 16.5177 193.333L16.9858 194.029C16.9304 194.719 16.8873 195.132 16.8873 195.132L17.5464 194.848L18.2979 195.957C18.2693 197.192 18.3332 198.428 18.4889 199.653L20.497 196.684C18.4581 188.152 26.8603 182.196 26.8603 182.196C27.5256 183.582 31.4926 181.838 29.7802 179.023Z" fill="white"/>
<path opacity="0.2" d="M29.7802 179.023C28.8192 177.44 27.2422 178.814 27.2422 178.814C27.4702 175.789 24.6858 173.726 24.6858 173.726C24.6858 173.726 27.9198 173.726 28.3818 170.646C28.8438 167.566 27.2546 169.001 25.7762 168.976C24.2978 168.952 22.7516 173.288 24.6982 175.709C26.6447 178.13 26.1273 182.294 21.6182 186.286C20.5344 187.299 19.7249 188.571 19.265 189.982C19.6038 186.317 19.7948 181.148 18.7168 177.699C16.8688 171.841 20.38 170.264 21.3902 167.332C22.4005 164.399 18.7168 161.923 18.7168 161.923C18.7168 161.923 22.1787 160.346 20.4909 158.541C18.803 156.736 15.2795 156.958 15.2795 159.311C15.2795 161.664 17.6511 162.57 17.6511 162.57C17.6511 162.57 20.3554 165.385 20.3554 166.851C20.3554 168.317 17.6511 171.471 17.6511 171.471C17.6511 171.471 18.8831 168.773 16.4191 168.656C13.9551 168.539 13.1543 171.81 14.1646 173.276C15.1748 174.742 16.8688 173.498 16.8688 173.498C16.9747 175.207 17.2344 176.904 17.645 178.567C17.8975 179.411 17.7805 182.719 17.5649 186.156C17.0977 184.914 16.3468 183.798 15.3719 182.898C10.8628 178.906 10.3454 174.754 12.2919 172.327C14.2385 169.9 12.6985 165.551 11.2201 165.588C9.7417 165.625 8.1401 164.178 8.61442 167.264C9.08873 170.35 12.3104 170.344 12.3104 170.344C12.3104 170.344 9.53225 172.414 9.75401 175.432C9.75401 175.432 8.17705 174.064 7.22225 175.641C5.50978 178.456 9.47682 180.206 10.1421 178.82C10.1421 178.82 18.5443 184.764 16.5177 193.333L16.9858 194.029C16.9304 194.719 16.8873 195.132 16.8873 195.132L17.5464 194.848L18.2979 195.957C18.2693 197.192 18.3332 198.428 18.4889 199.653L20.497 196.684C18.4581 188.152 26.8603 182.196 26.8603 182.196C27.5256 183.582 31.4926 181.838 29.7802 179.023Z" fill="white"/>
</g>
<path d="M28.1365 215.552H8.88647L6.81055 194.473H30.2124L28.1365 215.552Z" fill="#1EAAE7"/>
<path opacity="0.5" d="M28.1365 215.552H8.88647L6.81055 194.473H30.2124L28.1365 215.552Z" fill="white"/>
<path d="M31.2406 192.144H5.78125V196.794H31.2406V192.144Z" fill="#1EAAE7"/>
<path opacity="0.6" d="M31.2406 192.144H5.78125V196.794H31.2406V192.144Z" fill="white"/>
<path d="M204.929 191.491L204.066 190.296C203.915 190.082 203.714 189.907 203.482 189.786C203.249 189.665 202.992 189.601 202.729 189.6H196.68C196.428 189.597 196.178 189.659 195.957 189.781C195.736 189.903 195.55 190.08 195.418 190.296L194.697 191.491C194.569 191.704 194.388 191.88 194.173 192.003C193.957 192.126 193.713 192.192 193.465 192.193H189.855C189.653 192.192 189.453 192.232 189.268 192.312C189.082 192.392 188.915 192.509 188.777 192.657C188.64 192.804 188.534 192.979 188.467 193.17C188.4 193.36 188.374 193.563 188.389 193.764L189.559 213.975C189.586 214.396 189.769 214.792 190.074 215.084C190.379 215.376 190.782 215.543 191.204 215.552H219.793C219.995 215.553 220.196 215.513 220.383 215.432C220.569 215.352 220.736 215.234 220.875 215.086C221.013 214.938 221.119 214.763 221.186 214.571C221.254 214.38 221.28 214.177 221.265 213.975L220.095 193.764C220.068 193.342 219.883 192.946 219.577 192.655C219.271 192.363 218.866 192.198 218.444 192.193H206.241C205.982 192.186 205.729 192.119 205.501 191.998C205.274 191.876 205.077 191.702 204.929 191.491V191.491Z" fill="#1EAAE7"/>
<path opacity="0.5" d="M204.929 191.491L204.066 190.296C203.915 190.082 203.714 189.907 203.482 189.786C203.249 189.665 202.992 189.601 202.729 189.6H196.68C196.428 189.597 196.178 189.659 195.957 189.781C195.736 189.903 195.55 190.08 195.418 190.296L194.697 191.491C194.569 191.704 194.388 191.88 194.173 192.003C193.957 192.126 193.713 192.192 193.465 192.193H189.855C189.653 192.192 189.453 192.232 189.268 192.312C189.082 192.392 188.915 192.509 188.777 192.657C188.64 192.804 188.534 192.979 188.467 193.17C188.4 193.36 188.374 193.563 188.389 193.764L189.559 213.975C189.586 214.396 189.769 214.792 190.074 215.084C190.379 215.376 190.782 215.543 191.204 215.552H219.793C219.995 215.553 220.196 215.513 220.383 215.432C220.569 215.352 220.736 215.234 220.875 215.086C221.013 214.938 221.119 214.763 221.186 214.571C221.254 214.38 221.28 214.177 221.265 213.975L220.095 193.764C220.068 193.342 219.883 192.946 219.577 192.655C219.271 192.363 218.866 192.198 218.444 192.193H206.241C205.982 192.186 205.729 192.119 205.501 191.998C205.274 191.876 205.077 191.702 204.929 191.491V191.491Z" fill="white"/>
<path d="M221.314 194.121H195.091C194.555 194.128 194.039 194.331 193.642 194.692C193.245 195.053 192.994 195.546 192.935 196.08L191.358 213.586C191.331 213.837 191.357 214.091 191.436 214.331C191.515 214.571 191.644 214.792 191.815 214.978C191.986 215.164 192.195 215.311 192.427 215.41C192.66 215.509 192.91 215.557 193.163 215.551H219.386C219.923 215.544 220.439 215.34 220.837 214.978C221.234 214.616 221.485 214.121 221.542 213.586L223.119 196.08C223.146 195.829 223.12 195.575 223.041 195.335C222.962 195.096 222.833 194.876 222.662 194.69C222.491 194.505 222.282 194.358 222.05 194.26C221.817 194.161 221.566 194.114 221.314 194.121V194.121Z" fill="#1EAAE7"/>
<path opacity="0.7" d="M221.314 194.121H195.091C194.555 194.128 194.039 194.331 193.642 194.692C193.245 195.053 192.994 195.546 192.935 196.08L191.358 213.586C191.331 213.837 191.357 214.091 191.436 214.331C191.515 214.571 191.644 214.792 191.815 214.978C191.986 215.164 192.195 215.311 192.427 215.41C192.66 215.509 192.91 215.557 193.163 215.551H219.386C219.923 215.544 220.439 215.34 220.837 214.978C221.234 214.616 221.485 214.121 221.542 213.586L223.119 196.08C223.146 195.829 223.12 195.575 223.041 195.335C222.962 195.096 222.833 194.876 222.662 194.69C222.491 194.505 222.282 194.358 222.05 194.26C221.817 194.161 221.566 194.114 221.314 194.121V194.121Z" fill="white"/>
<path d="M145.182 184.869H107.754V211.006H145.182V184.869Z" fill="#263238"/>
<path d="M145.589 206.792H117.807C117.246 206.792 116.791 207.247 116.791 207.808V214.529C116.791 215.09 117.246 215.545 117.807 215.545H145.589C146.15 215.545 146.605 215.09 146.605 214.529V207.808C146.605 207.247 146.15 206.792 145.589 206.792Z" fill="#1EAAE7"/>
<path opacity="0.2" d="M145.589 206.792H117.807C117.246 206.792 116.791 207.247 116.791 207.808V214.529C116.791 215.09 117.246 215.545 117.807 215.545H145.589C146.15 215.545 146.605 215.09 146.605 214.529V207.808C146.605 207.247 146.15 206.792 145.589 206.792Z" fill="black"/>
<path d="M135.431 206.792H107.649C107.088 206.792 106.633 207.247 106.633 207.808V214.529C106.633 215.09 107.088 215.545 107.649 215.545H135.431C135.992 215.545 136.447 215.09 136.447 214.529V207.808C136.447 207.247 135.992 206.792 135.431 206.792Z" fill="#1EAAE7"/>
<path opacity="0.3" d="M133.508 211.172C133.508 211.538 133.4 211.895 133.197 212.199C132.994 212.503 132.705 212.74 132.368 212.88C132.03 213.019 131.658 213.056 131.3 212.985C130.941 212.913 130.612 212.737 130.354 212.479C130.095 212.221 129.919 211.891 129.848 211.533C129.777 211.174 129.813 210.803 129.953 210.465C130.093 210.127 130.33 209.839 130.634 209.636C130.938 209.433 131.295 209.324 131.66 209.324C132.151 209.324 132.621 209.519 132.967 209.865C133.314 210.212 133.508 210.682 133.508 211.172V211.172Z" fill="#F5F5F5"/>
<path d="M131.673 212.108C132.19 212.108 132.609 211.689 132.609 211.172C132.609 210.655 132.19 210.235 131.673 210.235C131.156 210.235 130.736 210.655 130.736 211.172C130.736 211.689 131.156 212.108 131.673 212.108Z" fill="#1EAAE7"/>
<path opacity="0.3" d="M127.731 210.125H125.637V212.219H127.731V210.125Z" fill="#F5F5F5"/>
<path d="M145.589 197.657H117.807C117.246 197.657 116.791 198.112 116.791 198.674V205.394C116.791 205.956 117.246 206.411 117.807 206.411H145.589C146.15 206.411 146.605 205.956 146.605 205.394V198.674C146.605 198.112 146.15 197.657 145.589 197.657Z" fill="#1EAAE7"/>
<path opacity="0.2" d="M145.589 197.657H117.807C117.246 197.657 116.791 198.112 116.791 198.674V205.394C116.791 205.956 117.246 206.411 117.807 206.411H145.589C146.15 206.411 146.605 205.956 146.605 205.394V198.674C146.605 198.112 146.15 197.657 145.589 197.657Z" fill="black"/>
<path d="M135.431 197.657H107.649C107.088 197.657 106.633 198.112 106.633 198.674V205.394C106.633 205.956 107.088 206.411 107.649 206.411H135.431C135.992 206.411 136.447 205.956 136.447 205.394V198.674C136.447 198.112 135.992 197.657 135.431 197.657Z" fill="#1EAAE7"/>
<path opacity="0.3" d="M133.508 202.031C133.508 202.396 133.4 202.753 133.197 203.057C132.994 203.361 132.705 203.598 132.368 203.738C132.03 203.878 131.658 203.914 131.3 203.843C130.941 203.772 130.612 203.596 130.354 203.337C130.095 203.079 129.919 202.75 129.848 202.391C129.777 202.033 129.813 201.661 129.953 201.323C130.093 200.986 130.33 200.697 130.634 200.494C130.938 200.291 131.295 200.183 131.66 200.183C132.151 200.183 132.621 200.377 132.967 200.724C133.314 201.07 133.508 201.54 133.508 202.031Z" fill="#F5F5F5"/>
<path d="M132.603 202.03C132.602 202.217 132.545 202.398 132.439 202.552C132.334 202.706 132.185 202.825 132.012 202.894C131.838 202.962 131.649 202.978 131.466 202.938C131.284 202.898 131.118 202.805 130.989 202.67C130.861 202.535 130.775 202.364 130.744 202.181C130.712 201.997 130.737 201.808 130.813 201.638C130.89 201.468 131.016 201.325 131.175 201.227C131.333 201.129 131.517 201.08 131.704 201.088C131.947 201.097 132.176 201.201 132.344 201.377C132.512 201.553 132.605 201.787 132.603 202.03V202.03Z" fill="#1EAAE7"/>
<path opacity="0.3" d="M127.731 200.983H125.637V203.078H127.731V200.983Z" fill="#F5F5F5"/>
<path d="M145.589 188.516H117.807C117.246 188.516 116.791 188.971 116.791 189.532V196.253C116.791 196.814 117.246 197.269 117.807 197.269H145.589C146.15 197.269 146.605 196.814 146.605 196.253V189.532C146.605 188.971 146.15 188.516 145.589 188.516Z" fill="#1EAAE7"/>
<path opacity="0.2" d="M145.589 188.516H117.807C117.246 188.516 116.791 188.971 116.791 189.532V196.253C116.791 196.814 117.246 197.269 117.807 197.269H145.589C146.15 197.269 146.605 196.814 146.605 196.253V189.532C146.605 188.971 146.15 188.516 145.589 188.516Z" fill="black"/>
<path d="M135.431 188.516H107.649C107.088 188.516 106.633 188.971 106.633 189.532V196.253C106.633 196.814 107.088 197.269 107.649 197.269H135.431C135.992 197.269 136.447 196.814 136.447 196.253V189.532C136.447 188.971 135.992 188.516 135.431 188.516Z" fill="#1EAAE7"/>
<path opacity="0.3" d="M133.508 192.889C133.508 193.255 133.4 193.612 133.197 193.916C132.994 194.22 132.705 194.456 132.368 194.596C132.03 194.736 131.658 194.773 131.3 194.702C130.941 194.63 130.612 194.454 130.354 194.196C130.095 193.937 129.919 193.608 129.848 193.25C129.777 192.891 129.813 192.52 129.953 192.182C130.093 191.844 130.33 191.556 130.634 191.352C130.938 191.149 131.295 191.041 131.66 191.041C132.151 191.041 132.621 191.236 132.967 191.582C133.314 191.929 133.508 192.399 133.508 192.889Z" fill="#F5F5F5"/>
<path d="M132.603 192.889C132.603 193.075 132.548 193.256 132.445 193.41C132.342 193.564 132.195 193.684 132.024 193.755C131.852 193.826 131.664 193.844 131.482 193.807C131.3 193.771 131.133 193.681 131.003 193.549C130.872 193.418 130.783 193.25 130.748 193.068C130.712 192.886 130.732 192.698 130.804 192.527C130.875 192.356 130.996 192.21 131.151 192.108C131.306 192.006 131.488 191.952 131.673 191.953C131.92 191.955 132.157 192.054 132.331 192.23C132.505 192.405 132.603 192.642 132.603 192.889V192.889Z" fill="#1EAAE7"/>
<path opacity="0.3" d="M127.731 191.842H125.637V193.936H127.731V191.842Z" fill="#F5F5F5"/>
<path d="M145.589 179.374H117.807C117.246 179.374 116.791 179.829 116.791 180.39V187.111C116.791 187.672 117.246 188.127 117.807 188.127H145.589C146.15 188.127 146.605 187.672 146.605 187.111V180.39C146.605 179.829 146.15 179.374 145.589 179.374Z" fill="#1EAAE7"/>
<path opacity="0.2" d="M145.589 179.374H117.807C117.246 179.374 116.791 179.829 116.791 180.39V187.111C116.791 187.672 117.246 188.127 117.807 188.127H145.589C146.15 188.127 146.605 187.672 146.605 187.111V180.39C146.605 179.829 146.15 179.374 145.589 179.374Z" fill="black"/>
<path d="M135.431 179.374H107.649C107.088 179.374 106.633 179.829 106.633 180.39V187.111C106.633 187.672 107.088 188.127 107.649 188.127H135.431C135.992 188.127 136.447 187.672 136.447 187.111V180.39C136.447 179.829 135.992 179.374 135.431 179.374Z" fill="#1EAAE7"/>
<path opacity="0.3" d="M133.508 183.747C133.508 184.113 133.4 184.47 133.197 184.774C132.994 185.078 132.705 185.315 132.368 185.455C132.03 185.595 131.658 185.631 131.3 185.56C130.941 185.489 130.612 185.313 130.354 185.054C130.095 184.796 129.919 184.466 129.848 184.108C129.777 183.749 129.813 183.378 129.953 183.04C130.093 182.703 130.33 182.414 130.634 182.211C130.938 182.008 131.295 181.899 131.66 181.899C132.151 181.899 132.621 182.094 132.967 182.441C133.314 182.787 133.508 183.257 133.508 183.747Z" fill="#F5F5F5"/>
<path d="M132.603 183.748C132.603 183.933 132.548 184.115 132.445 184.269C132.342 184.423 132.195 184.543 132.024 184.614C131.852 184.684 131.664 184.702 131.482 184.666C131.3 184.629 131.133 184.539 131.003 184.408C130.872 184.276 130.783 184.109 130.748 183.927C130.712 183.745 130.732 183.556 130.804 183.385C130.875 183.214 130.996 183.068 131.151 182.966C131.306 182.864 131.488 182.81 131.673 182.812C131.92 182.813 132.157 182.913 132.331 183.088C132.505 183.263 132.603 183.501 132.603 183.748V183.748Z" fill="#1EAAE7"/>
<path opacity="0.3" d="M127.731 182.7H125.637V184.795H127.731V182.7Z" fill="#F5F5F5"/>
<path d="M178.706 198.821H141.277V211H178.706V198.821Z" fill="#263238"/>
<path d="M179.105 206.792H151.323C150.762 206.792 150.307 207.247 150.307 207.808V214.529C150.307 215.09 150.762 215.545 151.323 215.545H179.105C179.666 215.545 180.121 215.09 180.121 214.529V207.808C180.121 207.247 179.666 206.792 179.105 206.792Z" fill="#1EAAE7"/>
<path opacity="0.2" d="M179.105 206.792H151.323C150.762 206.792 150.307 207.247 150.307 207.808V214.529C150.307 215.09 150.762 215.545 151.323 215.545H179.105C179.666 215.545 180.121 215.09 180.121 214.529V207.808C180.121 207.247 179.666 206.792 179.105 206.792Z" fill="black"/>
<path d="M168.954 206.792H141.173C140.611 206.792 140.156 207.247 140.156 207.808V214.529C140.156 215.09 140.611 215.545 141.173 215.545H168.954C169.515 215.545 169.971 215.09 169.971 214.529V207.808C169.971 207.247 169.515 206.792 168.954 206.792Z" fill="#1EAAE7"/>
<path opacity="0.3" d="M167.026 211.172C167.026 211.538 166.918 211.895 166.715 212.199C166.512 212.503 166.223 212.74 165.885 212.88C165.548 213.019 165.176 213.056 164.818 212.985C164.459 212.913 164.13 212.737 163.871 212.479C163.613 212.221 163.437 211.891 163.366 211.533C163.294 211.174 163.331 210.803 163.471 210.465C163.611 210.127 163.847 209.839 164.151 209.636C164.455 209.433 164.813 209.324 165.178 209.324C165.668 209.324 166.138 209.519 166.485 209.865C166.831 210.212 167.026 210.682 167.026 211.172V211.172Z" fill="#F5F5F5"/>
<path d="M166.127 211.172C166.127 211.357 166.072 211.538 165.969 211.692C165.866 211.846 165.72 211.966 165.549 212.037C165.377 212.108 165.189 212.126 165.008 212.09C164.826 212.054 164.659 211.965 164.528 211.834C164.397 211.703 164.308 211.536 164.272 211.354C164.236 211.173 164.254 210.984 164.325 210.813C164.396 210.642 164.516 210.496 164.67 210.393C164.824 210.29 165.005 210.235 165.19 210.235C165.439 210.235 165.677 210.334 165.852 210.51C166.028 210.685 166.127 210.923 166.127 211.172V211.172Z" fill="#1EAAE7"/>
<path opacity="0.3" d="M161.247 210.125H159.152V212.219H161.247V210.125Z" fill="#F5F5F5"/>
<path d="M179.105 197.657H151.323C150.762 197.657 150.307 198.112 150.307 198.674V205.394C150.307 205.956 150.762 206.411 151.323 206.411H179.105C179.666 206.411 180.121 205.956 180.121 205.394V198.674C180.121 198.112 179.666 197.657 179.105 197.657Z" fill="#1EAAE7"/>
<path opacity="0.2" d="M179.105 197.657H151.323C150.762 197.657 150.307 198.112 150.307 198.674V205.394C150.307 205.956 150.762 206.411 151.323 206.411H179.105C179.666 206.411 180.121 205.956 180.121 205.394V198.674C180.121 198.112 179.666 197.657 179.105 197.657Z" fill="black"/>
<path d="M168.954 197.657H141.173C140.611 197.657 140.156 198.112 140.156 198.674V205.394C140.156 205.956 140.611 206.411 141.173 206.411H168.954C169.515 206.411 169.971 205.956 169.971 205.394V198.674C169.971 198.112 169.515 197.657 168.954 197.657Z" fill="#1EAAE7"/>
<path opacity="0.3" d="M167.026 202.031C167.026 202.396 166.918 202.753 166.715 203.057C166.512 203.361 166.223 203.598 165.885 203.738C165.548 203.878 165.176 203.914 164.818 203.843C164.459 203.772 164.13 203.596 163.871 203.337C163.613 203.079 163.437 202.75 163.366 202.391C163.294 202.033 163.331 201.661 163.471 201.323C163.611 200.986 163.847 200.697 164.151 200.494C164.455 200.291 164.813 200.183 165.178 200.183C165.668 200.183 166.138 200.377 166.485 200.724C166.831 201.07 167.026 201.54 167.026 202.031Z" fill="#F5F5F5"/>
<path d="M166.127 202.03C166.127 202.215 166.072 202.396 165.969 202.55C165.866 202.704 165.72 202.824 165.549 202.895C165.377 202.966 165.189 202.984 165.008 202.948C164.826 202.912 164.659 202.823 164.528 202.692C164.397 202.561 164.308 202.394 164.272 202.213C164.236 202.031 164.254 201.843 164.325 201.672C164.396 201.501 164.516 201.354 164.67 201.252C164.824 201.149 165.005 201.094 165.19 201.094C165.439 201.094 165.677 201.192 165.852 201.368C166.028 201.544 166.127 201.782 166.127 202.03V202.03Z" fill="#1EAAE7"/>
<path opacity="0.3" d="M161.247 200.983H159.152V203.078H161.247V200.983Z" fill="#F5F5F5"/>
<path d="M70.3148 204.839L66.434 205.529L64.8385 200.232L63.3848 195.365L67.8631 193.801L69.1628 199.647L70.3148 204.839Z" fill="#E4897B"/>
<path opacity="0.2" d="M69.1872 199.764L64.8567 200.337L63.3906 195.421L67.869 193.832L69.1872 199.764Z" fill="black"/>
<path d="M44.3736 206.632H40.4312L39.7844 201.076L39.1992 196L43.8808 195.224L44.1457 201.26L44.3736 206.632Z" fill="#E4897B"/>
<path opacity="0.2" d="M44.1457 201.31L39.7844 201.119L39.1992 196.025L43.8808 195.236L44.1457 201.31Z" fill="black"/>
<path d="M49.7271 214.45C49.102 213.94 48.3876 213.552 47.6204 213.304V213.304C47.6204 213.304 45.3289 211.031 44.2262 204.187L41.2263 203.405C40.7171 203.28 40.1819 203.316 39.6936 203.507C39.2053 203.697 38.7876 204.034 38.4974 204.471C38.4119 204.59 38.3474 204.723 38.3065 204.865C38.1472 205.598 38.0402 206.341 37.9862 207.089C37.6843 209.405 37.943 214.604 37.943 214.604H38.4851L38.7007 209.885C38.7808 208.284 40.0066 210.162 40.3578 211.887C40.7089 213.612 41.4542 215.448 44.9654 215.534C49.0618 215.614 50.762 215.454 49.7271 214.45Z" fill="#263238"/>
<path d="M75.9069 213.987C75.2818 213.478 74.5674 213.089 73.8001 212.841V212.841C73.8001 212.841 71.5086 210.568 70.406 203.725L67.406 202.936C66.8968 202.812 66.3616 202.847 65.8733 203.038C65.385 203.229 64.9673 203.565 64.6771 204.002C64.5916 204.121 64.5271 204.255 64.4862 204.396C64.3269 205.129 64.2199 205.872 64.1659 206.62C63.864 208.936 64.1227 214.135 64.1227 214.135H64.6648L64.8804 209.416C64.9605 207.815 66.1863 209.694 66.5375 211.418C66.8886 213.143 67.6339 214.979 71.1452 215.065C75.2416 215.151 76.9417 214.991 75.9069 213.987Z" fill="#263238"/>
<path d="M69.5495 196.684L63.1615 197.811C56.7182 181.752 52.1351 168.348 48.895 157.223C47.1517 151.217 45.6979 145.883 44.6507 141.146L44.8479 158.628V198.009H38.5523C22.7766 122.857 33.957 105.732 33.957 105.732L52.8559 102.584C53.6051 106.083 54.1338 109.626 54.439 113.192L55.2891 119.456L62.6811 157.568L69.5495 196.684Z" fill="#1EAAE7"/>
<g opacity="0.2">
<path opacity="0.2" d="M69.5495 196.684L63.1615 197.811C56.7182 181.752 52.1351 168.348 48.895 157.223C47.1517 151.217 45.6979 145.883 44.6507 141.146L44.8479 158.628V198.009H38.5523C22.7766 122.857 33.957 105.732 33.957 105.732L52.8559 102.584C53.6051 106.083 54.1338 109.626 54.439 113.192L55.2891 119.456L62.6811 157.568L69.5495 196.684Z" fill="black"/>
</g>
<path d="M75.1855 84.0483L81.555 77.7527C81.555 77.7527 81.7768 76.0649 82.3928 75.5967C83.0088 75.1286 87.3824 73.5393 87.9368 73.8966C88.4912 74.2539 89.2181 77.7774 88.4727 78.4242C87.7274 79.071 83.748 79.8964 83.3414 79.8287L76.4484 88.0153L75.1855 84.0483Z" fill="#EEC1BB"/>
<path d="M52.3642 72.5596C55.1177 74.0133 64.869 87.6516 66.3043 88.3292C67.7395 89.0068 78.7289 80.0994 78.7289 80.0994L80.5769 83.2533C80.5769 83.2533 71.5649 95.9861 66.4706 95.3701C61.3763 94.7541 51.625 83.9741 51.625 83.9741L52.3642 72.5596Z" fill="#263238"/>
<path opacity="0.1" d="M52.3642 72.5596C55.1177 74.0133 64.869 87.6516 66.3043 88.3292C67.7395 89.0068 78.7289 80.0994 78.7289 80.0994L80.5769 83.2533C80.5769 83.2533 71.5649 95.9861 66.4706 95.3701C61.3763 94.7541 51.625 83.9741 51.625 83.9741L52.3642 72.5596Z" fill="white"/>
<path d="M78.1191 80.4326L78.883 79.7119L80.885 83.0999L80.1643 84.4859L78.1191 80.4326Z" fill="#1EAAE7"/>
<path opacity="0.2" d="M55.5427 87.9539C53.2635 85.7794 51.625 83.9745 51.625 83.9745L51.7975 81.2641L52.6537 78.6338C53.8322 79.8521 54.7076 81.3304 55.2095 82.9493C55.7113 84.5683 55.8255 86.2826 55.5427 87.9539V87.9539Z" fill="black"/>
<path opacity="0.2" d="M48.8957 157.223C47.1524 151.217 45.8157 145.882 44.75 141.145C44.8427 135.537 45.2541 129.939 45.982 124.378C45.982 124.378 48.7356 146.006 48.8957 157.223Z" fill="black"/>
<path d="M53.2865 101.42C54.0566 87.8679 53.7116 80.402 53.3605 76.6752C52.9786 72.702 52.3625 72.5603 52.3625 72.5603C52.3625 72.5603 48.0505 72.1414 44.3176 72.1661C41.4251 72.2671 38.5433 72.5718 35.6936 73.0778C32.9816 73.5285 30.3054 74.1728 27.6855 75.0058C28.1229 76.2378 28.5171 77.4698 28.9175 78.554C29.4103 80.0262 29.8477 81.3876 30.242 82.6627C30.9812 85.0405 31.5602 87.0979 32.0222 88.9459C33.1984 93.5839 33.8839 98.3326 34.0673 103.114C34.0673 103.114 29.3303 115.496 28.4063 124.582L44.1143 126.276L46.2703 117.19L48.4263 126.584L57.1674 123.473L53.2865 101.42Z" fill="#263238"/>
<path opacity="0.1" d="M53.2865 101.42C54.0566 87.8679 53.7116 80.402 53.3605 76.6752C52.9786 72.702 52.3625 72.5603 52.3625 72.5603C52.3625 72.5603 48.0505 72.1414 44.3176 72.1661C41.4251 72.2671 38.5433 72.5718 35.6936 73.0778C32.9816 73.5285 30.3054 74.1728 27.6855 75.0058C28.1229 76.2378 28.5171 77.4698 28.9175 78.554C29.4103 80.0262 29.8477 81.3876 30.242 82.6627C30.9812 85.0405 31.5602 87.0979 32.0222 88.9459C33.1984 93.5839 33.8839 98.3326 34.0673 103.114C34.0673 103.114 29.3303 115.496 28.4063 124.582L44.1143 126.276L46.2703 117.19L48.4263 126.584L57.1674 123.473L53.2865 101.42Z" fill="white"/>
<path opacity="0.2" d="M32.7448 92.2595C32.5353 91.2247 32.2889 90.122 31.9871 88.9393C31.7961 88.1878 31.5867 87.3993 31.3711 86.5616C31.9871 84.461 32.6031 86.1057 32.6031 86.1057C32.9851 88.1356 33.033 90.2142 32.7448 92.2595Z" fill="black"/>
<path d="M37.9688 76.8595L45.7735 90.8242L47.6215 75.8369L44.0795 80.2783L37.9688 76.8595Z" fill="#1EAAE7"/>
<path d="M37.7652 71.8822C34.2787 72.7015 33.2253 75.5043 33.6072 78.0422L36.1513 77.1983C39.0856 78.258 41.8387 79.7644 44.3133 81.6643C44.3133 81.6643 46.2352 78.1223 48.0832 76.9642L50.7012 77.2722C50.7012 77.2722 46.6233 69.8063 37.7652 71.8822Z" fill="#1EAAE7"/>
<path opacity="0.1" d="M37.7652 71.8822C34.2787 72.7015 33.2253 75.5043 33.6072 78.0422L36.1513 77.1983C39.0856 78.258 41.8387 79.7644 44.3133 81.6643C44.3133 81.6643 46.2352 78.1223 48.0832 76.9642L50.7012 77.2722C50.7012 77.2722 46.6233 69.8063 37.7652 71.8822Z" fill="white"/>
<path d="M44.0975 72.9914C43.8999 72.8909 43.6938 72.8085 43.4815 72.745C43.0379 72.3938 42.4959 71.5499 42.5267 69.4925C42.5391 68.6872 42.6132 67.884 42.7484 67.0901L37.0381 66.0244C37.0381 66.0244 38.9847 69.8682 37.3584 72.7203C36.7979 72.9667 36.4652 73.3363 36.5268 73.786C36.9519 77.0878 44.0482 80.2786 44.0482 80.2786C44.0482 80.2786 47.5471 74.8886 44.0975 72.9914Z" fill="#EEC1BB"/>
<path opacity="0.2" d="M42.7787 67.0901C42.6435 67.8841 42.5694 68.6872 42.5569 69.4925C38.6946 69.4925 37.0684 66.0244 37.0684 66.0244L42.7787 67.0901Z" fill="black"/>
<path d="M40.2285 48.2461C40.2285 48.2461 46.9306 47.3961 48.1626 52.7861C48.5202 54.319 48.435 55.9219 47.917 57.4083C47.399 58.8948 46.4694 60.2035 45.2366 61.1821L40.2285 48.2461Z" fill="#263238"/>
<path d="M39.6188 51.1171C44.5838 50.8461 46.3271 53.4148 46.9739 58.5091C47.7808 64.8785 46.6104 69.4985 40.3272 68.4698C31.7956 67.0838 31.3767 51.5668 39.6188 51.1171Z" fill="#EEC1BB"/>
<path d="M43.7461 58.4102C44.1855 59.1305 44.7086 59.7963 45.3046 60.3937C45.169 60.6034 44.9783 60.7719 44.7534 60.8805C44.5285 60.9892 44.2781 61.0338 44.0295 61.0097L43.7461 58.4102Z" fill="#D4827D"/>
<path d="M40.6839 58.1764C40.7209 58.5829 40.5238 58.934 40.2527 58.9525C39.9816 58.971 39.7352 58.663 39.7044 58.2564C39.6736 57.8499 39.8646 57.4988 40.1356 57.4803C40.4067 57.4618 40.6531 57.7637 40.6839 58.1764Z" fill="#263238"/>
<path d="M40.0254 57.4987L40.8878 57.0859C40.8878 57.0859 40.4997 57.8621 40.0254 57.4987Z" fill="#263238"/>
<path d="M45.7425 57.69C45.7795 58.0966 45.5824 58.4477 45.3113 58.4662C45.0402 58.4846 44.7938 58.1766 44.763 57.7701C44.7322 57.3635 44.9232 57.0124 45.1943 56.994C45.4653 56.9755 45.7117 57.2835 45.7425 57.69Z" fill="#263238"/>
<path d="M45.082 57.0182L45.9383 56.6055C45.9383 56.6055 45.5564 57.3817 45.082 57.0182Z" fill="#263238"/>
<path d="M40.4508 54.7449C40.0557 54.7188 39.6598 54.7835 39.2935 54.934C38.9273 55.0846 38.6004 55.317 38.3379 55.6135" stroke="#263238" stroke-width="0.686238" stroke-linecap="round" stroke-linejoin="round"/>
<path d="M44.0469 54.339C44.3815 54.2335 44.7358 54.2059 45.0828 54.2582C45.4298 54.3105 45.7602 54.4414 46.0489 54.6408" stroke="#263238" stroke-width="0.686238" stroke-linecap="round" stroke-linejoin="round"/>
<path d="M34.6525 59.7843C34.6525 59.7843 36.7469 55.577 36.2233 52.4477C36.2233 52.4477 45.8453 47.8893 46.874 57.85C46.874 57.85 47.3545 48.9304 38.8044 49.1952C30.2543 49.4601 30.9812 61.9526 35.595 65.433C35.6073 65.433 33.3528 62.4146 34.6525 59.7843Z" fill="#263238"/>
<path d="M41.0783 47.8602C41.0783 47.8602 45.1563 46.8623 46.3143 47.9403C47.4724 49.0183 39.2303 56.6382 34.9183 57.4082C34.9183 57.4082 33.4523 62.1822 34.6103 64.4183C34.6103 64.4183 29.7563 62.7243 29.5283 55.3323C29.3004 47.9403 37.0743 45.1683 41.0783 47.8602Z" fill="#263238"/>
<path d="M35.5224 60.7885C35.44 60.217 35.1344 59.7015 34.6724 59.3551C34.2105 59.0086 33.6301 58.8595 33.0584 58.9405C31.5307 59.1869 30.9701 62.3901 34.8386 62.9383C35.3992 63.006 35.6826 62.4517 35.5224 60.7885Z" fill="#EEC1BB"/>
<path d="M33.3781 50.7844C33.3781 50.7844 31.6841 46.4724 27.138 46.7804C22.5919 47.0884 21.902 54.1724 24.2921 59.4084C26.6822 64.6444 25.0621 66.3384 25.0621 66.3384C25.0621 66.3384 27.6 66.0304 27.6 61.3365C27.7403 62.3299 27.7918 63.3338 27.754 64.3364C27.754 64.3364 29.448 61.9525 27.8341 57.4064C26.2202 52.8603 31.3761 54.9424 31.3761 54.9424L33.3781 50.7844Z" fill="#263238"/>
<path d="M45.9259 48.3203C45.9259 48.3203 43.7699 55.2503 37.998 57.3324" stroke="#263238" stroke-width="0.686238" stroke-linecap="round" stroke-linejoin="round"/>
<path d="M40.1543 62.7959C40.5288 63.1671 40.9731 63.4605 41.4615 63.6593C41.95 63.858 42.4729 63.9582 43.0002 63.954" stroke="#263238" stroke-width="0.686238" stroke-linecap="round" stroke-linejoin="round"/>
<path d="M43.2346 58.8728C43.2166 59.086 43.1371 59.2894 43.0055 59.4582C42.874 59.6269 42.6962 59.7538 42.4938 59.8233C42.2914 59.8927 42.0732 59.9018 41.8657 59.8494C41.6583 59.797 41.4706 59.6854 41.3255 59.5281C41.1804 59.3708 41.0841 59.1747 41.0486 58.9637C41.013 58.7527 41.0395 58.5359 41.125 58.3398C41.2105 58.1436 41.3513 57.9766 41.5301 57.859C41.7088 57.7415 41.918 57.6785 42.132 57.6777C42.283 57.6833 42.4314 57.7187 42.5687 57.7818C42.706 57.845 42.8295 57.9347 42.932 58.0458C43.0345 58.1568 43.114 58.2871 43.1659 58.429C43.2178 58.571 43.2412 58.7218 43.2346 58.8728Z" stroke="#263238" stroke-width="0.5" stroke-linecap="round" stroke-linejoin="round"/>
<path d="M47.1218 58.6752C47.105 58.8891 47.0262 59.0934 46.8951 59.2632C46.7639 59.4329 46.5861 59.5607 46.3833 59.6309C46.1806 59.7011 45.9618 59.7107 45.7538 59.6584C45.5457 59.6061 45.3575 59.4942 45.212 59.3365C45.0666 59.1788 44.9703 58.9821 44.935 58.7705C44.8996 58.5589 44.9268 58.3416 45.0131 58.1452C45.0995 57.9488 45.2412 57.7819 45.421 57.6649C45.6008 57.5478 45.8108 57.4858 46.0253 57.4863C46.3276 57.5007 46.6121 57.6335 46.8173 57.856C47.0225 58.0785 47.1319 58.3727 47.1218 58.6752V58.6752Z" stroke="#263238" stroke-width="0.5" stroke-linecap="round" stroke-linejoin="round"/>
<path d="M43.2344 58.8727C43.2344 58.8727 43.8073 57.6407 44.9284 58.6756" stroke="#263238" stroke-width="0.5" stroke-linecap="round" stroke-linejoin="round"/>
<path d="M41.0353 58.8758C41.0353 58.8758 34.8753 58.6741 34.1484 58.7182" stroke="#263238" stroke-width="0.5" stroke-linecap="round" stroke-linejoin="round"/>
<path d="M34.8263 87.6394L34.543 103.366C34.5424 103.453 34.5604 103.54 34.5958 103.62C34.6313 103.7 34.6834 103.772 34.7487 103.83C34.814 103.888 34.8909 103.932 34.9744 103.958C35.0579 103.984 35.146 103.992 35.2329 103.982L45.5879 103.156C45.7513 103.156 45.9079 103.092 46.0235 102.976C46.139 102.86 46.2039 102.704 46.2039 102.54L46.7028 86.9433C46.7087 86.8539 46.695 86.7643 46.6626 86.6807C46.6303 86.5972 46.5801 86.5217 46.5156 86.4595C46.4511 86.3974 46.3738 86.35 46.2891 86.3208C46.2044 86.2916 46.1144 86.2812 46.0252 86.2903L35.4547 86.9741C35.3684 86.9721 35.2827 86.9882 35.2031 87.0214C35.1235 87.0547 35.0518 87.1043 34.9925 87.167C34.9333 87.2297 34.8879 87.3041 34.8593 87.3855C34.8306 87.4669 34.8194 87.5534 34.8263 87.6394V87.6394Z" fill="#1EAAE7"/>
<path opacity="0.6" d="M34.8263 87.6394L34.543 103.366C34.5424 103.453 34.5604 103.54 34.5958 103.62C34.6313 103.7 34.6834 103.772 34.7487 103.83C34.814 103.888 34.8909 103.932 34.9744 103.958C35.0579 103.984 35.146 103.992 35.2329 103.982L45.5879 103.156C45.7513 103.156 45.9079 103.092 46.0235 102.976C46.139 102.86 46.2039 102.704 46.2039 102.54L46.7028 86.9433C46.7087 86.8539 46.695 86.7643 46.6626 86.6807C46.6303 86.5972 46.5801 86.5217 46.5156 86.4595C46.4511 86.3974 46.3738 86.35 46.2891 86.3208C46.2044 86.2916 46.1144 86.2812 46.0252 86.2903L35.4547 86.9741C35.3684 86.9721 35.2827 86.9882 35.2031 87.0214C35.1235 87.0547 35.0518 87.1043 34.9925 87.167C34.9333 87.2297 34.8879 87.3041 34.8593 87.3855C34.8306 87.4669 34.8194 87.5534 34.8263 87.6394V87.6394Z" fill="white"/>
<path d="M35.134 87.997L34.8506 103.723C34.8454 103.813 34.8601 103.904 34.8936 103.987C34.927 104.071 34.9785 104.147 35.0443 104.208C35.1101 104.27 35.1887 104.316 35.2744 104.344C35.3602 104.372 35.451 104.381 35.5405 104.37L45.8955 103.551C46.0589 103.551 46.2156 103.486 46.3311 103.371C46.4466 103.255 46.5115 103.098 46.5115 102.935L47.0105 87.344C47.0173 87.2541 47.0043 87.1638 46.9723 87.0795C46.9404 86.9952 46.8904 86.9189 46.8258 86.8561C46.7611 86.7932 46.6835 86.7453 46.5983 86.7157C46.5132 86.6862 46.4226 86.6756 46.3329 86.6849L35.7315 87.3748C35.5703 87.3797 35.4174 87.4475 35.3057 87.5639C35.1939 87.6802 35.1323 87.8357 35.134 87.997Z" fill="#1EAAE7"/>
<path opacity="0.7" d="M35.134 87.997L34.8506 103.723C34.8454 103.813 34.8601 103.904 34.8936 103.987C34.927 104.071 34.9785 104.147 35.0443 104.208C35.1101 104.27 35.1887 104.316 35.2744 104.344C35.3602 104.372 35.451 104.381 35.5405 104.37L45.8955 103.551C46.0589 103.551 46.2156 103.486 46.3311 103.371C46.4466 103.255 46.5115 103.098 46.5115 102.935L47.0105 87.344C47.0173 87.2541 47.0043 87.1638 46.9723 87.0795C46.9404 86.9952 46.8904 86.9189 46.8258 86.8561C46.7611 86.7932 46.6835 86.7453 46.5983 86.7157C46.5132 86.6862 46.4226 86.6756 46.3329 86.6849L35.7315 87.3748C35.5703 87.3797 35.4174 87.4475 35.3057 87.5639C35.1939 87.6802 35.1323 87.8357 35.134 87.997Z" fill="white"/>
<path opacity="0.2" d="M42.2792 95.4931C42.2792 95.7977 42.1889 96.0955 42.0197 96.3487C41.8505 96.602 41.61 96.7994 41.3286 96.9159C41.0472 97.0325 40.7375 97.063 40.4388 97.0036C40.1401 96.9441 39.8657 96.7975 39.6503 96.5821C39.4349 96.3667 39.2882 96.0923 39.2288 95.7936C39.1694 95.4948 39.1999 95.1852 39.3164 94.9038C39.433 94.6224 39.6304 94.3819 39.8836 94.2127C40.1369 94.0434 40.4346 93.9531 40.7392 93.9531H40.8008C40.8576 94.3035 41.0342 94.6233 41.3004 94.8581C41.5666 95.0929 41.906 95.228 42.2608 95.2406C42.2734 95.3242 42.2795 95.4086 42.2792 95.4931V95.4931Z" fill="black"/>
<path d="M25.832 100.428L33.4088 95.6535C33.4088 95.6535 33.9879 94.0519 34.6901 93.7254C35.3923 93.399 40.0062 92.7953 40.4497 93.2511C40.8932 93.707 40.8624 97.3229 39.9939 97.791C39.1253 98.2592 35.0659 98.2161 34.6778 98.0559L26.1893 104.567L25.832 100.428Z" fill="#EEC1BB"/>
<path d="M27.6805 75.0059C27.6805 75.0059 32.6331 82.2007 31.9124 88.3607L25.3397 99.2455L29.7564 96.9847L31.7584 100.761C31.7584 100.761 26.6764 108.584 20.2084 106.736C13.7404 104.888 27.6805 75.0059 27.6805 75.0059Z" fill="#263238"/>
<path opacity="0.1" d="M27.6805 75.0059C27.6805 75.0059 32.6331 82.2007 31.9124 88.3607L25.3397 99.2455L29.7564 96.9847L31.7584 100.761C31.7584 100.761 26.6764 108.584 20.2084 106.736C13.7404 104.888 27.6805 75.0059 27.6805 75.0059Z" fill="white"/>
<path d="M29.2949 96.7813L31.8082 101.451L32.3749 100.114L30.3729 96.3193L29.2949 96.7813Z" fill="#1EAAE7"/>
<path d="M86.7368 77.6664C86.1737 77.6677 85.6229 77.5018 85.1541 77.1898C84.6852 76.8778 84.3195 76.4338 84.1032 75.9139C83.8868 75.394 83.8296 74.8216 83.9387 74.2691C84.0478 73.7166 84.3184 73.209 84.7161 72.8103C85.1139 72.4117 85.621 72.1401 86.1732 72.0297C86.7254 71.9194 87.298 71.9754 87.8183 72.1907C88.3387 72.4059 88.7836 72.7706 89.0965 73.2388C89.4095 73.7069 89.5766 74.2574 89.5766 74.8205C89.5766 75.5742 89.2776 76.2972 88.7452 76.8307C88.2129 77.3643 87.4906 77.6648 86.7368 77.6664Z" fill="#1EAAE7"/>
<path d="M88.0361 90.2082H87.9684C85.2975 90.1695 82.6833 89.4326 80.3854 88.0707L81.9316 85.348C83.7596 86.435 85.8417 87.0213 87.9684 87.0481L88.0361 90.2082ZM95.6129 87.929L94.0606 85.2802C95.8935 84.2105 97.4142 82.6792 98.4712 80.8389L101.138 82.3727C99.8136 84.6756 97.9085 86.5913 95.6129 87.929V87.929ZM74.8476 82.385C73.5131 80.0828 72.8098 77.4692 72.8086 74.8082H75.8886C75.8866 76.929 76.4478 79.0123 77.5148 80.845L74.8476 82.385ZM100.104 74.7528C100.098 72.6334 99.5324 70.5531 98.465 68.7221L101.126 67.1698C102.464 69.4714 103.174 72.0843 103.184 74.7466L100.104 74.7528ZM77.4964 68.7961L74.8352 67.2561C76.1686 64.9565 78.0797 63.0454 80.3792 61.712L81.9254 64.3732C80.0912 65.4394 78.5651 66.9633 77.4964 68.7961V68.7961ZM93.9929 64.3362C92.1726 63.249 90.1005 62.6545 87.9807 62.6114L87.9684 59.4082C90.6289 59.4514 93.232 60.1882 95.5205 61.5457L93.9929 64.3362Z" fill="#1EAAE7"/>
<g opacity="0.6">
<path opacity="0.6" d="M88.0361 90.2082H87.9684C85.2975 90.1695 82.6833 89.4326 80.3854 88.0707L81.9316 85.348C83.7596 86.435 85.8417 87.0213 87.9684 87.0481L88.0361 90.2082ZM95.6129 87.929L94.0606 85.2802C95.8935 84.2105 97.4142 82.6792 98.4712 80.8389L101.138 82.3727C99.8136 84.6756 97.9085 86.5913 95.6129 87.929V87.929ZM74.8476 82.385C73.5131 80.0828 72.8098 77.4692 72.8086 74.8082H75.8886C75.8866 76.929 76.4478 79.0123 77.5148 80.845L74.8476 82.385ZM100.104 74.7528C100.098 72.6334 99.5324 70.5531 98.465 68.7221L101.126 67.1698C102.464 69.4714 103.174 72.0843 103.184 74.7466L100.104 74.7528ZM77.4964 68.7961L74.8352 67.2561C76.1686 64.9565 78.0797 63.0454 80.3792 61.712L81.9254 64.3732C80.0912 65.4394 78.5651 66.9633 77.4964 68.7961V68.7961ZM93.9929 64.3362C92.1726 63.249 90.1005 62.6545 87.9807 62.6114L87.9684 59.4082C90.6289 59.4514 93.232 60.1882 95.5205 61.5457L93.9929 64.3362Z" fill="white"/>
</g>
<path d="M86.0488 78.6154C85.298 78.6167 84.5638 78.3952 83.9389 77.9789C83.3141 77.5627 82.8268 76.9705 82.5387 76.2773C82.2505 75.584 82.1745 74.8209 82.3202 74.0844C82.4659 73.3479 82.8268 72.6712 83.3573 72.1399C83.8877 71.6086 84.5638 71.2466 85.3 71.0997C86.0363 70.9528 86.7996 71.0276 87.4933 71.3146C88.187 71.6016 88.78 72.088 89.1972 72.7121C89.6144 73.3363 89.8371 74.0702 89.8371 74.8209C89.8371 75.8262 89.4382 76.7904 88.7279 77.5019C88.0176 78.2133 87.0541 78.6138 86.0488 78.6154Z" fill="#1EAAE7"/>
<path opacity="0.5" d="M86.0488 78.6154C85.298 78.6167 84.5638 78.3952 83.9389 77.9789C83.3141 77.5627 82.8268 76.9705 82.5387 76.2773C82.2505 75.584 82.1745 74.8209 82.3202 74.0844C82.4659 73.3479 82.8268 72.6712 83.3573 72.1399C83.8877 71.6086 84.5638 71.2466 85.3 71.0997C86.0363 70.9528 86.7996 71.0276 87.4933 71.3146C88.187 71.6016 88.78 72.088 89.1972 72.7121C89.6144 73.3363 89.8371 74.0702 89.8371 74.8209C89.8371 75.8262 89.4382 76.7904 88.7279 77.5019C88.0176 78.2133 87.0541 78.6138 86.0488 78.6154Z" fill="white"/>
<path d="M92.6674 75.9247C93.577 72.5963 91.5741 69.3395 88.1938 68.6505C84.8136 67.9614 81.3359 70.1011 80.4263 73.4295C79.5167 76.7579 81.5196 80.0146 84.8999 80.7037C88.2801 81.3927 91.7578 79.253 92.6674 75.9247Z" stroke="#1EAAE7" stroke-width="3" stroke-miterlimit="10"/>
<path d="M165.002 74H93.002V75H165.002V74Z" fill="#1EAAE7"/>
<path d="M87.898 69.2647H86.666V61.8727C86.6656 61.7916 86.6811 61.7112 86.7118 61.6362C86.7424 61.5611 86.7876 61.4929 86.8447 61.4353L124.525 23.8593C124.583 23.8022 124.651 23.7571 124.726 23.7264C124.801 23.6957 124.882 23.6802 124.963 23.6807H159.354V24.9127H125.215L87.898 62.1252V69.2647Z" fill="#1EAAE7"/>
<path d="M177.218 131.481H131.018C130.937 131.481 130.857 131.466 130.782 131.435C130.706 131.404 130.638 131.359 130.581 131.302L86.8447 87.5661C86.7876 87.5086 86.7424 87.4403 86.7118 87.3652C86.6811 87.2902 86.6656 87.2098 86.666 87.1287V80.9688H87.898V86.8762L131.271 130.249H177.218V131.481Z" fill="#1EAAE7"/>
<path d="M146.417 92.0562H121.673C121.511 92.0555 121.356 91.9914 121.241 91.8776L104.609 75.3503L105.478 74.4756L121.931 90.8242H146.417V92.0562Z" fill="#1EAAE7"/>
<path d="M129.299 75.2952L128.424 74.4266L145 57.7392C145.118 57.6266 145.275 57.5628 145.438 57.5605H170.441V58.7925H145.696L129.299 75.2952Z" fill="#1EAAE7"/>
<path d="M223.418 44.0081H125.616C125.534 44.0077 125.454 43.9912 125.379 43.9595C125.303 43.9278 125.235 43.8815 125.178 43.8233L115.359 33.9057L116.234 33.0371L125.874 42.7761H223.418V44.0081Z" fill="#1EAAE7"/>
<path d="M136.174 24.7334L135.33 23.8587L151.346 7.84271C151.404 7.78562 151.472 7.74045 151.547 7.7098C151.622 7.67914 151.702 7.6636 151.783 7.66407H203.09V8.89607H152.011L136.174 24.7334Z" fill="#1EAAE7"/>
<path d="M146.19 161.664L121.341 136.821C121.231 136.711 121.168 136.563 121.162 136.408V121.624H122.394V136.155L147.034 160.795L146.19 161.664Z" fill="#1EAAE7"/>
<path d="M140.59 131.105L139.715 130.249L156.051 113.808C156.169 113.695 156.325 113.631 156.489 113.629H218.489V114.861H156.747L140.59 131.105Z" fill="#1EAAE7"/>
<path d="M198.161 148.728H170.546C170.465 148.728 170.384 148.713 170.309 148.682C170.234 148.652 170.166 148.606 170.109 148.549L152.756 131.197L153.631 130.328L170.798 147.496H198.161V148.728Z" fill="#1EAAE7"/>
<path d="M203.089 11.1015C204.647 11.1015 205.91 9.8384 205.91 8.28026C205.91 6.72211 204.647 5.45898 203.089 5.45898C201.531 5.45898 200.268 6.72211 200.268 8.28026C200.268 9.8384 201.531 11.1015 203.089 11.1015Z" fill="#1EAAE7"/>
<path d="M164.898 30.8138C163.609 30.8138 162.349 30.4316 161.277 29.7155C160.206 28.9994 159.37 27.9815 158.877 26.7906C158.384 25.5997 158.255 24.2893 158.506 23.0251C158.758 21.7609 159.378 20.5996 160.29 19.6882C161.201 18.7767 162.362 18.156 163.627 17.9045C164.891 17.6531 166.201 17.7821 167.392 18.2754C168.583 18.7687 169.601 19.604 170.317 20.6758C171.033 21.7475 171.415 23.0076 171.415 24.2966C171.415 26.0251 170.729 27.6828 169.507 28.905C168.284 30.1272 166.627 30.8138 164.898 30.8138V30.8138ZM164.898 19.0113C163.853 19.0113 162.831 19.3213 161.962 19.902C161.093 20.4828 160.415 21.3082 160.015 22.274C159.615 23.2397 159.51 24.3024 159.714 25.3277C159.918 26.3529 160.422 27.2947 161.161 28.0338C161.9 28.773 162.842 29.2764 163.867 29.4803C164.892 29.6842 165.955 29.5796 166.921 29.1795C167.887 28.7795 168.712 28.1021 169.293 27.2329C169.874 26.3638 170.183 25.3419 170.183 24.2966C170.182 22.8953 169.624 21.5519 168.634 20.5611C167.643 19.5703 166.299 19.0129 164.898 19.0113V19.0113Z" fill="#1EAAE7"/>
<path d="M164.897 27.1181C166.456 27.1181 167.719 25.855 167.719 24.2969C167.719 22.7387 166.456 21.4756 164.897 21.4756C163.339 21.4756 162.076 22.7387 162.076 24.2969C162.076 25.855 163.339 27.1181 164.897 27.1181Z" fill="#1EAAE7"/>
<path d="M226.238 43.4974C226.237 44.0551 226.071 44.6 225.76 45.0631C225.449 45.5263 225.008 45.8869 224.492 46.0995C223.977 46.3121 223.41 46.3671 222.863 46.2575C222.316 46.148 221.814 45.8788 221.42 45.484C221.026 45.0892 220.758 44.5865 220.649 44.0394C220.541 43.4922 220.597 42.9253 220.811 42.4101C221.025 41.895 221.386 41.4547 221.85 41.145C222.314 40.8352 222.859 40.6699 223.417 40.6699C223.788 40.6699 224.155 40.7431 224.498 40.8853C224.841 41.0274 225.152 41.2358 225.414 41.4984C225.676 41.7611 225.884 42.0728 226.025 42.4158C226.167 42.7588 226.239 43.1264 226.238 43.4974V43.4974Z" fill="#1EAAE7"/>
<path d="M170.442 60.998C172.001 60.998 173.264 59.7349 173.264 58.1767C173.264 56.6186 172.001 55.3555 170.442 55.3555C168.884 55.3555 167.621 56.6186 167.621 58.1767C167.621 59.7349 168.884 60.998 170.442 60.998Z" fill="#1EAAE7"/>
<path d="M171.857 81.3256C170.568 81.3256 169.308 80.9434 168.236 80.2272C167.165 79.5111 166.329 78.4932 165.836 77.3024C165.343 76.1115 165.214 74.8011 165.465 73.5368C165.717 72.2726 166.337 71.1113 167.249 70.1999C168.16 69.2884 169.321 68.6677 170.586 68.4162C171.85 68.1648 173.16 68.2938 174.351 68.7871C175.542 69.2804 176.56 70.1157 177.276 71.1875C177.992 72.2593 178.374 73.5193 178.374 74.8083C178.374 76.5368 177.688 78.1945 176.466 79.4167C175.243 80.6389 173.586 81.3256 171.857 81.3256V81.3256ZM171.857 69.523C170.812 69.523 169.79 69.833 168.921 70.4138C168.052 70.9945 167.374 71.82 166.974 72.7857C166.574 73.7515 166.469 74.8142 166.673 75.8394C166.877 76.8647 167.381 77.8064 168.12 78.5456C168.859 79.2847 169.801 79.7881 170.826 79.992C171.851 80.196 172.914 80.0913 173.88 79.6913C174.846 79.2912 175.671 78.6138 176.252 77.7447C176.832 76.8755 177.142 75.8536 177.142 74.8083C177.141 73.4071 176.583 72.0637 175.593 71.0728C174.602 70.082 173.258 69.5246 171.857 69.523Z" fill="#1EAAE7"/>
<path d="M171.856 77.6299C173.415 77.6299 174.678 76.3667 174.678 74.8086C174.678 73.2504 173.415 71.9873 171.856 71.9873C170.298 71.9873 169.035 73.2504 169.035 74.8086C169.035 76.3667 170.298 77.6299 171.856 77.6299Z" fill="#1EAAE7"/>
<path d="M146.417 94.2617C147.975 94.2617 149.238 92.9985 149.238 91.4404C149.238 89.8823 147.975 88.6191 146.417 88.6191C144.859 88.6191 143.596 89.8823 143.596 91.4404C143.596 92.9985 144.859 94.2617 146.417 94.2617Z" fill="#1EAAE7"/>
<path d="M218.489 117.054C220.047 117.054 221.311 115.791 221.311 114.232C221.311 112.674 220.047 111.411 218.489 111.411C216.931 111.411 215.668 112.674 215.668 114.232C215.668 115.791 216.931 117.054 218.489 117.054Z" fill="#1EAAE7"/>
<path d="M182.762 137.283C181.472 137.284 180.21 136.903 179.136 136.187C178.063 135.471 177.225 134.452 176.731 133.26C176.236 132.069 176.106 130.757 176.357 129.491C176.608 128.225 177.229 127.062 178.141 126.149C179.053 125.236 180.215 124.614 181.481 124.362C182.747 124.11 184.058 124.239 185.251 124.732C186.443 125.226 187.462 126.062 188.179 127.135C188.897 128.208 189.279 129.469 189.279 130.76C189.279 132.489 188.593 134.147 187.371 135.37C186.149 136.594 184.491 137.282 182.762 137.283V137.283ZM182.762 125.474C181.715 125.473 180.691 125.783 179.82 126.364C178.949 126.945 178.27 127.771 177.868 128.738C177.467 129.705 177.362 130.77 177.566 131.797C177.77 132.824 178.274 133.767 179.014 134.507C179.755 135.248 180.698 135.752 181.725 135.956C182.752 136.16 183.816 136.055 184.784 135.653C185.751 135.252 186.577 134.573 187.158 133.702C187.739 132.831 188.048 131.807 188.047 130.76C188.046 129.359 187.488 128.015 186.497 127.024C185.507 126.033 184.163 125.476 182.762 125.474V125.474Z" fill="#1EAAE7"/>
<path d="M185.584 130.76C185.584 131.318 185.419 131.863 185.109 132.327C184.799 132.791 184.358 133.153 183.842 133.366C183.327 133.58 182.76 133.636 182.212 133.527C181.665 133.418 181.162 133.149 180.768 132.755C180.373 132.36 180.104 131.857 179.996 131.31C179.887 130.763 179.943 130.196 180.156 129.68C180.37 129.165 180.731 128.724 181.195 128.414C181.659 128.104 182.205 127.938 182.763 127.938C183.51 127.94 184.227 128.238 184.756 128.767C185.285 129.295 185.582 130.012 185.584 130.76V130.76Z" fill="#1EAAE7"/>
<path d="M198.161 150.934C199.719 150.934 200.982 149.67 200.982 148.112C200.982 146.554 199.719 145.291 198.161 145.291C196.603 145.291 195.34 146.554 195.34 148.112C195.34 149.67 196.603 150.934 198.161 150.934Z" fill="#1EAAE7"/>
<path d="M149.448 161.252C149.449 161.811 149.284 162.359 148.974 162.825C148.664 163.29 148.223 163.654 147.707 163.869C147.19 164.084 146.621 164.14 146.073 164.032C145.524 163.924 145.019 163.655 144.623 163.26C144.227 162.864 143.957 162.361 143.848 161.812C143.738 161.263 143.794 160.695 144.008 160.178C144.221 159.661 144.584 159.219 145.049 158.908C145.514 158.597 146.061 158.431 146.62 158.431C147.369 158.432 148.086 158.73 148.616 159.258C149.145 159.787 149.445 160.504 149.448 161.252V161.252Z" fill="#1EAAE7"/>
<path d="M220.811 0.734375H210.524C210.01 0.734375 209.594 1.15082 209.594 1.66454V15.6662C209.594 16.1799 210.01 16.5964 210.524 16.5964H220.811C221.325 16.5964 221.741 16.1799 221.741 15.6662V1.66454C221.741 1.15082 221.325 0.734375 220.811 0.734375Z" fill="#1EAAE7"/>
<path opacity="0.6" d="M220.811 0.734375H210.524C210.01 0.734375 209.594 1.15082 209.594 1.66454V15.6662C209.594 16.1799 210.01 16.5964 210.524 16.5964H220.811C221.325 16.5964 221.741 16.1799 221.741 15.6662V1.66454C221.741 1.15082 221.325 0.734375 220.811 0.734375Z" fill="white"/>
<path d="M219.926 2.98926H211.406V3.84548H219.926V2.98926Z" fill="#1EAAE7"/>
<path d="M219.926 4.48633H211.406V5.34257H219.926V4.48633Z" fill="#1EAAE7"/>
<path d="M219.926 5.98828H211.406V6.84452H219.926V5.98828Z" fill="#1EAAE7"/>
<path d="M219.926 7.48535H211.406V8.3416H219.926V7.48535Z" fill="#1EAAE7"/>
<path d="M219.926 8.98828H211.406V9.84452H219.926V8.98828Z" fill="#1EAAE7"/>
<path d="M219.926 10.4922H211.406V11.3484H219.926V10.4922Z" fill="#1EAAE7"/>
<path d="M219.926 11.9893H211.406V12.8455H219.926V11.9893Z" fill="#1EAAE7"/>
<path d="M216.926 13.4922H211.406V14.3484H216.926V13.4922Z" fill="#1EAAE7"/>
<path d="M163.573 84.8428H153.286C152.772 84.8428 152.355 85.2592 152.355 85.7729V99.7746C152.355 100.288 152.772 100.705 153.286 100.705H163.573C164.087 100.705 164.503 100.288 164.503 99.7746V85.7729C164.503 85.2592 164.087 84.8428 163.573 84.8428Z" fill="#1EAAE7"/>
<path opacity="0.6" d="M163.573 84.8428H153.286C152.772 84.8428 152.355 85.2592 152.355 85.7729V99.7746C152.355 100.288 152.772 100.705 153.286 100.705H163.573C164.087 100.705 164.503 100.288 164.503 99.7746V85.7729C164.503 85.2592 164.087 84.8428 163.573 84.8428Z" fill="white"/>
<path d="M162.685 87.0918H154.166V87.948H162.685V87.0918Z" fill="#1EAAE7"/>
<path d="M162.685 88.5947H154.166V89.451H162.685V88.5947Z" fill="#1EAAE7"/>
<path d="M162.685 90.0918H154.166V90.948H162.685V90.0918Z" fill="#1EAAE7"/>
<path d="M162.685 91.5947H154.166V92.451H162.685V91.5947Z" fill="#1EAAE7"/>
<path d="M162.685 93.0908H154.166V93.9471H162.685V93.0908Z" fill="#1EAAE7"/>
<path d="M162.685 94.5947H154.166V95.451H162.685V94.5947Z" fill="#1EAAE7"/>
<path d="M162.685 96.0977H154.166V96.9539H162.685V96.0977Z" fill="#1EAAE7"/>
<path d="M159.685 97.5938H154.166V98.45H159.685V97.5938Z" fill="#1EAAE7"/>
<path d="M234.635 101.912H224.348C223.834 101.912 223.418 102.329 223.418 102.842V116.844C223.418 117.358 223.834 117.774 224.348 117.774H234.635C235.149 117.774 235.566 117.358 235.566 116.844V102.842C235.566 102.329 235.149 101.912 234.635 101.912Z" fill="#1EAAE7"/>
<path opacity="0.6" d="M234.635 101.912H224.348C223.834 101.912 223.418 102.329 223.418 102.842V116.844C223.418 117.358 223.834 117.774 224.348 117.774H234.635C235.149 117.774 235.566 117.358 235.566 116.844V102.842C235.566 102.329 235.149 101.912 234.635 101.912Z" fill="white"/>
<path d="M233.748 104.167H225.229V105.023H233.748V104.167Z" fill="#1EAAE7"/>
<path d="M233.748 105.664H225.229V106.52H233.748V105.664Z" fill="#1EAAE7"/>
<path d="M233.748 107.167H225.229V108.023H233.748V107.167Z" fill="#1EAAE7"/>
<path d="M233.748 108.67H225.229V109.526H233.748V108.67Z" fill="#1EAAE7"/>
<path d="M233.748 110.167H225.229V111.023H233.748V110.167Z" fill="#1EAAE7"/>
<path d="M233.748 111.67H225.229V112.526H233.748V111.67Z" fill="#1EAAE7"/>
<path d="M233.748 113.167H225.229V114.023H233.748V113.167Z" fill="#1EAAE7"/>
<path d="M230.748 114.67H225.229V115.526H230.748V114.67Z" fill="#1EAAE7"/>
<path d="M239.452 31.1465H229.165C228.651 31.1465 228.234 31.5629 228.234 32.0766V46.0783C228.234 46.592 228.651 47.0085 229.165 47.0085H239.452C239.966 47.0085 240.382 46.592 240.382 46.0783V32.0766C240.382 31.5629 239.966 31.1465 239.452 31.1465Z" fill="#1EAAE7"/>
<path opacity="0.6" d="M239.452 31.1465H229.165C228.651 31.1465 228.234 31.5629 228.234 32.0766V46.0783C228.234 46.592 228.651 47.0085 229.165 47.0085H239.452C239.966 47.0085 240.382 46.592 240.382 46.0783V32.0766C240.382 31.5629 239.966 31.1465 239.452 31.1465Z" fill="white"/>
<path d="M238.564 33.4004H230.045V34.2566H238.564V33.4004Z" fill="#1EAAE7"/>
<path d="M238.564 34.8975H230.045V35.7537H238.564V34.8975Z" fill="#1EAAE7"/>
<path d="M238.564 36.4004H230.045V37.2566H238.564V36.4004Z" fill="#1EAAE7"/>
<path d="M238.564 37.9043H230.045V38.7605H238.564V37.9043Z" fill="#1EAAE7"/>
<path d="M238.564 39.4004H230.045V40.2567H238.564V39.4004Z" fill="#1EAAE7"/>
<path d="M238.564 40.9033H230.045V41.7596H238.564V40.9033Z" fill="#1EAAE7"/>
<path d="M238.564 42.4004H230.045V43.2567H238.564V42.4004Z" fill="#1EAAE7"/>
<path d="M235.564 43.9033H230.045V44.7596H235.564V43.9033Z" fill="#1EAAE7"/>
<path d="M163.801 158.098H153.514C153 158.098 152.584 158.514 152.584 159.028V173.029C152.584 173.543 153 173.96 153.514 173.96H163.801C164.315 173.96 164.732 173.543 164.732 173.029V159.028C164.732 158.514 164.315 158.098 163.801 158.098Z" fill="#1EAAE7"/>
<path opacity="0.6" d="M163.801 158.098H153.514C153 158.098 152.584 158.514 152.584 159.028V173.029C152.584 173.543 153 173.96 153.514 173.96H163.801C164.315 173.96 164.732 173.543 164.732 173.029V159.028C164.732 158.514 164.315 158.098 163.801 158.098Z" fill="white"/>
<path d="M162.914 160.353H154.395V161.209H162.914V160.353Z" fill="#1EAAE7"/>
<path d="M162.914 161.85H154.395V162.706H162.914V161.85Z" fill="#1EAAE7"/>
<path d="M162.914 163.353H154.395V164.209H162.914V163.353Z" fill="#1EAAE7"/>
<path d="M162.914 164.85H154.395V165.706H162.914V164.85Z" fill="#1EAAE7"/>
<path d="M162.914 166.352H154.395V167.208H162.914V166.352Z" fill="#1EAAE7"/>
<path d="M162.914 167.855H154.395V168.712H162.914V167.855Z" fill="#1EAAE7"/>
<path d="M162.914 169.352H154.395V170.208H162.914V169.352Z" fill="#1EAAE7"/>
<path d="M159.914 170.855H154.395V171.712H159.914V170.855Z" fill="#1EAAE7"/>
<path opacity="0.5" d="M225.228 84.0179C230.501 84.0179 234.776 79.7431 234.776 74.4699C234.776 69.1967 230.501 64.9219 225.228 64.9219C219.954 64.9219 215.68 69.1967 215.68 74.4699C215.68 79.7431 219.954 84.0179 225.228 84.0179Z" fill="white"/>
<path d="M212.132 120.084H192.014C191.616 120.084 191.293 120.407 191.293 120.805V140.923C191.293 141.321 191.616 141.644 192.014 141.644H212.132C212.53 141.644 212.853 141.321 212.853 140.923V120.805C212.853 120.407 212.53 120.084 212.132 120.084Z" fill="#1EAAE7"/>
<path opacity="0.5" d="M208.942 138.028H206.17V139.439H208.942V138.028Z" fill="white"/>
<path d="M208.942 123.953H206.17V125.364H208.942V123.953Z" fill="white"/>
<path d="M208.942 126.3H206.17V127.71H208.942V126.3Z" fill="white"/>
<path opacity="0.75" d="M208.942 128.646H206.17V130.057H208.942V128.646Z" fill="white"/>
<path opacity="0.5" d="M208.942 130.987H206.17V132.398H208.942V130.987Z" fill="white"/>
<path opacity="0.5" d="M208.942 133.335H206.17V134.746H208.942V133.335Z" fill="white"/>
<path opacity="0.5" d="M208.942 135.682H206.17V137.092H208.942V135.682Z" fill="white"/>
<path opacity="0.5" d="M205.172 138.028H202.4V139.439H205.172V138.028Z" fill="white"/>
<path d="M205.172 130.987H202.4V132.398H205.172V130.987Z" fill="white"/>
<path opacity="0.75" d="M205.172 133.335H202.4V134.746H205.172V133.335Z" fill="white"/>
<path opacity="0.5" d="M205.172 135.682H202.4V137.092H205.172V135.682Z" fill="white"/>
<path opacity="0.5" d="M201.395 138.028H198.623V139.439H201.395V138.028Z" fill="white"/>
<path d="M201.395 128.646H198.623V130.057H201.395V128.646Z" fill="white"/>
<path opacity="0.75" d="M201.395 130.987H198.623V132.398H201.395V130.987Z" fill="white"/>
<path opacity="0.5" d="M201.395 133.335H198.623V134.746H201.395V133.335Z" fill="white"/>
<path opacity="0.5" d="M201.395 135.682H198.623V137.092H201.395V135.682Z" fill="white"/>
<path opacity="0.5" d="M197.626 138.028H194.854V139.439H197.626V138.028Z" fill="white"/>
<path d="M197.626 133.335H194.854V134.746H197.626V133.335Z" fill="white"/>
<path opacity="0.75" d="M197.626 135.682H194.854V137.092H197.626V135.682Z" fill="white"/>
<path d="M195.642 16.3379H175.523C175.125 16.3379 174.803 16.6606 174.803 17.0586V37.1772C174.803 37.5752 175.125 37.8979 175.523 37.8979H195.642C196.04 37.8979 196.363 37.5752 196.363 37.1772V17.0586C196.363 16.6606 196.04 16.3379 195.642 16.3379Z" fill="#1EAAE7"/>
<path opacity="0.9" d="M187.141 24.7772V23.4282L186.445 23.3666C186.354 22.9264 186.178 22.5081 185.928 22.1346L186.371 21.5925L185.423 20.6008L184.881 21.0504C184.507 20.8011 184.088 20.6255 183.649 20.533L183.581 19.8369H182.232L182.17 20.533C181.731 20.6262 181.313 20.8017 180.938 21.0504L180.402 20.6008L179.447 21.5556L179.891 22.0976C179.645 22.4735 179.47 22.8909 179.374 23.3296L178.684 23.3912V24.7403L179.374 24.808C179.471 25.2462 179.647 25.6634 179.891 26.04L179.447 26.5821L180.402 27.5369L180.938 27.0872C181.313 27.3359 181.731 27.5115 182.17 27.6047L182.232 28.3008H183.581L183.649 27.6047C184.088 27.5122 184.507 27.3366 184.881 27.0872L185.423 27.5369L186.371 26.5821L185.928 26.04C186.177 25.6661 186.353 25.2479 186.445 24.808L187.141 24.7772ZM182.897 25.9292C182.532 25.9292 182.174 25.8208 181.87 25.6177C181.566 25.4147 181.33 25.126 181.19 24.7884C181.05 24.4507 181.013 24.0791 181.085 23.7206C181.156 23.3622 181.332 23.0329 181.59 22.7744C181.849 22.516 182.178 22.34 182.537 22.2687C182.895 22.1974 183.267 22.234 183.604 22.3738C183.942 22.5137 184.231 22.7506 184.434 23.0545C184.637 23.3584 184.745 23.7157 184.745 24.0812C184.745 24.5713 184.55 25.0413 184.204 25.3879C183.857 25.7345 183.387 25.9292 182.897 25.9292Z" fill="white"/>
<path opacity="0.6" d="M192.618 28.6081V27.5486L192.076 27.4993C192.002 27.1504 191.864 26.8183 191.669 26.5199L192.02 26.101L191.275 25.3495L190.85 25.7006C190.554 25.5055 190.223 25.3676 189.876 25.294L189.821 24.752H188.768L188.712 25.294C188.365 25.3676 188.035 25.5055 187.739 25.7006L187.314 25.3495L186.569 26.101L186.92 26.5199C186.722 26.8169 186.584 27.1496 186.513 27.4993L185.965 27.5486V28.6081L186.513 28.6574C186.584 29.0052 186.722 29.3359 186.92 29.6307L186.569 30.0557L187.314 30.8011L187.739 30.4561C188.035 30.6493 188.366 30.7852 188.712 30.8565L188.768 31.4048H189.821L189.876 30.8565C190.223 30.7852 190.553 30.6493 190.85 30.4561L191.275 30.8011L192.02 30.0557L191.669 29.6307C191.864 29.3345 192.002 29.0044 192.076 28.6574L192.618 28.6081ZM189.291 29.5075C189.007 29.5075 188.729 29.4232 188.493 29.2652C188.257 29.1072 188.073 28.8827 187.965 28.62C187.856 28.3574 187.828 28.0685 187.884 27.7899C187.94 27.5113 188.077 27.2556 188.279 27.0551C188.48 26.8546 188.736 26.7184 189.015 26.6638C189.294 26.6091 189.583 26.6384 189.845 26.748C190.107 26.8575 190.331 27.0425 190.488 27.2793C190.645 27.5161 190.728 27.7942 190.727 28.0784C190.724 28.266 190.685 28.4514 190.611 28.6239C190.537 28.7964 190.429 28.9525 190.295 29.0835C190.16 29.2145 190.002 29.3178 189.827 29.3873C189.653 29.4569 189.467 29.4915 189.279 29.489L189.291 29.5075Z" fill="white"/>
<path opacity="0.4" d="M187.14 31.5901V30.7031L186.685 30.66C186.623 30.3656 186.505 30.0856 186.34 29.8345L186.635 29.4834L186.019 28.8674L185.662 29.1631C185.415 28.9939 185.136 28.8765 184.843 28.8181L184.8 28.3623H183.913L183.87 28.8181C183.577 28.8787 183.298 28.9959 183.05 29.1631L182.699 28.8674L182.083 29.4834L182.373 29.8345C182.209 30.0859 182.094 30.366 182.034 30.66L181.578 30.7031V31.5901L182.034 31.6333C182.095 31.925 182.21 32.2028 182.373 32.4525L182.083 32.8037L182.699 33.4197L183.05 33.1301C183.3 33.2929 183.578 33.4078 183.87 33.4689L183.913 33.9248H184.8L184.843 33.4689C185.135 33.4101 185.414 33.2951 185.662 33.1301L186.019 33.4197L186.635 32.8037L186.34 32.4525C186.504 32.2032 186.621 31.9254 186.685 31.6333L187.14 31.5901ZM184.344 32.3478C184.106 32.3478 183.874 32.2774 183.677 32.1454C183.479 32.0134 183.325 31.8258 183.234 31.6063C183.143 31.3868 183.119 31.1453 183.166 30.9123C183.212 30.6793 183.327 30.4652 183.495 30.2972C183.663 30.1293 183.877 30.0149 184.11 29.9685C184.343 29.9222 184.584 29.9459 184.804 30.0369C185.023 30.1278 185.211 30.2817 185.343 30.4793C185.475 30.6768 185.545 30.9091 185.545 31.1466C185.537 31.4627 185.408 31.7638 185.185 31.9874C184.961 32.211 184.66 32.34 184.344 32.3478V32.3478Z" fill="white"/>
<path d="M183.685 56.8154H177.451V57.222H183.685V56.8154Z" fill="white"/>
<path d="M185.299 58.0537H177.451V58.4603H185.299V58.0537Z" fill="white"/>
<path d="M180.217 59.291H177.451V59.6976H180.217V59.291Z" fill="white"/>
<path d="M179.244 60.5293H177.451V60.9359H179.244V60.5293Z" fill="white"/>
<path d="M224.458 145.803H205.516V158.123H224.458V145.803Z" fill="#1EAAE7"/>
<path opacity="0.6" d="M224.458 145.803H205.516V158.123H224.458V145.803Z" fill="white"/>
<path d="M223.763 148.112H206.207V157.506H223.763V148.112Z" fill="#1EAAE7"/>
<path d="M220.62 149.517H207.635V149.923H220.62V149.517Z" fill="white"/>
<path d="M213.869 150.755H207.635V151.161H213.869V150.755Z" fill="white"/>
<path d="M215.483 151.993H207.635V152.4H215.483V151.993Z" fill="white"/>
<path d="M210.401 153.231H207.635V153.638H210.401V153.231Z" fill="white"/>
<path d="M209.427 154.47H207.635V154.876H209.427V154.47Z" fill="white"/>
<g opacity="0.6">
<path d="M225.876 60.0156H205.514C205.514 65.093 209.629 69.208 214.706 69.208H218.456V72.8289C218.46 77.9021 222.571 82.0128 227.642 82.0149V61.7816C227.642 60.8064 226.851 60.0156 225.876 60.0156Z" fill="#2684FF"/>
<path d="M215.8 70.1621H195.438C195.44 75.2353 199.552 79.346 204.623 79.3481H208.374V82.9818C208.38 88.0549 212.493 92.1614 217.566 92.1614V71.9281C217.568 70.9529 216.777 70.1621 215.8 70.1621Z" fill="url(#paint0_linear)"/>
<path d="M205.72 80.3018H185.357C185.357 85.3792 189.472 89.4941 194.55 89.4941H198.313V93.115C198.317 98.1818 202.419 102.293 207.488 102.301V82.0677C207.486 81.0925 206.695 80.3018 205.72 80.3018Z" fill="url(#paint1_linear)"/>
</g>
<defs>
<linearGradient id="paint0_linear" x1="217.132" y1="70.1941" x2="208.525" y2="79.1767" gradientUnits="userSpaceOnUse">
<stop offset="0.18" stop-color="#0052CC"/>
<stop offset="1" stop-color="#2684FF"/>
</linearGradient>
<linearGradient id="paint1_linear" x1="207.631" y1="80.3982" x2="197.674" y2="90.1939" gradientUnits="userSpaceOnUse">
<stop offset="0.18" stop-color="#0052CC"/>
<stop offset="1" stop-color="#2684FF"/>
</linearGradient>
</defs>
</svg>
