<svg width="190" height="217" viewBox="0 0 190 217" fill="none" xmlns="http://www.w3.org/2000/svg">
<path d="M4.59885 78.8196C-6.14545 147.538 65.7318 103.634 88.926 109.064C105.569 112.956 122.212 148.985 144.843 149.97C168.622 151.009 186.762 124.604 189.656 100.835C194.038 64.9139 150.445 -6.47702 112.183 0.472856C83.1626 5.74083 87.5803 53.0564 60.4484 62.9437C43.3879 69.1066 10.4456 41.3732 4.59885 78.8196Z" fill="#E76B6B" fill-opacity="0.5"/>
<path opacity="0.6" d="M168.239 119.963C191.379 174.17 123.511 153.049 105.708 162.33C92.9326 168.986 86.8756 202.037 68.6032 207.55C49.4051 213.345 29.0728 195.428 21.7399 176.507C10.6528 147.915 31.3212 80.2192 64.0159 77.9748C88.8125 76.27 95.0976 116.05 119.318 118.531C134.537 120.047 155.637 90.4222 168.239 119.963Z" fill="#FCC8C8" fill-opacity="0.45"/>
</svg>
