<svg width="326" height="253" viewBox="0 0 326 253" fill="none" xmlns="http://www.w3.org/2000/svg">
<g clip-path="url(#clip0)">
<path opacity="0.1" d="M70.6972 0.190864C60.2141 -0.196181 49.2636 -0.468321 39.7848 4.03712C30.306 8.54255 22.9775 19.4584 26.1562 29.4944C27.1937 32.7661 29.2143 35.6175 30.9182 38.5959C39.438 53.4911 39.8331 72.7435 31.9346 87.9804C25.8547 99.7096 15.5495 108.636 8.13057 119.564C0.71161 130.492 -3.50453 145.638 3.7938 156.647C8.79104 164.186 18.0647 167.854 27.0489 168.743C36.0331 169.632 45.0686 168.232 54.0919 167.872C71.6508 167.195 89.1347 170.51 105.235 177.569C127.398 187.312 146.491 203.979 169.828 210.41C172.629 211.181 175.558 211.804 178.423 211.281C183.505 210.353 187.199 206.141 191.177 202.815C203.877 192.271 221.459 190.302 237.943 189.812C254.428 189.322 271.597 189.7 286.498 182.604C299.509 176.408 309.524 164.881 315.752 151.861C321.98 138.84 324.685 124.372 325.704 109.963C326.308 101.388 326.286 92.5342 323.225 84.506C319.784 75.48 312.806 68.2925 305.486 62.0091C297.838 55.4414 289.502 49.4906 280.06 45.9468C268.78 41.7135 256.536 41.1087 244.527 40.1048C219.901 38.0427 195.467 34.1085 171.435 28.3362C148.626 22.8692 123.583 16.8973 102.81 5.76067C92.3841 0.169698 82.4499 0.614193 70.6972 0.190864Z" fill="#00B0FF"/>
<g opacity="0.1">
<path opacity="0.1" d="M215.295 190.399C215.295 190.399 216.363 175.398 224.783 167.219C228.337 163.811 230.693 159.338 231.496 154.474C231.858 152.161 232.01 149.82 231.948 147.479" fill="#00B0FF"/>
<path opacity="0.1" d="M237.222 142.294C236.604 143.951 231.824 147.634 231.824 147.634C231.824 147.634 230.618 141.71 231.242 140.053C231.538 139.258 232.137 138.613 232.908 138.261C233.678 137.909 234.556 137.878 235.349 138.175C236.142 138.472 236.785 139.073 237.137 139.845C237.488 140.618 237.519 141.498 237.222 142.294V142.294Z" fill="#00B0FF"/>
<path opacity="0.1" d="M238.749 153.321C237.332 154.374 231.324 154.861 231.324 154.861C231.324 154.861 233.526 149.233 234.943 148.178C235.624 147.699 236.465 147.506 237.287 147.639C238.108 147.772 238.845 148.221 239.341 148.891C239.837 149.561 240.053 150.399 239.942 151.225C239.832 152.052 239.404 152.803 238.749 153.318V153.321Z" fill="#00B0FF"/>
<path opacity="0.1" d="M232.691 168.915C230.935 169.109 225.504 166.496 225.504 166.496C225.504 166.496 230.239 162.753 231.991 162.565C232.806 162.521 233.606 162.79 234.229 163.319C234.851 163.848 235.248 164.595 235.337 165.408C235.427 166.221 235.203 167.038 234.71 167.69C234.218 168.342 233.495 168.781 232.691 168.915Z" fill="#00B0FF"/>
<path opacity="0.1" d="M225.456 179.68C223.761 180.167 217.965 178.504 217.965 178.504C217.965 178.504 222 174.013 223.695 173.527C224.102 173.397 224.531 173.35 224.956 173.389C225.381 173.429 225.794 173.553 226.171 173.755C226.547 173.957 226.88 174.233 227.148 174.566C227.416 174.9 227.615 175.283 227.733 175.695C227.851 176.106 227.885 176.538 227.834 176.963C227.782 177.388 227.647 177.798 227.434 178.17C227.222 178.541 226.938 178.866 226.598 179.126C226.258 179.385 225.87 179.574 225.456 179.68V179.68Z" fill="#00B0FF"/>
<path opacity="0.1" d="M224.924 152.828C225.678 154.425 230.751 157.687 230.751 157.687C230.751 157.687 231.45 151.685 230.693 150.086C230.316 149.343 229.665 148.778 228.878 148.509C228.091 148.24 227.231 148.29 226.48 148.647C225.729 149.004 225.146 149.64 224.856 150.421C224.565 151.202 224.59 152.065 224.924 152.828V152.828Z" fill="#00B0FF"/>
<path opacity="0.1" d="M216.623 165.525C217.829 166.823 223.634 168.416 223.634 168.416C223.634 168.416 222.509 162.477 221.312 161.177C220.736 160.557 219.939 160.191 219.094 160.159C218.25 160.128 217.427 160.433 216.807 161.008C216.186 161.584 215.818 162.382 215.784 163.229C215.749 164.075 216.051 164.901 216.623 165.525V165.525Z" fill="#00B0FF"/>
<path opacity="0.1" d="M210.243 178.976C211.202 180.457 216.667 183.012 216.667 183.012C216.667 183.012 216.559 176.965 215.597 175.486C215.124 174.8 214.403 174.326 213.587 174.165C212.772 174.004 211.925 174.168 211.228 174.622C210.531 175.076 210.038 175.785 209.855 176.598C209.671 177.411 209.81 178.264 210.243 178.976Z" fill="#00B0FF"/>
<path opacity="0.1" d="M237.222 142.294C236.604 143.951 231.824 147.634 231.824 147.634C231.824 147.634 230.618 141.71 231.242 140.053C231.538 139.258 232.137 138.613 232.908 138.261C233.678 137.909 234.556 137.878 235.349 138.175C236.142 138.472 236.785 139.073 237.137 139.845C237.488 140.618 237.519 141.498 237.222 142.294V142.294Z" fill="#00B0FF"/>
<path opacity="0.1" d="M238.749 153.321C237.332 154.374 231.324 154.861 231.324 154.861C231.324 154.861 233.526 149.233 234.943 148.178C235.624 147.699 236.465 147.506 237.287 147.639C238.108 147.772 238.845 148.221 239.341 148.891C239.837 149.561 240.053 150.399 239.942 151.225C239.832 152.052 239.404 152.803 238.749 153.318V153.321Z" fill="#00B0FF"/>
<path opacity="0.1" d="M232.691 168.915C230.935 169.109 225.504 166.496 225.504 166.496C225.504 166.496 230.239 162.753 231.991 162.565C232.806 162.521 233.606 162.79 234.229 163.319C234.851 163.848 235.248 164.595 235.337 165.408C235.427 166.221 235.203 167.038 234.71 167.69C234.218 168.342 233.495 168.781 232.691 168.915Z" fill="#00B0FF"/>
<path opacity="0.1" d="M225.456 179.68C223.761 180.167 217.965 178.504 217.965 178.504C217.965 178.504 222 174.013 223.695 173.527C224.102 173.397 224.531 173.35 224.956 173.389C225.381 173.429 225.794 173.553 226.171 173.755C226.547 173.957 226.88 174.233 227.148 174.566C227.416 174.9 227.615 175.283 227.733 175.695C227.851 176.106 227.885 176.538 227.834 176.963C227.782 177.388 227.647 177.798 227.434 178.17C227.222 178.541 226.938 178.866 226.598 179.126C226.258 179.385 225.87 179.574 225.456 179.68V179.68Z" fill="#00B0FF"/>
<path opacity="0.1" d="M224.924 152.828C225.678 154.425 230.751 157.687 230.751 157.687C230.751 157.687 231.45 151.685 230.693 150.086C230.316 149.343 229.665 148.778 228.878 148.509C228.091 148.24 227.231 148.29 226.48 148.647C225.729 149.004 225.146 149.64 224.856 150.421C224.565 151.202 224.59 152.065 224.924 152.828V152.828Z" fill="#00B0FF"/>
<path opacity="0.1" d="M216.623 165.525C217.829 166.823 223.634 168.416 223.634 168.416C223.634 168.416 222.509 162.477 221.312 161.177C220.736 160.557 219.939 160.191 219.094 160.159C218.25 160.128 217.427 160.433 216.807 161.008C216.186 161.584 215.818 162.382 215.784 163.229C215.749 164.075 216.051 164.901 216.623 165.525V165.525Z" fill="#00B0FF"/>
<path opacity="0.1" d="M210.243 178.976C211.202 180.457 216.667 183.012 216.667 183.012C216.667 183.012 216.559 176.965 215.597 175.486C215.124 174.8 214.403 174.326 213.587 174.165C212.772 174.004 211.925 174.168 211.228 174.622C210.531 175.076 210.038 175.785 209.855 176.598C209.671 177.411 209.81 178.264 210.243 178.976Z" fill="#00B0FF"/>
</g>
<g opacity="0.1">
<path opacity="0.1" d="M218.25 133.618C218.25 133.618 219.318 118.617 227.738 110.438C231.291 107.029 233.647 102.557 234.451 97.6923C234.816 95.3799 234.968 93.0386 234.903 90.6982" fill="#00B0FF"/>
<path opacity="0.1" d="M240.18 85.5123C239.577 87.1663 234.784 90.8493 234.784 90.8493C234.784 90.8493 233.578 84.9257 234.199 83.2717C234.496 82.4765 235.095 81.832 235.865 81.4798C236.636 81.1277 237.514 81.0968 238.307 81.3939C239.1 81.691 239.743 82.2918 240.094 83.0642C240.445 83.8365 240.476 84.7171 240.18 85.5123V85.5123Z" fill="#00B0FF"/>
<path opacity="0.1" d="M241.714 96.5369C240.3 97.5922 234.289 98.076 234.289 98.076C234.289 98.076 236.491 92.4518 237.908 91.3965C238.244 91.1323 238.629 90.9382 239.04 90.8257C239.452 90.7131 239.882 90.6844 240.305 90.7413C240.728 90.7981 241.135 90.9394 241.503 91.1567C241.87 91.374 242.19 91.6629 242.445 92.0064C242.699 92.3499 242.882 92.741 242.983 93.1566C243.084 93.5723 243.101 94.004 243.033 94.4263C242.965 94.8486 242.813 95.253 242.587 95.6155C242.36 95.978 242.063 96.2913 241.714 96.5369V96.5369Z" fill="#00B0FF"/>
<path opacity="0.1" d="M235.647 112.134C233.894 112.327 228.463 109.715 228.463 109.715C228.463 109.715 233.198 105.974 234.95 105.784C235.371 105.73 235.798 105.76 236.207 105.873C236.617 105.987 236.999 106.181 237.332 106.444C237.666 106.707 237.944 107.034 238.15 107.406C238.356 107.778 238.486 108.188 238.532 108.611C238.578 109.034 238.54 109.462 238.419 109.87C238.299 110.278 238.098 110.657 237.83 110.987C237.561 111.316 237.23 111.589 236.855 111.788C236.48 111.988 236.069 112.11 235.647 112.149V112.134Z" fill="#00B0FF"/>
<path opacity="0.1" d="M228.411 122.898C226.716 123.385 220.92 121.722 220.92 121.722C220.92 121.722 224.958 117.231 226.65 116.742C227.46 116.52 228.325 116.628 229.057 117.041C229.789 117.454 230.329 118.14 230.56 118.95C230.791 119.759 230.695 120.628 230.292 121.367C229.89 122.106 229.213 122.656 228.408 122.898H228.411Z" fill="#00B0FF"/>
<path opacity="0.1" d="M227.881 96.0442C228.635 97.6438 233.711 100.906 233.711 100.906C233.711 100.906 234.407 94.9012 233.653 93.3046C233.479 92.9164 233.23 92.5668 232.919 92.2764C232.608 91.986 232.243 91.7607 231.845 91.6135C231.446 91.4663 231.023 91.4002 230.598 91.4192C230.174 91.4382 229.758 91.5417 229.374 91.7239C228.99 91.9061 228.647 92.1631 228.363 92.48C228.08 92.797 227.862 93.1674 227.723 93.5697C227.584 93.972 227.526 94.398 227.553 94.8229C227.581 95.2478 227.692 95.663 227.881 96.0442V96.0442Z" fill="#00B0FF"/>
<path opacity="0.1" d="M219.577 108.741C220.783 110.042 226.592 111.632 226.592 111.632C226.592 111.632 225.464 105.693 224.266 104.396C223.686 103.798 222.895 103.45 222.062 103.428C221.229 103.406 220.421 103.71 219.809 104.277C219.198 104.844 218.831 105.628 218.788 106.462C218.744 107.296 219.027 108.114 219.577 108.741V108.741Z" fill="#00B0FF"/>
<path opacity="0.1" d="M213.199 122.194C214.161 123.675 219.623 126.23 219.623 126.23C219.623 126.23 219.514 120.183 218.552 118.704C218.33 118.339 218.036 118.022 217.69 117.772C217.343 117.522 216.95 117.345 216.533 117.25C216.117 117.156 215.685 117.146 215.265 117.221C214.845 117.296 214.444 117.455 214.086 117.688C213.728 117.922 213.42 118.225 213.181 118.579C212.942 118.934 212.776 119.333 212.693 119.753C212.611 120.173 212.613 120.606 212.7 121.025C212.787 121.444 212.956 121.841 213.199 122.194Z" fill="#00B0FF"/>
<path opacity="0.1" d="M240.18 85.5123C239.577 87.1663 234.784 90.8493 234.784 90.8493C234.784 90.8493 233.578 84.9257 234.199 83.2717C234.496 82.4765 235.095 81.832 235.865 81.4798C236.636 81.1277 237.514 81.0968 238.307 81.3939C239.1 81.691 239.743 82.2918 240.094 83.0642C240.445 83.8365 240.476 84.7171 240.18 85.5123V85.5123Z" fill="#00B0FF"/>
<path opacity="0.1" d="M241.714 96.5369C240.3 97.5922 234.289 98.076 234.289 98.076C234.289 98.076 236.491 92.4518 237.908 91.3965C238.244 91.1323 238.629 90.9382 239.04 90.8257C239.452 90.7131 239.882 90.6844 240.305 90.7413C240.728 90.7981 241.135 90.9394 241.503 91.1567C241.87 91.374 242.19 91.6629 242.445 92.0064C242.699 92.3499 242.882 92.741 242.983 93.1566C243.084 93.5723 243.101 94.004 243.033 94.4263C242.965 94.8486 242.813 95.253 242.587 95.6155C242.36 95.978 242.063 96.2913 241.714 96.5369V96.5369Z" fill="#00B0FF"/>
<path opacity="0.1" d="M235.647 112.134C233.894 112.327 228.463 109.715 228.463 109.715C228.463 109.715 233.198 105.974 234.95 105.784C235.371 105.73 235.798 105.76 236.207 105.873C236.617 105.987 236.999 106.181 237.332 106.444C237.666 106.707 237.944 107.034 238.15 107.406C238.356 107.778 238.486 108.188 238.532 108.611C238.578 109.034 238.54 109.462 238.419 109.87C238.299 110.278 238.098 110.657 237.83 110.987C237.561 111.316 237.23 111.589 236.855 111.788C236.48 111.988 236.069 112.11 235.647 112.149V112.134Z" fill="#00B0FF"/>
<path opacity="0.1" d="M228.411 122.898C226.716 123.385 220.92 121.722 220.92 121.722C220.92 121.722 224.958 117.231 226.65 116.742C227.46 116.52 228.325 116.628 229.057 117.041C229.789 117.454 230.329 118.14 230.56 118.95C230.791 119.759 230.695 120.628 230.292 121.367C229.89 122.106 229.213 122.656 228.408 122.898H228.411Z" fill="#00B0FF"/>
<path opacity="0.1" d="M227.881 96.0442C228.635 97.6438 233.711 100.906 233.711 100.906C233.711 100.906 234.407 94.9012 233.653 93.3046C233.479 92.9164 233.23 92.5668 232.919 92.2764C232.608 91.986 232.243 91.7607 231.845 91.6135C231.446 91.4663 231.023 91.4002 230.598 91.4192C230.174 91.4382 229.758 91.5417 229.374 91.7239C228.99 91.9061 228.647 92.1631 228.363 92.48C228.08 92.797 227.862 93.1674 227.723 93.5697C227.584 93.972 227.526 94.398 227.553 94.8229C227.581 95.2478 227.692 95.663 227.881 96.0442V96.0442Z" fill="#00B0FF"/>
<path opacity="0.1" d="M219.577 108.741C220.783 110.042 226.592 111.632 226.592 111.632C226.592 111.632 225.464 105.693 224.266 104.396C223.686 103.798 222.895 103.45 222.062 103.428C221.229 103.406 220.421 103.71 219.809 104.277C219.198 104.844 218.831 105.628 218.788 106.462C218.744 107.296 219.027 108.114 219.577 108.741V108.741Z" fill="#00B0FF"/>
<path opacity="0.1" d="M213.199 122.194C214.161 123.675 219.623 126.23 219.623 126.23C219.623 126.23 219.514 120.183 218.552 118.704C218.33 118.339 218.036 118.022 217.69 117.772C217.343 117.522 216.95 117.345 216.533 117.25C216.117 117.156 215.685 117.146 215.265 117.221C214.845 117.296 214.444 117.455 214.086 117.688C213.728 117.922 213.42 118.225 213.181 118.579C212.942 118.934 212.776 119.333 212.693 119.753C212.611 120.173 212.613 120.606 212.7 121.025C212.787 121.444 212.956 121.841 213.199 122.194Z" fill="#00B0FF"/>
</g>
<g opacity="0.1">
<path opacity="0.1" d="M58.2633 153.272C58.2633 153.272 45.3827 145.574 41.8753 134.362C40.4388 129.646 37.5134 125.525 33.5395 122.62C31.642 121.254 29.6229 120.065 27.5078 119.07" fill="#00B0FF"/>
<path opacity="0.1" d="M25.261 112.007C26.4674 113.304 27.5923 119.243 27.5923 119.243C27.5923 119.243 21.7747 117.655 20.5774 116.358C20.0291 115.731 19.7463 114.914 19.7895 114.081C19.8326 113.248 20.1981 112.465 20.8082 111.898C21.4184 111.331 22.225 111.026 23.0566 111.046C23.8882 111.066 24.6791 111.411 25.261 112.007Z" fill="#00B0FF"/>
<path opacity="0.1" d="M35.7708 115.614C36.0724 117.356 33.8045 122.956 33.8045 122.956C33.8045 122.956 29.7814 118.454 29.4798 116.712C29.3964 116.293 29.3974 115.862 29.4828 115.443C29.5682 115.025 29.7362 114.627 29.9771 114.275C30.2179 113.923 30.5266 113.622 30.8851 113.391C31.2435 113.16 31.6444 113.003 32.0642 112.93C32.484 112.857 32.9141 112.869 33.3293 112.965C33.7445 113.061 34.1363 113.239 34.4817 113.489C34.8271 113.739 35.1191 114.056 35.3405 114.421C35.5619 114.786 35.7082 115.192 35.7708 115.614V115.614Z" fill="#00B0FF"/>
<path opacity="0.1" d="M46.941 128.036C46.3378 129.693 41.5456 133.379 41.5456 133.379C41.5456 133.379 40.3393 127.455 40.9576 125.801C41.0953 125.396 41.3126 125.022 41.5968 124.703C41.8809 124.383 42.2261 124.124 42.6119 123.941C42.9977 123.757 43.4162 123.653 43.8428 123.635C44.2694 123.616 44.6953 123.684 45.0954 123.833C45.4955 123.983 45.8617 124.211 46.1723 124.505C46.4828 124.799 46.7315 125.152 46.9036 125.544C47.0756 125.935 47.1676 126.358 47.174 126.786C47.1805 127.214 47.1012 127.639 46.941 128.036V128.036Z" fill="#00B0FF"/>
<path opacity="0.1" d="M53.2773 139.354C52.9516 141.092 48.8621 145.549 48.8621 145.549C48.8621 145.549 46.6756 139.916 47.0044 138.18C47.0822 137.767 47.2404 137.374 47.4699 137.022C47.6994 136.671 47.9958 136.368 48.3421 136.131C48.6883 135.894 49.0778 135.728 49.4881 135.642C49.8984 135.556 50.3216 135.552 50.7335 135.63C51.1453 135.708 51.5379 135.866 51.8886 136.097C52.2394 136.327 52.5415 136.624 52.7777 136.971C53.0139 137.318 53.1796 137.709 53.2654 138.12C53.3511 138.531 53.3551 138.956 53.2773 139.369V139.354Z" fill="#00B0FF"/>
<path opacity="0.1" d="M29.1181 127.758C30.8793 127.8 36.0696 124.734 36.0696 124.734C36.0696 124.734 31.0331 121.408 29.2689 121.365C28.4327 121.362 27.6286 121.688 27.0293 122.272C26.4299 122.857 26.0831 123.654 26.0634 124.492C26.0436 125.33 26.3525 126.142 26.9237 126.755C27.4948 127.367 28.2827 127.73 29.1181 127.767V127.758Z" fill="#00B0FF"/>
<path opacity="0.1" d="M36.6981 140.902C38.393 140.412 42.4282 135.919 42.4282 135.919C42.4282 135.919 36.6317 134.259 34.9368 134.749C34.1409 134.998 33.474 135.551 33.0787 136.287C32.6834 137.023 32.5911 137.886 32.8216 138.689C33.052 139.493 33.5869 140.174 34.3118 140.588C35.0368 141.001 35.8943 141.114 36.7011 140.902H36.6981Z" fill="#00B0FF"/>
<path opacity="0.1" d="M45.8113 152.662C47.5665 152.468 52.2984 148.731 52.2984 148.731C52.2984 148.731 46.8699 146.112 45.1116 146.312C44.6784 146.335 44.2546 146.448 43.8661 146.641C43.4777 146.835 43.1326 147.106 42.8522 147.438C42.5717 147.77 42.3616 148.155 42.2349 148.571C42.1082 148.987 42.0674 149.425 42.115 149.857C42.1626 150.29 42.2977 150.708 42.512 151.086C42.7262 151.464 43.0152 151.795 43.3611 152.057C43.7071 152.32 44.1028 152.509 44.5241 152.612C44.9454 152.716 45.3834 152.733 45.8113 152.662V152.662Z" fill="#00B0FF"/>
<path opacity="0.1" d="M25.261 112.007C26.4674 113.304 27.5923 119.243 27.5923 119.243C27.5923 119.243 21.7747 117.655 20.5774 116.358C20.0291 115.731 19.7463 114.914 19.7895 114.081C19.8326 113.248 20.1981 112.465 20.8082 111.898C21.4184 111.331 22.225 111.026 23.0566 111.046C23.8882 111.066 24.6791 111.411 25.261 112.007Z" fill="#00B0FF"/>
<path opacity="0.1" d="M35.7708 115.614C36.0724 117.356 33.8045 122.956 33.8045 122.956C33.8045 122.956 29.7814 118.454 29.4798 116.712C29.3964 116.293 29.3974 115.862 29.4828 115.443C29.5682 115.025 29.7362 114.627 29.9771 114.275C30.2179 113.923 30.5266 113.622 30.8851 113.391C31.2435 113.16 31.6444 113.003 32.0642 112.93C32.484 112.857 32.9141 112.869 33.3293 112.965C33.7445 113.061 34.1363 113.239 34.4817 113.489C34.8271 113.739 35.1191 114.056 35.3405 114.421C35.5619 114.786 35.7082 115.192 35.7708 115.614V115.614Z" fill="#00B0FF"/>
<path opacity="0.1" d="M46.941 128.036C46.3378 129.693 41.5456 133.379 41.5456 133.379C41.5456 133.379 40.3393 127.455 40.9576 125.801C41.0953 125.396 41.3126 125.022 41.5968 124.703C41.8809 124.383 42.2261 124.124 42.6119 123.941C42.9977 123.757 43.4162 123.653 43.8428 123.635C44.2694 123.616 44.6953 123.684 45.0954 123.833C45.4955 123.983 45.8617 124.211 46.1723 124.505C46.4828 124.799 46.7315 125.152 46.9036 125.544C47.0756 125.935 47.1676 126.358 47.174 126.786C47.1805 127.214 47.1012 127.639 46.941 128.036V128.036Z" fill="#00B0FF"/>
<path opacity="0.1" d="M53.2773 139.354C52.9516 141.092 48.8621 145.549 48.8621 145.549C48.8621 145.549 46.6756 139.916 47.0044 138.18C47.0822 137.767 47.2404 137.374 47.4699 137.022C47.6994 136.671 47.9958 136.368 48.3421 136.131C48.6883 135.894 49.0778 135.728 49.4881 135.642C49.8984 135.556 50.3216 135.552 50.7335 135.63C51.1453 135.708 51.5379 135.866 51.8886 136.097C52.2394 136.327 52.5415 136.624 52.7777 136.971C53.0139 137.318 53.1796 137.709 53.2654 138.12C53.3511 138.531 53.3551 138.956 53.2773 139.369V139.354Z" fill="#00B0FF"/>
<path opacity="0.1" d="M29.1181 127.758C30.8793 127.8 36.0696 124.734 36.0696 124.734C36.0696 124.734 31.0331 121.408 29.2689 121.365C28.4327 121.362 27.6286 121.688 27.0293 122.272C26.4299 122.857 26.0831 123.654 26.0634 124.492C26.0436 125.33 26.3525 126.142 26.9237 126.755C27.4948 127.367 28.2827 127.73 29.1181 127.767V127.758Z" fill="#00B0FF"/>
<path opacity="0.1" d="M36.6981 140.902C38.393 140.412 42.4282 135.919 42.4282 135.919C42.4282 135.919 36.6317 134.259 34.9368 134.749C34.1409 134.998 33.474 135.551 33.0787 136.287C32.6834 137.023 32.5911 137.886 32.8216 138.689C33.052 139.493 33.5869 140.174 34.3118 140.588C35.0368 141.001 35.8943 141.114 36.7011 140.902H36.6981Z" fill="#00B0FF"/>
<path opacity="0.1" d="M45.8113 152.662C47.5665 152.468 52.2984 148.731 52.2984 148.731C52.2984 148.731 46.8699 146.112 45.1116 146.312C44.6784 146.335 44.2546 146.448 43.8661 146.641C43.4777 146.835 43.1326 147.106 42.8522 147.438C42.5717 147.77 42.3616 148.155 42.2349 148.571C42.1082 148.987 42.0674 149.425 42.115 149.857C42.1626 150.29 42.2977 150.708 42.512 151.086C42.7262 151.464 43.0152 151.795 43.3611 152.057C43.7071 152.32 44.1028 152.509 44.5241 152.612C44.9454 152.716 45.3834 152.733 45.8113 152.662V152.662Z" fill="#00B0FF"/>
</g>
<path opacity="0.1" d="M216.154 243.823C224.813 247.6 235.377 245.302 245.203 245.568C246.545 245.604 247.971 245.716 249.048 246.369C250.125 247.022 250.659 248.078 251.397 248.985C254.151 252.353 259.793 253.436 264.724 252.864C269.655 252.293 274.176 250.4 278.829 248.961C286.873 246.469 296.065 245.332 304 248.053C304.726 248.301 305.508 248.589 306.274 248.489C308.014 248.268 308.532 246.46 309.748 245.429C311.943 243.563 316.714 244.071 317.68 241.613C318.243 240.173 316.944 238.698 315.526 237.715C310.098 233.954 302.347 233.334 295.251 233.914C288.154 234.495 281.179 236.094 274.046 236.1C265.159 236.1 256.573 233.645 247.772 232.638C241.677 231.943 235.024 232.033 229.309 234.081C223.115 236.294 221.752 241.28 216.154 243.823Z" fill="#00B0FF"/>
<path opacity="0.1" d="M52.2969 232.239C67.0745 236.506 85.1092 233.908 101.877 234.211C104.172 234.253 106.603 234.377 108.446 235.118C110.288 235.858 111.193 237.053 112.457 238.075C117.155 241.882 126.785 243.106 135.199 242.459C143.613 241.812 151.334 239.675 159.278 238.048C173.006 235.233 188.7 233.95 202.241 237.02C203.484 237.301 204.793 237.624 206.126 237.512C209.093 237.262 209.977 235.22 212.055 234.053C215.804 231.937 223.943 232.52 225.59 229.744C226.555 228.118 224.335 226.448 221.917 225.339C212.664 221.09 199.424 220.389 187.31 221.045C175.195 221.701 163.289 223.506 151.12 223.515C135.95 223.515 121.293 220.743 106.271 219.603C95.8667 218.816 84.512 218.913 74.7558 221.235C64.1793 223.742 61.848 229.375 52.2969 232.239Z" fill="#00B0FF"/>
<path opacity="0.1" d="M12.7422 242.695C16.9644 245.241 22.0913 243.693 26.8744 243.871C27.5288 243.896 28.2225 243.971 28.7472 244.41C29.272 244.848 29.5314 245.565 29.8902 246.176C31.2293 248.446 33.9737 249.178 36.3713 248.791C38.7689 248.404 40.9704 247.131 43.2353 246.157C47.1559 244.479 51.6224 243.714 55.4796 245.553C55.8102 245.765 56.1974 245.87 56.5895 245.855C57.4339 245.704 57.6872 244.485 58.2783 243.79C59.3459 242.532 61.6681 242.883 62.1356 241.217C62.41 240.246 61.7767 239.251 61.0891 238.589C58.4532 236.052 54.6774 235.635 51.2243 236.025C47.7711 236.415 44.3783 237.473 40.9071 237.473C36.5854 237.473 32.4085 235.819 28.126 235.139C25.1584 234.667 21.9224 234.728 19.1418 236.112C16.129 237.624 15.4655 240.987 12.7422 242.695Z" fill="#00B0FF"/>
<path d="M209.745 10.7862H69.623C67.9376 10.7834 66.2681 11.1135 64.71 11.7577C63.1518 12.4019 61.7355 13.3476 60.5419 14.5407C59.3483 15.7338 58.4008 17.1509 57.7535 18.7112C57.1063 20.2715 56.7719 21.9443 56.7695 23.6342V218.284C56.7767 221.696 58.1348 224.964 60.5451 227.372C62.9554 229.78 66.2207 231.129 69.623 231.123H209.745C211.43 231.126 213.1 230.796 214.658 230.152C216.216 229.508 217.632 228.562 218.826 227.369C220.02 226.176 220.967 224.759 221.614 223.198C222.262 221.638 222.596 219.965 222.598 218.275V23.6342C222.596 21.9443 222.262 20.2715 221.614 18.7112C220.967 17.1509 220.02 15.7338 218.826 14.5407C217.632 13.3476 216.216 12.4019 214.658 11.7577C213.1 11.1135 211.43 10.7834 209.745 10.7862Z" fill="url(#paint0_linear)"/>
<path d="M214.58 13.4258H64.7778C61.4466 13.4258 58.7461 16.1334 58.7461 19.4733V223.107C58.7461 226.447 61.4466 229.155 64.7778 229.155H214.58C217.912 229.155 220.612 226.447 220.612 223.107V19.4733C220.612 16.1334 217.912 13.4258 214.58 13.4258Z" fill="#535461"/>
<path d="M212.386 33.8301H66.9688V208.747H212.386V33.8301Z" fill="#F6F7F9"/>
<path d="M139.02 25.3C140.111 25.3 140.996 24.4133 140.996 23.3194C140.996 22.2256 140.111 21.3389 139.02 21.3389C137.929 21.3389 137.045 22.2256 137.045 23.3194C137.045 24.4133 137.929 25.3 139.02 25.3Z" fill="#F6F7F9"/>
<path d="M139.021 224.538C142.292 224.538 144.944 221.879 144.944 218.599C144.944 215.319 142.292 212.66 139.021 212.66C135.75 212.66 133.098 215.319 133.098 218.599C133.098 221.879 135.75 224.538 139.021 224.538Z" fill="#F6F7F9"/>
<g opacity="0.2">
<path opacity="0.2" d="M212.386 33.8301H66.9688V42.5476H212.386V33.8301Z" fill="#00B0FF"/>
</g>
<path d="M71.5168 40.0503C72.5412 40.0503 73.3716 39.2177 73.3716 38.1907C73.3716 37.1636 72.5412 36.3311 71.5168 36.3311C70.4925 36.3311 69.6621 37.1636 69.6621 38.1907C69.6621 39.2177 70.4925 40.0503 71.5168 40.0503Z" fill="#F6F7F9"/>
<path d="M76.2434 40.0503C77.2678 40.0503 78.0982 39.2177 78.0982 38.1907C78.0982 37.1636 77.2678 36.3311 76.2434 36.3311C75.2191 36.3311 74.3887 37.1636 74.3887 38.1907C74.3887 39.2177 75.2191 40.0503 76.2434 40.0503Z" fill="#F6F7F9"/>
<path d="M80.9661 40.0503C81.9904 40.0503 82.8208 39.2177 82.8208 38.1907C82.8208 37.1636 81.9904 36.3311 80.9661 36.3311C79.9417 36.3311 79.1113 37.1636 79.1113 38.1907C79.1113 39.2177 79.9417 40.0503 80.9661 40.0503Z" fill="#F6F7F9"/>
<path d="M206.727 85.25H71.3125V85.7036H206.727V85.25Z" fill="#DCE0ED"/>
<path d="M206.727 95.7812H71.3125V96.2348H206.727V95.7812Z" fill="#DCE0ED"/>
<path d="M206.727 106.316H71.3125V106.77H206.727V106.316Z" fill="#DCE0ED"/>
<path d="M206.727 116.848H71.3125V117.301H206.727V116.848Z" fill="#DCE0ED"/>
<path d="M206.727 127.38H71.3125V127.833H206.727V127.38Z" fill="#DCE0ED"/>
<g opacity="0.2">
<path opacity="0.2" d="M206.726 127.833H71.1465V107.12L83.5808 113.265L96.4494 115.015L107.741 111.602L121.363 101.009L128.215 97.042L133.224 96.0744L138.017 96.3314L145.897 100.235L156.612 107.078L165.02 108.16L171.685 105.856L185.818 94.2541L193.032 91.6748L200.58 92.845L206.726 96.404V127.833Z" fill="#00B0FF"/>
</g>
<path d="M94.7796 115.01C82.5685 115.01 71.2863 107.523 71.1445 107.426L71.4823 106.924C71.6572 107.042 89.0224 118.56 103.779 112.791C109.159 110.674 112.989 107.414 116.696 104.248C120.565 100.943 124.217 97.8228 129.199 96.4682C134.911 94.917 141.154 96.32 145.898 100.23C149.954 103.571 158.031 108.935 166.563 107.333C170.911 106.513 174.576 103.329 178.457 99.9576C185.897 93.4928 193.594 86.8072 206.905 96.3986L206.553 96.8885C193.627 87.5752 186.117 94.1036 178.852 100.414C174.907 103.84 171.183 107.067 166.674 107.925C157.898 109.576 149.653 104.103 145.515 100.695C140.922 96.9127 134.884 95.555 129.356 97.0517C124.507 98.3701 120.912 101.448 117.085 104.708C113.342 107.907 109.473 111.212 103.999 113.353C101.056 114.477 97.929 115.039 94.7796 115.01V115.01Z" fill="#00B0FF"/>
<path d="M136.472 99.4097C138.326 99.4097 139.828 97.9029 139.828 96.0442C139.828 94.1855 138.326 92.6787 136.472 92.6787C134.618 92.6787 133.115 94.1855 133.115 96.0442C133.115 97.9029 134.618 99.4097 136.472 99.4097Z" fill="#00B0FF"/>
<g opacity="0.2">
<path opacity="0.2" d="M180.257 51.5098H137.914C137.732 51.5098 137.557 51.5824 137.428 51.7117C137.299 51.841 137.227 52.0163 137.227 52.1992V80.91C137.227 81.0481 137.268 81.1829 137.346 81.297C137.423 81.4111 137.533 81.4993 137.661 81.5501C137.789 81.6009 137.929 81.6121 138.064 81.582C138.198 81.552 138.32 81.4822 138.415 81.3817L145.752 73.535C145.816 73.4662 145.894 73.4114 145.98 73.374C146.066 73.3365 146.159 73.3172 146.253 73.3173H180.257C180.439 73.3173 180.614 73.2447 180.743 73.1154C180.872 72.9861 180.944 72.8107 180.944 72.6279V52.1931C180.943 52.0113 180.869 51.8375 180.741 51.7095C180.612 51.5816 180.438 51.5098 180.257 51.5098V51.5098Z" fill="#00B0FF"/>
</g>
<path d="M171.139 56.8262H147.027V59.85H171.139V56.8262Z" fill="#F6F7F9"/>
<path d="M153.647 63.5264H147.027V66.5501H153.647V63.5264Z" fill="#F6F7F9"/>
<g opacity="0.2">
<path opacity="0.2" d="M89.3678 149.472H82.748V152.495H89.3678V149.472Z" fill="#00B0FF"/>
</g>
<g opacity="0.2">
<path opacity="0.2" d="M89.3678 155.316H82.748V158.34H89.3678V155.316Z" fill="#00B0FF"/>
</g>
<g opacity="0.2">
<path opacity="0.2" d="M89.3678 161.162H82.748V164.186H89.3678V161.162Z" fill="#00B0FF"/>
</g>
<g opacity="0.2">
<path opacity="0.2" d="M89.3678 167.01H82.748V170.034H89.3678V167.01Z" fill="#00B0FF"/>
</g>
<g opacity="0.2">
<path opacity="0.2" d="M89.3678 172.854H82.748V175.878H89.3678V172.854Z" fill="#00B0FF"/>
</g>
<g opacity="0.2">
<path opacity="0.2" d="M89.3678 178.699H82.748V181.723H89.3678V178.699Z" fill="#00B0FF"/>
</g>
<g opacity="0.2">
<path opacity="0.2" d="M89.3678 184.548H82.748V187.572H89.3678V184.548Z" fill="#00B0FF"/>
</g>
<g opacity="0.2">
<path opacity="0.2" d="M89.3678 190.393H82.748V193.416H89.3678V190.393Z" fill="#00B0FF"/>
</g>
<g opacity="0.2">
<path opacity="0.2" d="M101.833 193.416H95.2129V196.44H101.833V193.416Z" fill="#00B0FF"/>
</g>
<g opacity="0.2">
<path opacity="0.2" d="M113.495 193.416H106.875V196.44H113.495V193.416Z" fill="#00B0FF"/>
</g>
<g opacity="0.2">
<path opacity="0.2" d="M125.157 193.416H118.537V196.44H125.157V193.416Z" fill="#00B0FF"/>
</g>
<g opacity="0.2">
<path opacity="0.2" d="M136.817 193.416H130.197V196.44H136.817V193.416Z" fill="#00B0FF"/>
</g>
<g opacity="0.2">
<path opacity="0.2" d="M148.479 193.416H141.859V196.44H148.479V193.416Z" fill="#00B0FF"/>
</g>
<g opacity="0.2">
<path opacity="0.2" d="M160.141 193.416H153.521V196.44H160.141V193.416Z" fill="#00B0FF"/>
</g>
<g opacity="0.2">
<path opacity="0.2" d="M171.799 193.416H165.18V196.44H171.799V193.416Z" fill="#00B0FF"/>
</g>
<g opacity="0.2">
<path opacity="0.2" d="M183.462 193.416H176.842V196.44H183.462V193.416Z" fill="#00B0FF"/>
</g>
<g opacity="0.2">
<path opacity="0.2" d="M195.126 193.416H188.506V196.44H195.126V193.416Z" fill="#00B0FF"/>
</g>
<path d="M171.14 63.5264H161.088V66.5501H171.14V63.5264Z" fill="#F6F7F9"/>
<path d="M101.833 171.442H95.2129V190.392H101.833V171.442Z" fill="#00B0FF"/>
<path d="M113.495 162.674H106.875V190.393H113.495V162.674Z" fill="#00B0FF"/>
<path d="M125.157 155.316H118.537V190.392H125.157V155.316Z" fill="#00B0FF"/>
<path d="M136.817 159.13H130.197V190.39H136.817V159.13Z" fill="#00B0FF"/>
<path d="M148.479 152.495H141.859V190.392H148.479V152.495Z" fill="#00B0FF"/>
<g opacity="0.2">
<path opacity="0.2" d="M160.141 167.01H153.521V190.393H160.141V167.01Z" fill="#00B0FF"/>
</g>
<g opacity="0.2">
<path opacity="0.2" d="M171.799 167.01H165.18V190.393H171.799V167.01Z" fill="#00B0FF"/>
</g>
<g opacity="0.2">
<path opacity="0.2" d="M183.462 167.01H176.842V190.393H183.462V167.01Z" fill="#00B0FF"/>
</g>
<g opacity="0.2">
<path opacity="0.2" d="M195.126 167.01H188.506V190.393H195.126V167.01Z" fill="#00B0FF"/>
</g>
<path d="M298.411 82.3979C291.243 78.2644 288.534 77.2393 288.519 77.2333L288.375 77.1275C287.593 76.5254 286.971 75.7391 286.565 74.8385C286.565 74.6721 286.565 74.5089 286.565 74.3456V74.394C286.68 72.2047 288.233 70.2121 289.708 68.4734L293.474 64.0284C293.904 63.5896 294.235 63.0638 294.445 62.4863C294.523 62.1771 294.558 61.8586 294.548 61.5398C294.548 61.4098 294.548 61.2798 294.548 61.1528C294.53 60.0491 294.497 58.9424 294.457 57.8266C294.421 56.8621 294.174 55.6465 293.212 55.4469C292.711 55.3441 292.051 55.5255 291.785 55.0931C291.696 54.9165 291.674 54.7136 291.722 54.5216C291.721 54.5367 291.721 54.5519 291.722 54.567V54.5126C291.909 53.7679 292.029 53.0079 292.081 52.2417C292.1 51.8523 292.047 51.4627 291.924 51.0927C291.366 49.4901 289.448 48.8339 287.75 48.5315C286.052 48.2291 284.152 47.9691 283.088 46.6386C282.759 46.2274 282.536 45.7315 282.162 45.3596C281.671 44.9233 281.072 44.6268 280.428 44.5008C278.322 43.979 276.103 44.1726 274.119 45.0512C273.298 45.417 272.475 45.9129 271.576 45.8585C270.678 45.8041 269.842 45.154 268.919 44.9967C267.43 44.7427 266.003 45.8404 265.27 47.1376C264.835 47.9091 264.602 48.779 264.595 49.6654C264.595 49.7138 264.595 49.7652 264.595 49.8136C264.573 50.7665 264.92 51.691 265.563 52.3929C266.205 53.0612 267.164 53.5208 267.43 54.4007C267.538 54.7575 267.511 55.1445 267.607 55.5074C267.607 55.5528 267.635 55.5981 267.65 55.6404L267.601 55.7039C266.064 57.68 265.231 60.116 265.237 62.6224C265.253 65.0538 266.039 67.4171 267.483 69.3707C268.927 71.3243 270.953 72.7669 273.268 73.4898C273.268 73.6017 273.268 73.7166 273.268 73.8285C273.268 75.2013 272.879 76.6013 271.709 77.6324L261.558 81.7266C261.558 81.7266 255.439 80.9979 253.231 89.9664C252.876 91.4554 252.748 92.9898 252.851 94.5172C252.932 95.8689 252.745 98.2516 251.177 101.333C248.665 106.262 249.238 117.577 254.371 118.698C259.217 119.757 261.114 119.303 261.307 119.264V119.46C261.229 121.577 260.46 139.898 257.664 142.115C256.892 142.719 257.037 143.143 257.664 143.421C257.664 143.421 257.664 143.539 257.646 143.75C257.562 145.09 257.13 150.191 255.261 153.094C253.092 156.453 253.318 175.839 253.318 175.839L251.862 187.278C251.862 187.278 252.767 194.335 251.862 195.569C251.048 196.667 249.962 222.783 249.751 228.441H249.654C249.207 228.468 248.774 228.604 248.392 228.837C248.01 229.071 247.69 229.394 247.462 229.78C246.255 231.734 242.063 235.341 242.063 235.341C241.159 236.638 237.784 237.878 236.001 238.465C235.763 238.542 235.532 238.643 235.314 238.767C234.648 239.131 234.113 239.696 233.785 240.382C233.669 240.584 233.594 240.807 233.566 241.039C233.537 241.271 233.555 241.506 233.619 241.73C234.077 242.849 243.547 243.632 245.942 242.513C247.827 241.63 255.291 240.472 258.388 240.019C258.95 239.947 259.473 239.69 259.874 239.289C260.276 238.887 260.532 238.363 260.605 237.799C260.632 237.603 260.619 237.403 260.568 237.212C260.516 237.021 260.426 236.842 260.303 236.687C259.7 235.949 259.398 233.938 259.269 232.626C259.521 232.524 259.755 232.384 259.965 232.211C259.711 228.141 260.293 224.061 261.675 220.225C263.958 214.177 264.643 202.968 264.088 195.687C264.088 195.687 271.049 165.661 276.525 162.858C276.61 162.964 279.267 166.387 279.604 176.973C279.948 187.728 283.827 194.786 283.827 194.786C283.827 194.786 282.114 213.05 283.827 219.883L281.586 230.666C281.423 230.524 281.317 230.415 281.317 230.415C281.317 230.415 281.384 230.718 281.477 231.195L281.429 231.422L281.526 231.446C281.779 232.795 282.156 235.144 282.002 236.523C281.912 237.306 281.7 238.383 281.544 239.438C281.308 241.098 281.242 242.707 282.114 243.067C283.54 243.641 291.927 244.427 293.354 242.58C293.674 242.203 293.882 241.744 293.956 241.254C294.029 240.765 293.965 240.265 293.77 239.81C293.666 239.556 293.526 239.319 293.354 239.106C293.354 239.106 291.128 235.456 291.755 232.883C291.815 232.631 291.822 232.37 291.776 232.116C291.731 231.861 291.633 231.619 291.49 231.404C291.586 230.14 292.093 224.295 293.411 219.33C294.837 213.939 297.85 202.119 295.634 194.344C295.549 194.042 295.453 193.74 295.35 193.437C294.071 189.194 293.645 184.739 294.096 180.329C293.273 176.564 293.273 172.665 294.096 168.899C295.465 162.625 296.421 156.462 296.421 156.462C296.421 156.462 297.178 148.174 296.517 143.091L296.472 142.765L296.834 142.683C296.834 142.683 294.895 134.056 294.21 128.568C294.047 127.271 293.836 125.629 293.607 123.875C294.239 123.774 294.862 123.619 295.468 123.413C301.608 121.275 303.538 102.007 303.538 102.007V95.8991C303.538 95.8991 305.601 86.5435 298.411 82.3979ZM252.51 231.189C252.32 231.093 252.209 231.029 252.209 231.029L252.51 231.189Z" fill="url(#paint1_linear)"/>
<path d="M294.693 193.601C297.365 201.305 294.247 213.809 292.799 219.391C291.352 224.973 290.905 231.676 290.905 231.676C285.226 232.568 281.107 231.45 281.107 231.45L283.444 219.959C281.773 213.15 283.444 194.949 283.444 194.949C283.444 194.949 279.659 187.916 279.324 177.197C278.996 166.644 276.402 163.236 276.309 163.13C270.964 165.921 264.17 195.848 264.17 195.848C264.728 203.105 264.058 214.268 261.833 220.298C260.483 224.128 259.914 228.19 260.162 232.245C259.384 232.904 258.301 233.016 257.131 232.828C253.961 232.299 250.158 229.554 250.158 229.554C250.158 229.554 251.365 196.954 252.269 195.724C253.174 194.493 252.269 187.46 252.269 187.46L253.714 176.072C253.714 176.072 253.494 156.753 255.608 153.394C257.435 150.5 257.855 145.417 257.936 144.083C257.936 143.872 257.954 143.754 257.954 143.754L261.175 139.883C261.175 139.883 292.359 137.54 294.696 139.883C295.272 140.461 295.625 141.767 295.836 143.415C296.478 148.48 295.743 156.741 295.743 156.741C295.743 156.741 294.808 162.882 293.472 169.138C292.667 172.891 292.667 176.773 293.472 180.526C293.028 184.922 293.443 189.363 294.693 193.601V193.601Z" fill="#65617D"/>
<path d="M292.744 242.562C291.351 244.403 283.166 243.62 281.772 243.049C280.922 242.695 280.988 241.092 281.217 239.438C281.362 238.386 281.576 237.322 281.664 236.533C281.887 234.522 280.994 230.446 280.994 230.446C280.994 230.446 282.834 232.399 283.277 230.446C283.473 229.593 284.158 229.155 284.866 228.934C285.821 228.646 286.847 228.711 287.759 229.115C289.203 229.744 291.619 231.087 291.185 232.901C290.582 235.465 292.744 239.103 292.744 239.103C292.911 239.316 293.048 239.552 293.148 239.804C293.339 240.257 293.402 240.754 293.331 241.24C293.259 241.726 293.056 242.183 292.744 242.562V242.562Z" fill="#A27772"/>
<path opacity="0.1" d="M292.744 242.562C291.351 244.404 283.166 243.62 281.773 243.049C280.922 242.695 280.989 241.092 281.218 239.438C282.095 239.85 283.591 240.194 286.082 239.962C286.665 239.907 287.25 239.889 287.834 239.907C289.606 239.989 291.381 239.953 293.148 239.801C293.34 240.254 293.403 240.752 293.332 241.238C293.261 241.725 293.057 242.183 292.744 242.562V242.562Z" fill="black"/>
<path opacity="0.1" d="M264.178 195.835C264.736 203.092 264.066 214.256 261.84 220.285C260.49 224.115 259.922 228.178 260.17 232.232C259.391 232.891 258.309 233.003 257.139 232.816C257.811 228.099 260.673 207.815 262.522 191.786C264.597 173.531 274.368 160.971 274.368 160.971L276.316 163.121C270.966 165.909 264.178 195.835 264.178 195.835Z" fill="black"/>
<path d="M289.403 78.4858L288.043 85.1835L281.384 96.4047L273.172 92.8881C273.172 92.8881 262.013 81.1648 269.025 79.4897C269.865 79.3098 270.658 78.9554 271.353 78.4495C272.732 77.4093 273.163 75.8944 273.163 74.4127C273.163 71.9665 272.023 69.6079 272.023 69.6079L286.387 65.0723C285.794 66.9648 285.447 68.9264 285.356 70.9082C285.247 74.8391 286.701 76.7622 287.892 77.6845C288.338 78.049 288.852 78.3214 289.403 78.4858V78.4858Z" fill="#FBBEBE"/>
<path opacity="0.1" d="M286.396 65.0869C285.802 66.9795 285.456 68.9411 285.364 70.9228C285.103 71.2351 284.824 71.5319 284.529 71.8118C283.046 73.2329 281.207 74.225 279.208 74.6828C277.208 75.1407 275.122 75.0472 273.171 74.4123C273.171 71.966 272.031 69.6075 272.031 69.6075L286.396 65.0869Z" fill="black"/>
<path d="M288.043 63.2451C288.043 65.4978 287.376 67.6996 286.127 69.5722C284.878 71.4447 283.103 72.9038 281.027 73.7649C278.951 74.626 276.667 74.8503 274.464 74.4096C272.26 73.9689 270.237 72.8829 268.649 71.289C267.062 69.6951 265.981 67.6649 265.545 65.4552C265.108 63.2455 265.335 60.9556 266.196 58.8752C267.058 56.7948 268.516 55.0173 270.385 53.7676C272.254 52.5179 274.451 51.8522 276.698 51.8546C278.19 51.8497 279.669 52.1412 281.049 52.7121C282.428 53.283 283.682 54.1221 284.736 55.181C285.791 56.2399 286.626 57.4976 287.194 58.8816C287.761 60.2657 288.05 61.7487 288.043 63.2451V63.2451Z" fill="#FBBEBE"/>
<path opacity="0.1" d="M289.403 78.4854L288.043 85.1831L281.384 96.4043L273.172 92.8877C273.172 92.8877 262.013 81.1645 269.025 79.4893C269.865 79.3094 270.658 78.9551 271.353 78.4491C270.087 81.9416 275.316 89.2047 275.316 89.2047C275.919 90.1119 277.322 89.5373 277.322 89.5373C280.687 89.0293 286.891 79.3139 287.901 77.6992C288.346 78.0573 288.856 78.3245 289.403 78.4854V78.4854Z" fill="black"/>
<path opacity="0.1" d="M295.832 143.434C293.856 143.884 282.915 146.315 278.765 145.708C274.202 145.036 265.323 144.592 265.323 144.592C265.323 144.592 259.672 144.894 257.932 144.102C257.932 143.89 257.95 143.772 257.95 143.772L261.171 139.902C261.171 139.902 292.354 137.558 294.692 139.902C295.268 140.473 295.621 141.78 295.832 143.434Z" fill="black"/>
<path d="M275.315 89.5376C275.315 89.5376 269.44 81.3733 271.654 78.2014L261.729 82.2805C261.729 82.2805 255.754 81.5548 253.586 90.4931C253.24 91.9784 253.115 93.5068 253.215 95.0288C253.293 96.3774 253.112 98.751 251.58 101.82C249.129 106.734 249.686 118.01 254.699 119.128C259.711 120.247 261.49 119.685 261.49 119.685C261.49 119.685 260.824 140.119 257.929 142.463C255.034 144.806 265.309 144.25 265.309 144.25C265.309 144.25 274.187 144.697 278.753 145.366C283.319 146.034 296.124 143.022 296.124 143.022C296.124 143.022 294.23 134.423 293.564 128.953C292.897 123.483 291.335 111.832 291.335 111.832L302.696 96.4106C302.696 96.4106 304.698 87.0883 297.684 82.9578C290.669 78.8273 288.033 77.8174 288.033 77.8174C288.033 77.8174 280.994 89.3078 277.321 89.8732C277.321 89.8732 275.924 90.4356 275.315 89.5376Z" fill="#7C7CDD"/>
<path opacity="0.1" d="M262.287 92.7754C262.287 92.7754 262.175 96.4614 262.841 97.9158C263.508 99.3703 265.96 107.407 265.96 107.407H260.393C260.393 107.407 263.408 104.169 263.176 102.606C262.944 101.042 262.287 92.7754 262.287 92.7754Z" fill="black"/>
<path d="M278.77 120.58C278.77 120.58 266.471 117.556 265.325 114.995C264.179 112.434 261.016 106.683 261.016 106.683L262.312 104.929L268.296 109.637C268.296 109.637 275.422 115.331 278.764 115.89C282.105 116.449 278.77 120.58 278.77 120.58Z" fill="#FBBEBE"/>
<path opacity="0.05" d="M278.77 120.58C278.77 120.58 266.471 117.556 265.325 114.995C264.179 112.434 261.016 106.683 261.016 106.683L262.312 104.929L268.296 109.637C268.296 109.637 275.422 115.331 278.764 115.89C282.105 116.449 278.77 120.58 278.77 120.58Z" fill="black"/>
<path d="M289.403 106.065V112.754H288.33C283.031 112.755 277.82 114.107 273.187 116.684L271.179 117.803L270.639 118.106L267.186 110.31L270.415 107.407H270.581C271.372 107.483 274.788 107.77 276.236 107.28C277.611 106.812 279.318 105.327 283.369 106.373C285.365 106.884 287.069 109.128 289.005 108.427L289.403 106.065Z" fill="#FBBEBE"/>
<path opacity="0.1" d="M300.149 93.8943L302.378 96.404V102.491C302.378 102.491 300.484 121.695 294.47 123.818C288.457 125.94 277.723 122.587 277.723 122.587C277.723 122.587 274.949 115.218 276.246 114.774C277.542 114.329 287.706 111.635 287.706 111.635C287.706 111.635 287.564 100.368 289.79 97.0179C289.79 97.0179 288.342 86.5253 293.354 86.3016C298.367 86.0778 300.149 93.8943 300.149 93.8943Z" fill="black"/>
<path d="M300.484 93.8943L302.712 96.404V102.491C302.712 102.491 300.825 121.695 294.793 123.818C288.761 125.94 278.043 122.587 278.043 122.587C278.043 122.587 275.271 115.218 276.568 114.774C277.865 114.329 288.028 111.635 288.028 111.635C288.028 111.635 287.884 100.368 290.112 97.0179C290.112 97.0179 288.665 86.5253 293.677 86.3016C298.689 86.0778 300.484 93.8943 300.484 93.8943Z" fill="#7C7CDD"/>
<path opacity="0.1" d="M284.928 68.0836C284.973 67.3488 284.988 66.5717 284.675 65.9095C284.361 65.2473 283.625 64.7181 282.908 64.8875C281.955 65.1112 281.544 66.354 280.609 66.6534C279.822 66.9043 278.963 66.351 278.589 65.6071C278.215 64.8633 278.203 64.0045 278.2 63.1881C278.2 62.2568 278.2 61.3224 278.2 60.3911C278.2 59.3751 278.167 58.2744 277.542 57.4822C276.767 56.4874 274.943 56.055 273.724 56.0943C272.913 56.1038 272.134 56.4189 271.544 56.9772C270.892 57.5306 270.138 57.9418 269.249 57.7937C268.879 57.7375 268.533 57.5777 268.25 57.3326C267.967 57.0875 267.759 56.7673 267.65 56.4088V56.3725C268.597 55.1182 269.793 54.0742 271.162 53.3063C272.532 52.5385 274.045 52.0634 275.606 51.911C277.168 51.7586 278.744 51.9322 280.235 52.421C281.726 52.9097 283.101 53.7029 284.271 54.7506C285.441 55.7983 286.382 57.0777 287.035 58.5082C287.688 59.9387 288.037 61.4892 288.063 63.0621C288.088 64.6349 287.788 66.1959 287.181 67.6467C286.575 69.0975 285.675 70.4066 284.539 71.4914C284.733 70.3637 284.862 69.226 284.928 68.0836Z" fill="black"/>
<path d="M269.241 57.4484C268.872 57.3917 268.525 57.2312 268.242 56.9857C267.96 56.7401 267.752 56.4194 267.643 56.0605C267.549 55.7007 267.574 55.3166 267.468 54.9568C267.209 54.0799 266.262 53.6233 265.659 52.9581C264.404 51.6216 264.485 49.4263 265.375 47.8176C266.093 46.5235 267.486 45.4319 268.937 45.6829C269.842 45.8401 270.617 46.4842 271.53 46.5416C272.444 46.5991 273.21 46.1032 274.012 45.7373C275.943 44.8606 278.113 44.6676 280.168 45.19C280.799 45.3172 281.385 45.6128 281.863 46.0457C282.186 46.4541 282.488 46.879 282.767 47.3187C283.808 48.6462 285.666 48.9062 287.321 49.2056C288.977 49.5049 290.847 50.1611 291.393 51.7576C291.752 52.816 291.393 53.965 291.197 55.0657C291.127 55.2899 291.142 55.5321 291.239 55.746C291.498 56.1754 292.144 55.997 292.632 56.0998C293.573 56.2963 293.814 57.5089 293.839 58.4704C293.879 59.5711 293.909 60.6718 293.929 61.7724C293.985 62.2828 293.919 62.7991 293.737 63.2791C293.555 63.759 293.262 64.1888 292.883 64.5331L289.206 68.963C287.575 70.9284 285.844 73.2174 286.172 75.7514C285.4 76.0991 284.483 75.4278 284.23 74.6175C283.977 73.8071 284.182 72.9362 284.351 72.1047C284.648 70.667 284.843 69.2099 284.933 67.7444C284.978 67.0066 284.993 66.2325 284.679 65.5703C284.366 64.9081 283.63 64.3608 282.912 64.5452C281.959 64.769 281.549 66.0118 280.614 66.3111C279.83 66.5621 278.967 66.0087 278.593 65.2649C278.22 64.521 278.207 63.6623 278.204 62.8459V60.0458C278.204 59.0329 278.171 57.9292 277.547 57.137C276.772 56.1421 274.947 55.7097 273.729 55.749C272.917 55.7591 272.139 56.0742 271.548 56.632C270.885 57.1853 270.131 57.5935 269.241 57.4484Z" fill="#7C5C5C"/>
<path opacity="0.1" d="M271.809 92.4971L275.295 106.86C275.295 106.86 278.045 106.845 271.809 92.4971Z" fill="black"/>
<path opacity="0.1" d="M283.724 90.0967C283.724 90.0967 279.158 97.5957 280.94 105.346L281.791 105.409C281.791 105.409 280.271 101.82 283.724 90.0967Z" fill="black"/>
<path opacity="0.1" d="M286.619 132.526C286.619 132.526 292.226 130.667 292.633 134.982C292.633 134.982 291.574 132.025 286.619 132.526Z" fill="black"/>
<path opacity="0.1" d="M270.415 107.753C270.415 107.753 269.302 115.569 271.32 118.696C271.32 118.696 267.242 120.371 261.518 120.036L260.84 107.753H270.415Z" fill="black"/>
<path opacity="0.1" d="M271.179 117.801L270.639 118.103L267.186 110.308L270.416 107.405H270.581C270.53 107.78 269.631 114.493 271.179 117.801Z" fill="black"/>
<path d="M270.414 107.405C270.414 107.405 269.301 115.219 271.319 118.345C271.319 118.345 267.242 120.021 261.518 119.685L257.621 107.405H270.414Z" fill="#7C7CDD"/>
<path d="M260.782 237.809C260.717 238.366 260.469 238.885 260.078 239.285C259.686 239.686 259.173 239.944 258.619 240.019C255.603 240.473 248.311 241.628 246.471 242.505C244.134 243.62 234.891 242.84 234.444 241.725C234.318 241.273 234.376 240.791 234.604 240.382C234.926 239.7 235.453 239.136 236.112 238.77C236.325 238.648 236.549 238.546 236.781 238.468C238.522 237.884 241.809 236.654 242.699 235.353C242.699 235.353 246.797 231.758 247.964 229.814C248.184 229.432 248.495 229.111 248.868 228.877C249.242 228.644 249.667 228.507 250.105 228.477C251.083 228.432 252.168 228.925 252.612 231.069C252.612 231.069 257.956 234.126 259.4 231.444C259.4 231.444 259.623 235.562 260.51 236.687C260.627 236.847 260.712 237.028 260.758 237.221C260.805 237.413 260.813 237.613 260.782 237.809V237.809Z" fill="#A27772"/>
<path opacity="0.1" d="M260.782 237.808C260.717 238.365 260.469 238.884 260.078 239.285C259.686 239.685 259.173 239.943 258.619 240.019C255.603 240.472 248.311 241.627 246.471 242.504C244.134 243.62 234.891 242.84 234.444 241.724C234.318 241.273 234.376 240.79 234.604 240.381C234.926 239.699 235.453 239.135 236.112 238.77C237.62 239.774 240.964 240.753 248.323 239.601C255.341 238.504 258.815 237.427 260.51 236.692C260.627 236.851 260.71 237.032 260.757 237.223C260.804 237.415 260.812 237.613 260.782 237.808V237.808Z" fill="black"/>
<g opacity="0.1">
<path opacity="0.1" d="M291.172 55.2291V55.1747C291.332 54.3371 291.57 53.4723 291.516 52.6377C291.445 53.3227 291.33 54.0024 291.172 54.6727C291.13 54.8558 291.13 55.046 291.172 55.2291V55.2291Z" fill="black"/>
<path opacity="0.1" d="M284.67 65.6797C284.846 66.0824 284.939 66.5163 284.944 66.9558C284.996 66.3496 284.902 65.7399 284.67 65.1778C284.368 64.5095 283.624 63.9834 282.906 64.1527C281.953 64.3765 281.543 65.6193 280.608 65.9186C279.821 66.1696 278.961 65.6162 278.584 64.8724C278.207 64.1285 278.201 63.2698 278.198 62.4534C278.198 61.519 278.198 60.5877 278.198 59.6533C278.198 58.6404 278.165 57.5367 277.541 56.7445C276.766 55.7496 274.938 55.3172 273.723 55.3565C272.911 55.366 272.133 55.6812 271.542 56.2395C270.888 56.7959 270.137 57.2041 269.247 57.0589C268.877 57.0022 268.531 56.8418 268.248 56.5962C267.965 56.3506 267.757 56.0299 267.649 55.671C267.555 55.3112 267.579 54.9272 267.474 54.5673C267.211 53.6904 266.267 53.2338 265.664 52.5686C265.078 51.9206 264.745 51.0819 264.726 50.207C264.68 50.7232 264.739 51.2435 264.9 51.7359C265.062 52.2283 265.322 52.6825 265.664 53.0706C266.292 53.7358 267.223 54.1954 267.474 55.0723C267.579 55.4291 267.555 55.8131 267.649 56.173C267.757 56.5318 267.965 56.8526 268.248 57.0981C268.531 57.3437 268.877 57.5041 269.247 57.5609C270.152 57.706 270.888 57.2978 271.542 56.7414C272.133 56.1831 272.911 55.8679 273.723 55.8585C274.929 55.8192 276.766 56.2546 277.541 57.2464C278.165 58.0447 278.195 59.1423 278.198 60.1553C278.198 61.0896 278.198 62.021 278.198 62.9553C278.198 63.7838 278.198 64.6456 278.584 65.3743C278.97 66.1031 279.821 66.6715 280.608 66.4206C281.543 66.1182 281.953 64.8784 282.906 64.6547C283.633 64.4884 284.359 65.0115 284.67 65.6797Z" fill="black"/>
<path opacity="0.1" d="M293.824 62.604C293.62 63.1777 293.298 63.7014 292.877 64.1401C291.652 65.6178 290.427 67.0944 289.2 68.57C287.653 70.4357 286.013 72.5946 286.133 74.9743C286.245 72.7912 287.762 70.8045 289.2 69.0719L292.877 64.6451C293.297 64.2047 293.62 63.6802 293.824 63.106C293.915 62.7097 293.947 62.3022 293.92 61.8965C293.917 62.1354 293.885 62.3731 293.824 62.604V62.604Z" fill="black"/>
<path opacity="0.1" d="M284.237 74.2249C284.177 74.0282 284.141 73.8252 284.128 73.6201C284.097 73.9906 284.133 74.3637 284.237 74.7208C284.49 75.5312 285.41 76.1994 286.182 75.8517C286.161 75.6884 286.149 75.5251 286.143 75.3618C285.365 75.6823 284.472 75.0232 284.237 74.2249Z" fill="black"/>
</g>
<path opacity="0.1" d="M247.221 230.82C247.221 230.82 248.385 232.873 252.601 231.065Z" fill="black"/>
<path opacity="0.1" d="M282.879 231.325C282.879 231.325 286.516 235.619 291.1 232.731Z" fill="black"/>
<path opacity="0.1" d="M293.468 180.535C293.468 180.535 290.895 182.147 290.814 183.069C290.733 183.991 292.141 182.398 292.141 182.398L293.468 180.535Z" fill="black"/>
<path opacity="0.1" d="M294.491 192.881C293.598 193.627 292.486 194.062 291.325 194.121C289.404 194.205 289.563 196.718 290.818 195.962C292.073 195.206 294.491 192.881 294.491 192.881Z" fill="black"/>
<path opacity="0.1" d="M294.969 194.493C294.969 194.493 293.736 200.571 292.734 199.398Z" fill="black"/>
<path d="M41.2437 222.766C41.2437 222.766 42.8994 224.937 40.4777 228.208C38.056 231.48 36.0595 234.256 36.8587 236.3C36.8587 236.3 40.5109 230.21 43.4935 230.126C46.4762 230.041 44.5159 226.427 41.2437 222.766Z" fill="#00B0FF"/>
<path opacity="0.1" d="M41.2447 222.766C41.3898 222.975 41.5036 223.204 41.5825 223.446C44.4837 226.863 46.0308 230.053 43.2412 230.135C40.6445 230.207 37.5111 234.867 36.7812 236.043C36.8059 236.133 36.8351 236.222 36.8687 236.309C36.8687 236.309 40.5209 230.219 43.5036 230.135C46.4862 230.05 44.5169 226.427 41.2447 222.766Z" fill="black"/>
<path d="M44.3244 225.532C44.3244 226.297 44.24 226.917 44.1344 226.917C44.0289 226.917 43.9414 226.297 43.9414 225.532C43.9414 224.767 44.05 225.13 44.1555 225.13C44.2611 225.13 44.3244 224.773 44.3244 225.532Z" fill="#FFD037"/>
<path d="M45.3817 226.445C44.7122 226.811 44.1271 227.031 44.0759 226.941C44.0246 226.85 44.5282 226.475 45.1977 226.109C45.8673 225.743 45.6019 226.009 45.6531 226.109C45.7044 226.209 46.0512 226.079 45.3817 226.445Z" fill="#FFD037"/>
<path d="M32.4918 222.766C32.4918 222.766 30.8361 224.937 33.2578 228.208C35.6795 231.48 37.676 234.256 36.8768 236.3C36.8768 236.3 33.2246 230.21 30.2419 230.126C27.2593 230.041 29.2226 226.427 32.4918 222.766Z" fill="#00B0FF"/>
<path opacity="0.1" d="M32.4924 222.766C32.3487 222.975 32.235 223.204 32.1547 223.446C29.2534 226.863 27.7063 230.053 30.496 230.135C33.0956 230.207 36.2261 234.867 36.9559 236.043C36.9326 236.134 36.9034 236.223 36.8684 236.309C36.8684 236.309 33.2163 230.219 30.2336 230.135C27.2509 230.05 29.2233 226.427 32.4924 222.766Z" fill="black"/>
<path d="M29.4141 225.532C29.4141 226.297 29.4985 226.917 29.6041 226.917C29.7096 226.917 29.7971 226.297 29.7971 225.532C29.7971 224.767 29.6885 225.13 29.5829 225.13C29.4774 225.13 29.4141 224.773 29.4141 225.532Z" fill="#FFD037"/>
<path d="M28.3573 226.445C29.0269 226.811 29.6089 227.031 29.6602 226.941C29.7115 226.85 29.2078 226.475 28.5383 226.109C27.8688 225.743 28.1342 226.009 28.0829 226.109C28.0316 226.209 27.6878 226.079 28.3573 226.445Z" fill="#FFD037"/>
<path d="M29.9414 236.025C29.9414 236.025 34.5737 235.883 35.9731 234.885C37.3724 233.887 43.0965 232.699 43.4433 234.298C43.7901 235.898 50.4039 242.248 45.1744 242.29C39.9449 242.333 33.0236 241.474 31.6303 240.621C30.237 239.768 29.9414 236.025 29.9414 236.025Z" fill="#A8A8A8"/>
<path opacity="0.2" d="M45.2649 241.733C40.0354 241.776 33.1141 240.917 31.7208 240.064C30.6592 239.417 30.237 237.092 30.0952 236.019H29.9414C29.9414 236.019 30.243 239.765 31.6273 240.615C33.0115 241.464 39.9419 242.326 45.1714 242.284C46.6793 242.284 47.2041 241.733 47.1739 240.935C46.9658 241.422 46.3898 241.724 45.2649 241.733Z" fill="black"/>
</g>
<defs>
<linearGradient id="paint0_linear" x1="139.678" y1="231.132" x2="139.678" y2="10.7862" gradientUnits="userSpaceOnUse">
<stop stop-color="#808080" stop-opacity="0.25"/>
<stop offset="0.54" stop-color="#808080" stop-opacity="0.12"/>
<stop offset="1" stop-color="#808080" stop-opacity="0.1"/>
</linearGradient>
<linearGradient id="paint1_linear" x1="67007.6" y1="167171" x2="67007.6" y2="35541" gradientUnits="userSpaceOnUse">
<stop stop-color="#808080" stop-opacity="0.25"/>
<stop offset="0.54" stop-color="#808080" stop-opacity="0.12"/>
<stop offset="1" stop-color="#808080" stop-opacity="0.1"/>
</linearGradient>
<clipPath id="clip0">
<rect width="326" height="253" fill="white"/>
</clipPath>
</defs>
</svg>
