<svg width="508" height="615" viewBox="0 0 508 615" fill="none" xmlns="http://www.w3.org/2000/svg">
<g filter="url(#filter0_d)">
<rect x="6" y="168" width="496" height="437" rx="30" fill="white"/>
</g>
<g filter="url(#filter1_d)">
<rect x="6" width="496" height="605" rx="30" fill="#E9ECFF"/>
</g>
<mask id="mask0" mask-type="alpha" maskUnits="userSpaceOnUse" x="6" y="1" width="496" height="604">
<rect x="6" y="1" width="496" height="604" rx="30" fill="#6418C3"/>
</mask>
<g mask="url(#mask0)">
<path d="M55.5 5.61118C55.5 20.8397 43.4023 33.1677 28.5 33.1677C13.5977 33.1677 1.5 20.8397 1.5 5.61118C1.5 -9.61734 13.5977 -21.9453 28.5 -21.9453C43.4023 -21.9453 55.5 -9.61734 55.5 5.61118Z" stroke="#74C8ED"/>
<path d="M48.804 5.61121C48.804 17.067 39.704 26.3366 28.4997 26.3366C17.2953 26.3366 8.19531 17.067 8.19531 5.61121C8.19531 -5.84457 17.2953 -15.1141 28.4997 -15.1141C39.704 -15.1141 48.804 -5.84457 48.804 5.61121Z" stroke="#74C8ED"/>
<path d="M42.109 5.61124C42.109 13.2943 36.0068 19.5054 28.5003 19.5054C20.9938 19.5054 14.8916 13.2943 14.8916 5.61124C14.8916 -2.07181 20.9938 -8.28296 28.5003 -8.28296C36.0068 -8.28296 42.109 -2.07181 42.109 5.61124Z" stroke="#74C8ED"/>
<path d="M509.5 596.556C509.5 644.646 471.292 683.613 424.18 683.613C377.069 683.613 338.86 644.646 338.86 596.556C338.86 548.467 377.069 509.5 424.18 509.5C471.292 509.5 509.5 548.467 509.5 596.556Z" stroke="#74C8ED"/>
<path d="M488.605 596.557C488.605 632.872 459.751 662.295 424.18 662.295C388.609 662.295 359.755 632.872 359.755 596.557C359.755 560.241 388.609 530.818 424.18 530.818C459.751 530.818 488.605 560.241 488.605 596.557Z" stroke="#74C8ED"/>
<path d="M467.709 596.557C467.709 621.099 448.211 640.977 424.18 640.977C400.149 640.977 380.651 621.099 380.651 596.557C380.651 572.014 400.149 552.136 424.18 552.136C448.211 552.136 467.709 572.014 467.709 596.557Z" stroke="#74C8ED"/>
</g>
<path d="M61.444 66.6189L55.9 56.8269H53.524V66.6189H48.484V41.4909H57.916C59.86 41.4909 61.516 41.8389 62.884 42.5349C64.252 43.2069 65.272 44.1309 65.944 45.3069C66.64 46.4589 66.988 47.7549 66.988 49.1949C66.988 50.8509 66.508 52.3509 65.548 53.6949C64.588 55.0149 63.16 55.9269 61.264 56.4309L67.276 66.6189H61.444ZM53.524 53.0469H57.736C59.104 53.0469 60.124 52.7229 60.796 52.0749C61.468 51.4029 61.804 50.4789 61.804 49.3029C61.804 48.1509 61.468 47.2629 60.796 46.6389C60.124 45.9909 59.104 45.6669 57.736 45.6669H53.524V53.0469ZM90.0865 56.2149C90.0865 56.9349 90.0385 57.5829 89.9425 58.1589H75.3625C75.4825 59.5989 75.9865 60.7269 76.8745 61.5429C77.7625 62.3589 78.8545 62.7669 80.1505 62.7669C82.0225 62.7669 83.3545 61.9629 84.1465 60.3549H89.5825C89.0065 62.2749 87.9025 63.8589 86.2705 65.1069C84.6385 66.3309 82.6345 66.9429 80.2585 66.9429C78.3385 66.9429 76.6105 66.5229 75.0745 65.6829C73.5625 64.8189 72.3745 63.6069 71.5105 62.0469C70.6705 60.4869 70.2505 58.6869 70.2505 56.6469C70.2505 54.5829 70.6705 52.7709 71.5105 51.2109C72.3505 49.6509 73.5265 48.4509 75.0385 47.6109C76.5505 46.7709 78.2905 46.3509 80.2585 46.3509C82.1545 46.3509 83.8465 46.7589 85.3345 47.5749C86.8465 48.3909 88.0105 49.5549 88.8265 51.0669C89.6665 52.5549 90.0865 54.2709 90.0865 56.2149ZM84.8665 54.7749C84.8425 53.4789 84.3745 52.4469 83.4625 51.6789C82.5505 50.8869 81.4345 50.4909 80.1145 50.4909C78.8665 50.4909 77.8105 50.8749 76.9465 51.6429C76.1065 52.3869 75.5905 53.4309 75.3985 54.7749H84.8665ZM98.8053 49.5549C99.4533 48.6429 100.341 47.8869 101.469 47.2869C102.621 46.6629 103.929 46.3509 105.393 46.3509C107.097 46.3509 108.633 46.7709 110.001 47.6109C111.393 48.4509 112.485 49.6509 113.277 51.2109C114.093 52.7469 114.501 54.5349 114.501 56.5749C114.501 58.6149 114.093 60.4269 113.277 62.0109C112.485 63.5709 111.393 64.7829 110.001 65.6469C108.633 66.5109 107.097 66.9429 105.393 66.9429C103.929 66.9429 102.633 66.6429 101.505 66.0429C100.401 65.4429 99.5013 64.6869 98.8053 63.7749V76.1229H93.7653V46.6749H98.8053V49.5549ZM109.353 56.5749C109.353 55.3749 109.101 54.3429 108.597 53.4789C108.117 52.5909 107.469 51.9189 106.653 51.4629C105.861 51.0069 104.997 50.7789 104.061 50.7789C103.149 50.7789 102.285 51.0189 101.469 51.4989C100.677 51.9549 100.029 52.6269 99.5253 53.5149C99.0453 54.4029 98.8053 55.4469 98.8053 56.6469C98.8053 57.8469 99.0453 58.8909 99.5253 59.7789C100.029 60.6669 100.677 61.3509 101.469 61.8309C102.285 62.2869 103.149 62.5149 104.061 62.5149C104.997 62.5149 105.861 62.2749 106.653 61.7949C107.469 61.3149 108.117 60.6309 108.597 59.7429C109.101 58.8549 109.353 57.7989 109.353 56.5749ZM127.02 66.9429C125.1 66.9429 123.372 66.5229 121.836 65.6829C120.3 64.8189 119.088 63.6069 118.2 62.0469C117.336 60.4869 116.904 58.6869 116.904 56.6469C116.904 54.6069 117.348 52.8069 118.236 51.2469C119.148 49.6869 120.384 48.4869 121.944 47.6469C123.504 46.7829 125.244 46.3509 127.164 46.3509C129.084 46.3509 130.824 46.7829 132.384 47.6469C133.944 48.4869 135.168 49.6869 136.056 51.2469C136.968 52.8069 137.424 54.6069 137.424 56.6469C137.424 58.6869 136.956 60.4869 136.02 62.0469C135.108 63.6069 133.86 64.8189 132.276 65.6829C130.716 66.5229 128.964 66.9429 127.02 66.9429ZM127.02 62.5509C127.932 62.5509 128.784 62.3349 129.576 61.9029C130.392 61.4469 131.04 60.7749 131.52 59.8869C132 58.9989 132.24 57.9189 132.24 56.6469C132.24 54.7509 131.736 53.2989 130.728 52.2909C129.744 51.2589 128.532 50.7429 127.092 50.7429C125.652 50.7429 124.44 51.2589 123.456 52.2909C122.496 53.2989 122.016 54.7509 122.016 56.6469C122.016 58.5429 122.484 60.0069 123.42 61.0389C124.38 62.0469 125.58 62.5509 127.02 62.5509ZM146.161 49.7709C146.809 48.7149 147.649 47.8869 148.681 47.2869C149.737 46.6869 150.937 46.3869 152.281 46.3869V51.6789H150.949C149.365 51.6789 148.165 52.0509 147.349 52.7949C146.557 53.5389 146.161 54.8349 146.161 56.6829V66.6189H141.121V46.6749H146.161V49.7709ZM161.543 50.8149V60.4629C161.543 61.1349 161.699 61.6269 162.011 61.9389C162.347 62.2269 162.899 62.3709 163.667 62.3709H166.007V66.6189H162.839C158.591 66.6189 156.467 64.5549 156.467 60.4269V50.8149H154.091V46.6749H156.467V41.7429H161.543V46.6749H166.007V50.8149H161.543ZM177.264 66.9429C175.632 66.9429 174.168 66.6549 172.872 66.0789C171.576 65.4789 170.544 64.6749 169.776 63.6669C169.032 62.6589 168.624 61.5429 168.552 60.3189H173.628C173.724 61.0869 174.096 61.7229 174.744 62.2269C175.416 62.7309 176.244 62.9829 177.228 62.9829C178.188 62.9829 178.932 62.7909 179.46 62.4069C180.012 62.0229 180.288 61.5309 180.288 60.9309C180.288 60.2829 179.952 59.8029 179.28 59.4909C178.632 59.1549 177.588 58.7949 176.148 58.4109C174.66 58.0509 173.436 57.6789 172.476 57.2949C171.54 56.9109 170.724 56.3229 170.028 55.5309C169.356 54.7389 169.02 53.6709 169.02 52.3269C169.02 51.2229 169.332 50.2149 169.956 49.3029C170.604 48.3909 171.516 47.6709 172.692 47.1429C173.892 46.6149 175.296 46.3509 176.904 46.3509C179.28 46.3509 181.176 46.9509 182.592 48.1509C184.008 49.3269 184.788 50.9229 184.932 52.9389H180.108C180.036 52.1469 179.7 51.5229 179.1 51.0669C178.524 50.5869 177.744 50.3469 176.76 50.3469C175.848 50.3469 175.14 50.5149 174.636 50.8509C174.156 51.1869 173.916 51.6549 173.916 52.2549C173.916 52.9269 174.252 53.4429 174.924 53.8029C175.596 54.1389 176.64 54.4869 178.056 54.8469C179.496 55.2069 180.684 55.5789 181.62 55.9629C182.556 56.3469 183.36 56.9469 184.032 57.7629C184.728 58.5549 185.088 59.6109 185.112 60.9309C185.112 62.0829 184.788 63.1149 184.14 64.0269C183.516 64.9389 182.604 65.6589 181.404 66.1869C180.228 66.6909 178.848 66.9429 177.264 66.9429Z" fill="#1EAAE7"/>
<path d="M50.0923 102.112C49.7616 102.112 49.4843 102 49.2603 101.776C49.0363 101.552 48.9243 101.275 48.9243 100.944C48.9243 100.613 49.0363 100.336 49.2603 100.112C49.4843 99.888 49.7616 99.776 50.0923 99.776C50.4123 99.776 50.6843 99.888 50.9083 100.112C51.1323 100.336 51.2443 100.613 51.2443 100.944C51.2443 101.275 51.1323 101.552 50.9083 101.776C50.6843 102 50.4123 102.112 50.0923 102.112Z" fill="white"/>
<g clip-path="url(#clip0)">
<path opacity="0.1" d="M141.697 110.239C128.545 109.754 114.806 109.413 102.914 115.058C91.022 120.703 81.8277 134.38 85.8156 146.955C87.1172 151.054 89.6523 154.627 91.7901 158.359C102.479 177.022 102.975 201.144 93.0652 220.236C85.4373 234.932 72.5085 246.116 63.2006 259.809C53.8928 273.501 48.6032 292.478 57.7597 306.273C64.0292 315.718 75.6641 320.314 86.9356 321.428C98.2072 322.542 109.543 320.788 120.864 320.337C142.893 319.489 164.828 323.643 185.027 332.487C212.834 344.694 236.788 365.578 266.066 373.636C269.581 374.602 273.255 375.383 276.85 374.727C283.225 373.564 287.86 368.286 292.851 364.119C308.784 350.908 330.843 348.441 351.524 347.827C372.206 347.214 393.746 347.687 412.441 338.795C428.764 331.032 441.33 316.59 449.143 300.276C456.956 283.961 460.35 265.833 461.629 247.779C462.386 237.035 462.359 225.941 458.519 215.882C454.202 204.573 445.446 195.567 436.263 187.695C426.668 179.466 416.21 172.009 404.363 167.569C390.212 162.265 374.851 161.507 359.784 160.249C328.888 157.666 298.233 152.736 268.083 145.504C239.467 138.654 208.047 131.171 181.985 117.217C168.905 110.212 156.442 110.769 141.697 110.239Z" fill="#00B0FF"/>
<g opacity="0.1">
<path opacity="0.1" d="M323.109 348.563C323.109 348.563 324.448 329.767 335.012 319.518C339.472 315.249 342.428 309.645 343.435 303.549C343.89 300.651 344.08 297.718 344.002 294.786" fill="#00B0FF"/>
<path opacity="0.1" d="M350.62 288.288C349.844 290.365 343.847 294.979 343.847 294.979C343.847 294.979 342.334 287.557 343.117 285.481C343.489 284.485 344.241 283.677 345.207 283.236C346.174 282.795 347.275 282.756 348.27 283.128C349.265 283.5 350.072 284.253 350.513 285.221C350.953 286.189 350.992 287.292 350.62 288.288Z" fill="#00B0FF"/>
<path opacity="0.1" d="M352.535 302.106C350.756 303.424 343.219 304.034 343.219 304.034C343.219 304.034 345.981 296.983 347.76 295.661C348.614 295.061 349.669 294.819 350.7 294.985C351.73 295.152 352.655 295.715 353.277 296.555C353.9 297.394 354.17 298.443 354.031 299.479C353.893 300.515 353.356 301.456 352.535 302.102V302.106Z" fill="#00B0FF"/>
<path opacity="0.1" d="M344.933 321.644C342.731 321.886 335.917 318.613 335.917 318.613C335.917 318.613 341.857 313.923 344.055 313.688C345.077 313.632 346.082 313.969 346.863 314.632C347.643 315.294 348.141 316.231 348.253 317.25C348.366 318.269 348.084 319.292 347.467 320.109C346.849 320.926 345.943 321.475 344.933 321.644Z" fill="#00B0FF"/>
<path opacity="0.1" d="M335.856 335.132C333.73 335.742 326.458 333.658 326.458 333.658C326.458 333.658 331.52 328.032 333.646 327.422C334.157 327.259 334.695 327.201 335.229 327.25C335.762 327.299 336.28 327.455 336.753 327.708C337.225 327.961 337.642 328.307 337.978 328.724C338.315 329.142 338.565 329.623 338.713 330.138C338.86 330.654 338.903 331.194 338.839 331.727C338.775 332.259 338.604 332.774 338.338 333.239C338.072 333.705 337.715 334.112 337.289 334.437C336.862 334.762 336.375 334.998 335.856 335.132Z" fill="#00B0FF"/>
<path opacity="0.1" d="M335.19 301.488C336.136 303.489 342.5 307.577 342.5 307.577C342.5 307.577 343.378 300.056 342.428 298.052C341.955 297.122 341.137 296.413 340.15 296.076C339.163 295.74 338.084 295.801 337.142 296.249C336.2 296.696 335.469 297.494 335.104 298.472C334.74 299.45 334.771 300.532 335.19 301.488Z" fill="#00B0FF"/>
<path opacity="0.1" d="M324.774 317.397C326.287 319.022 333.571 321.019 333.571 321.019C333.571 321.019 332.16 313.578 330.657 311.949C329.935 311.172 328.934 310.713 327.875 310.674C326.815 310.634 325.783 311.017 325.005 311.737C324.226 312.458 323.765 313.459 323.722 314.519C323.678 315.58 324.057 316.615 324.774 317.397Z" fill="#00B0FF"/>
<path opacity="0.1" d="M316.771 334.249C317.974 336.105 324.831 339.307 324.831 339.307C324.831 339.307 324.694 331.73 323.487 329.877C322.894 329.018 321.99 328.424 320.967 328.222C319.943 328.019 318.881 328.225 318.007 328.794C317.132 329.363 316.514 330.252 316.283 331.27C316.053 332.289 316.228 333.358 316.771 334.249Z" fill="#00B0FF"/>
<path opacity="0.1" d="M350.62 288.288C349.844 290.365 343.847 294.979 343.847 294.979C343.847 294.979 342.334 287.557 343.117 285.481C343.489 284.485 344.241 283.677 345.207 283.236C346.174 282.795 347.275 282.756 348.27 283.128C349.265 283.5 350.072 284.253 350.513 285.221C350.953 286.189 350.992 287.292 350.62 288.288Z" fill="#00B0FF"/>
<path opacity="0.1" d="M352.535 302.106C350.756 303.424 343.219 304.034 343.219 304.034C343.219 304.034 345.981 296.983 347.76 295.661C348.614 295.061 349.669 294.819 350.7 294.985C351.73 295.152 352.655 295.715 353.277 296.555C353.9 297.394 354.17 298.443 354.031 299.479C353.893 300.515 353.356 301.456 352.535 302.102V302.106Z" fill="#00B0FF"/>
<path opacity="0.1" d="M344.933 321.644C342.731 321.886 335.917 318.613 335.917 318.613C335.917 318.613 341.857 313.923 344.055 313.688C345.077 313.632 346.082 313.969 346.863 314.632C347.643 315.294 348.141 316.231 348.253 317.25C348.366 318.269 348.084 319.292 347.467 320.109C346.849 320.926 345.943 321.475 344.933 321.644Z" fill="#00B0FF"/>
<path opacity="0.1" d="M335.856 335.132C333.73 335.742 326.458 333.658 326.458 333.658C326.458 333.658 331.52 328.032 333.646 327.422C334.157 327.259 334.695 327.201 335.229 327.25C335.762 327.299 336.28 327.455 336.753 327.708C337.225 327.961 337.642 328.307 337.978 328.724C338.315 329.142 338.565 329.623 338.713 330.138C338.86 330.654 338.903 331.194 338.839 331.727C338.775 332.259 338.604 332.774 338.338 333.239C338.072 333.705 337.715 334.112 337.289 334.437C336.862 334.762 336.375 334.998 335.856 335.132Z" fill="#00B0FF"/>
<path opacity="0.1" d="M335.19 301.488C336.136 303.489 342.5 307.577 342.5 307.577C342.5 307.577 343.378 300.056 342.428 298.052C341.955 297.122 341.137 296.413 340.15 296.076C339.163 295.74 338.084 295.801 337.142 296.249C336.2 296.696 335.469 297.494 335.104 298.472C334.74 299.45 334.771 300.532 335.19 301.488Z" fill="#00B0FF"/>
<path opacity="0.1" d="M324.774 317.397C326.287 319.022 333.571 321.019 333.571 321.019C333.571 321.019 332.16 313.578 330.657 311.949C329.935 311.172 328.934 310.713 327.875 310.674C326.815 310.634 325.783 311.017 325.005 311.737C324.226 312.458 323.765 313.459 323.722 314.519C323.678 315.58 324.057 316.615 324.774 317.397Z" fill="#00B0FF"/>
<path opacity="0.1" d="M316.771 334.249C317.974 336.105 324.831 339.307 324.831 339.307C324.831 339.307 324.694 331.73 323.487 329.877C322.894 329.018 321.99 328.424 320.967 328.222C319.943 328.019 318.881 328.225 318.007 328.794C317.132 329.363 316.514 330.252 316.283 331.27C316.053 332.289 316.228 333.358 316.771 334.249Z" fill="#00B0FF"/>
</g>
<g opacity="0.1">
<path opacity="0.1" d="M326.817 277.419C326.817 277.419 328.156 258.623 338.72 248.374C343.178 244.103 346.134 238.5 347.143 232.405C347.601 229.508 347.791 226.574 347.71 223.642" fill="#00B0FF"/>
<path opacity="0.1" d="M354.328 217.144C353.571 219.217 347.559 223.831 347.559 223.831C347.559 223.831 346.046 216.409 346.825 214.337C347.197 213.341 347.949 212.533 348.915 212.092C349.882 211.65 350.984 211.612 351.978 211.984C352.973 212.356 353.78 213.109 354.221 214.077C354.661 215.045 354.7 216.148 354.328 217.144Z" fill="#00B0FF"/>
<path opacity="0.1" d="M356.254 230.958C354.479 232.28 346.938 232.886 346.938 232.886C346.938 232.886 349.701 225.839 351.479 224.517C351.9 224.186 352.383 223.943 352.899 223.802C353.416 223.661 353.955 223.625 354.486 223.696C355.016 223.767 355.527 223.944 355.988 224.217C356.45 224.489 356.852 224.851 357.171 225.281C357.49 225.712 357.719 226.202 357.846 226.722C357.973 227.243 357.994 227.784 357.909 228.313C357.823 228.842 357.633 229.349 357.349 229.803C357.064 230.257 356.692 230.65 356.254 230.958Z" fill="#00B0FF"/>
<path opacity="0.1" d="M348.641 250.5C346.443 250.742 339.628 247.469 339.628 247.469C339.628 247.469 345.569 242.782 347.767 242.544C348.295 242.476 348.832 242.514 349.345 242.656C349.858 242.798 350.338 243.041 350.756 243.37C351.175 243.7 351.523 244.11 351.781 244.576C352.04 245.042 352.203 245.555 352.261 246.085C352.319 246.615 352.271 247.152 352.12 247.663C351.969 248.174 351.717 248.65 351.38 249.063C351.043 249.475 350.627 249.817 350.157 250.067C349.687 250.317 349.171 250.47 348.641 250.519V250.5Z" fill="#00B0FF"/>
<path opacity="0.1" d="M339.564 263.988C337.438 264.598 330.166 262.514 330.166 262.514C330.166 262.514 335.232 256.888 337.354 256.274C338.371 255.996 339.456 256.131 340.374 256.649C341.292 257.167 341.97 258.026 342.26 259.04C342.55 260.055 342.43 261.143 341.924 262.069C341.419 262.995 340.57 263.684 339.56 263.988H339.564Z" fill="#00B0FF"/>
<path opacity="0.1" d="M338.898 230.34C339.844 232.345 346.212 236.433 346.212 236.433C346.212 236.433 347.086 228.908 346.14 226.908C345.922 226.421 345.608 225.983 345.219 225.619C344.829 225.256 344.371 224.973 343.871 224.789C343.371 224.604 342.84 224.522 342.307 224.545C341.775 224.569 341.253 224.699 340.772 224.927C340.29 225.155 339.859 225.477 339.503 225.875C339.147 226.272 338.874 226.736 338.7 227.24C338.525 227.744 338.453 228.278 338.487 228.81C338.521 229.342 338.661 229.863 338.898 230.34Z" fill="#00B0FF"/>
<path opacity="0.1" d="M328.481 246.249C329.995 247.878 337.282 249.871 337.282 249.871C337.282 249.871 335.867 242.43 334.365 240.805C333.636 240.055 332.644 239.619 331.599 239.591C330.555 239.563 329.541 239.945 328.773 240.655C328.006 241.366 327.546 242.348 327.491 243.393C327.437 244.438 327.792 245.463 328.481 246.249Z" fill="#00B0FF"/>
<path opacity="0.1" d="M320.479 263.105C321.686 264.961 328.538 268.163 328.538 268.163C328.538 268.163 328.402 260.585 327.195 258.733C326.916 258.275 326.548 257.878 326.113 257.565C325.678 257.252 325.184 257.03 324.662 256.911C324.139 256.792 323.598 256.78 323.071 256.874C322.544 256.968 322.041 257.168 321.591 257.46C321.142 257.752 320.756 258.132 320.456 258.576C320.156 259.021 319.948 259.521 319.844 260.047C319.741 260.573 319.743 261.115 319.852 261.64C319.961 262.166 320.175 262.664 320.479 263.105Z" fill="#00B0FF"/>
<path opacity="0.1" d="M354.328 217.144C353.571 219.217 347.559 223.831 347.559 223.831C347.559 223.831 346.046 216.409 346.825 214.337C347.197 213.341 347.949 212.533 348.915 212.092C349.882 211.65 350.984 211.612 351.978 211.984C352.973 212.356 353.78 213.109 354.221 214.077C354.661 215.045 354.7 216.148 354.328 217.144Z" fill="#00B0FF"/>
<path opacity="0.1" d="M356.254 230.958C354.479 232.28 346.938 232.886 346.938 232.886C346.938 232.886 349.701 225.839 351.479 224.517C351.9 224.186 352.383 223.943 352.899 223.802C353.416 223.661 353.955 223.625 354.486 223.696C355.016 223.767 355.527 223.944 355.988 224.217C356.45 224.489 356.852 224.851 357.171 225.281C357.49 225.712 357.719 226.202 357.846 226.722C357.973 227.243 357.994 227.784 357.909 228.313C357.823 228.842 357.633 229.349 357.349 229.803C357.064 230.257 356.692 230.65 356.254 230.958Z" fill="#00B0FF"/>
<path opacity="0.1" d="M348.641 250.5C346.443 250.742 339.628 247.469 339.628 247.469C339.628 247.469 345.569 242.782 347.767 242.544C348.295 242.476 348.832 242.514 349.345 242.656C349.858 242.798 350.338 243.041 350.756 243.37C351.175 243.7 351.523 244.11 351.781 244.576C352.04 245.042 352.203 245.555 352.261 246.085C352.319 246.615 352.271 247.152 352.12 247.663C351.969 248.174 351.717 248.65 351.38 249.063C351.043 249.475 350.627 249.817 350.157 250.067C349.687 250.317 349.171 250.47 348.641 250.519V250.5Z" fill="#00B0FF"/>
<path opacity="0.1" d="M339.564 263.988C337.438 264.598 330.166 262.514 330.166 262.514C330.166 262.514 335.232 256.888 337.354 256.274C338.371 255.996 339.456 256.131 340.374 256.649C341.292 257.167 341.97 258.026 342.26 259.04C342.55 260.055 342.43 261.143 341.924 262.069C341.419 262.995 340.57 263.684 339.56 263.988H339.564Z" fill="#00B0FF"/>
<path opacity="0.1" d="M338.898 230.34C339.844 232.345 346.212 236.433 346.212 236.433C346.212 236.433 347.086 228.908 346.14 226.908C345.922 226.421 345.608 225.983 345.219 225.619C344.829 225.256 344.371 224.973 343.871 224.789C343.371 224.604 342.84 224.522 342.307 224.545C341.775 224.569 341.253 224.699 340.772 224.927C340.29 225.155 339.859 225.477 339.503 225.875C339.147 226.272 338.874 226.736 338.7 227.24C338.525 227.744 338.453 228.278 338.487 228.81C338.521 229.342 338.661 229.863 338.898 230.34Z" fill="#00B0FF"/>
<path opacity="0.1" d="M328.481 246.249C329.995 247.878 337.282 249.871 337.282 249.871C337.282 249.871 335.867 242.43 334.365 240.805C333.636 240.055 332.644 239.619 331.599 239.591C330.555 239.563 329.541 239.945 328.773 240.655C328.006 241.366 327.546 242.348 327.491 243.393C327.437 244.438 327.792 245.463 328.481 246.249Z" fill="#00B0FF"/>
<path opacity="0.1" d="M320.479 263.105C321.686 264.961 328.538 268.163 328.538 268.163C328.538 268.163 328.402 260.585 327.195 258.733C326.916 258.275 326.548 257.878 326.113 257.565C325.678 257.252 325.184 257.03 324.662 256.911C324.139 256.792 323.598 256.78 323.071 256.874C322.544 256.968 322.041 257.168 321.591 257.46C321.142 257.752 320.756 258.132 320.456 258.576C320.156 259.021 319.948 259.521 319.844 260.047C319.741 260.573 319.743 261.115 319.852 261.64C319.961 262.166 320.175 262.664 320.479 263.105Z" fill="#00B0FF"/>
</g>
<g opacity="0.1">
<path opacity="0.1" d="M126.097 302.045C126.097 302.045 109.937 292.399 105.536 278.351C103.734 272.442 100.064 267.279 95.0781 263.639C92.6975 261.927 90.1643 260.438 87.5107 259.191" fill="#00B0FF"/>
<path opacity="0.1" d="M84.6918 250.341C86.2053 251.966 87.6166 259.407 87.6166 259.407C87.6166 259.407 80.3179 257.418 78.8158 255.793C78.1278 255.007 77.7731 253.983 77.8272 252.94C77.8812 251.896 78.3398 250.915 79.1053 250.205C79.8708 249.494 80.8829 249.111 81.9262 249.137C82.9695 249.162 83.9617 249.594 84.6918 250.341Z" fill="#00B0FF"/>
<path opacity="0.1" d="M97.878 254.861C98.2564 257.043 95.4111 264.06 95.4111 264.06C95.4111 264.06 90.3637 258.418 89.9853 256.236C89.8806 255.711 89.8819 255.171 89.989 254.646C90.0962 254.122 90.307 253.624 90.6092 253.183C90.9113 252.741 91.2986 252.364 91.7484 252.075C92.1981 251.786 92.701 251.589 93.2277 251.498C93.7543 251.406 94.294 251.42 94.8149 251.541C95.3358 251.661 95.8274 251.884 96.2607 252.198C96.6941 252.511 97.0604 252.908 97.3382 253.366C97.6159 253.823 97.7995 254.331 97.878 254.861Z" fill="#00B0FF"/>
<path opacity="0.1" d="M111.893 270.425C111.136 272.501 105.124 277.119 105.124 277.119C105.124 277.119 103.61 269.697 104.386 267.625C104.559 267.117 104.831 266.649 105.188 266.249C105.544 265.848 105.977 265.524 106.461 265.294C106.945 265.064 107.47 264.934 108.006 264.91C108.541 264.887 109.075 264.972 109.577 265.159C110.079 265.346 110.538 265.632 110.928 266.001C111.318 266.369 111.63 266.811 111.846 267.302C112.061 267.793 112.177 268.322 112.185 268.859C112.193 269.395 112.094 269.927 111.893 270.425Z" fill="#00B0FF"/>
<path opacity="0.1" d="M119.842 284.606C119.433 286.784 114.303 292.369 114.303 292.369C114.303 292.369 111.56 285.31 111.972 283.136C112.07 282.618 112.268 282.125 112.556 281.685C112.844 281.244 113.216 280.864 113.65 280.568C114.085 280.271 114.573 280.063 115.088 279.955C115.603 279.847 116.134 279.842 116.65 279.94C117.167 280.038 117.66 280.236 118.1 280.525C118.54 280.813 118.919 281.185 119.215 281.62C119.512 282.055 119.719 282.545 119.827 283.06C119.935 283.576 119.94 284.107 119.842 284.625V284.606Z" fill="#00B0FF"/>
<path opacity="0.1" d="M89.5313 270.076C91.741 270.129 98.2527 266.287 98.2527 266.287C98.2527 266.287 91.9339 262.12 89.7205 262.067C88.6714 262.063 87.6626 262.471 86.9107 263.203C86.1587 263.936 85.7236 264.934 85.6989 265.984C85.6741 267.034 86.0616 268.052 86.7782 268.82C87.4948 269.587 88.4832 270.042 89.5313 270.087V270.076Z" fill="#00B0FF"/>
<path opacity="0.1" d="M99.0394 286.546C101.166 285.932 106.228 280.302 106.228 280.302C106.228 280.302 98.9562 278.222 96.8298 278.836C95.8312 279.149 94.9945 279.84 94.4986 280.763C94.0027 281.686 93.8869 282.766 94.176 283.773C94.4651 284.78 95.1361 285.634 96.0457 286.152C96.9552 286.67 98.031 286.811 99.0432 286.546H99.0394Z" fill="#00B0FF"/>
<path opacity="0.1" d="M110.474 301.28C112.676 301.037 118.612 296.354 118.612 296.354C118.612 296.354 111.802 293.073 109.596 293.324C109.052 293.353 108.521 293.494 108.033 293.737C107.546 293.979 107.113 294.319 106.761 294.735C106.409 295.15 106.146 295.634 105.987 296.155C105.828 296.676 105.776 297.224 105.836 297.766C105.896 298.308 106.065 298.832 106.334 299.306C106.603 299.779 106.966 300.194 107.4 300.522C107.834 300.851 108.33 301.088 108.859 301.218C109.387 301.348 109.937 301.369 110.474 301.28Z" fill="#00B0FF"/>
<path opacity="0.1" d="M84.6918 250.341C86.2053 251.966 87.6166 259.407 87.6166 259.407C87.6166 259.407 80.3179 257.418 78.8158 255.793C78.1278 255.007 77.7731 253.983 77.8272 252.94C77.8812 251.896 78.3398 250.915 79.1053 250.205C79.8708 249.494 80.8829 249.111 81.9262 249.137C82.9695 249.162 83.9617 249.594 84.6918 250.341Z" fill="#00B0FF"/>
<path opacity="0.1" d="M97.878 254.861C98.2564 257.043 95.4111 264.06 95.4111 264.06C95.4111 264.06 90.3637 258.418 89.9853 256.236C89.8806 255.711 89.8819 255.171 89.989 254.646C90.0962 254.122 90.307 253.624 90.6092 253.183C90.9113 252.741 91.2986 252.364 91.7484 252.075C92.1981 251.786 92.701 251.589 93.2277 251.498C93.7543 251.406 94.294 251.42 94.8149 251.541C95.3358 251.661 95.8274 251.884 96.2607 252.198C96.6941 252.511 97.0604 252.908 97.3382 253.366C97.6159 253.823 97.7995 254.331 97.878 254.861Z" fill="#00B0FF"/>
<path opacity="0.1" d="M111.893 270.425C111.136 272.501 105.124 277.119 105.124 277.119C105.124 277.119 103.61 269.697 104.386 267.625C104.559 267.117 104.831 266.649 105.188 266.249C105.544 265.848 105.977 265.524 106.461 265.294C106.945 265.064 107.47 264.934 108.006 264.91C108.541 264.887 109.075 264.972 109.577 265.159C110.079 265.346 110.538 265.632 110.928 266.001C111.318 266.369 111.63 266.811 111.846 267.302C112.061 267.793 112.177 268.322 112.185 268.859C112.193 269.395 112.094 269.927 111.893 270.425Z" fill="#00B0FF"/>
<path opacity="0.1" d="M119.842 284.606C119.433 286.784 114.303 292.369 114.303 292.369C114.303 292.369 111.56 285.31 111.972 283.136C112.07 282.618 112.268 282.125 112.556 281.685C112.844 281.244 113.216 280.864 113.65 280.568C114.085 280.271 114.573 280.063 115.088 279.955C115.603 279.847 116.134 279.842 116.65 279.94C117.167 280.038 117.66 280.236 118.1 280.525C118.54 280.813 118.919 281.185 119.215 281.62C119.512 282.055 119.719 282.545 119.827 283.06C119.935 283.576 119.94 284.107 119.842 284.625V284.606Z" fill="#00B0FF"/>
<path opacity="0.1" d="M89.5313 270.076C91.741 270.129 98.2527 266.287 98.2527 266.287C98.2527 266.287 91.9339 262.12 89.7205 262.067C88.6714 262.063 87.6626 262.471 86.9107 263.203C86.1587 263.936 85.7236 264.934 85.6989 265.984C85.6741 267.034 86.0616 268.052 86.7782 268.82C87.4948 269.587 88.4832 270.042 89.5313 270.087V270.076Z" fill="#00B0FF"/>
<path opacity="0.1" d="M99.0394 286.546C101.166 285.932 106.228 280.302 106.228 280.302C106.228 280.302 98.9562 278.222 96.8298 278.836C95.8312 279.149 94.9945 279.84 94.4986 280.763C94.0027 281.686 93.8869 282.766 94.176 283.773C94.4651 284.78 95.1361 285.634 96.0457 286.152C96.9552 286.67 98.031 286.811 99.0432 286.546H99.0394Z" fill="#00B0FF"/>
<path opacity="0.1" d="M110.474 301.28C112.676 301.037 118.612 296.354 118.612 296.354C118.612 296.354 111.802 293.073 109.596 293.324C109.052 293.353 108.521 293.494 108.033 293.737C107.546 293.979 107.113 294.319 106.761 294.735C106.409 295.15 106.146 295.634 105.987 296.155C105.828 296.676 105.776 297.224 105.836 297.766C105.896 298.308 106.065 298.832 106.334 299.306C106.603 299.779 106.966 300.194 107.4 300.522C107.834 300.851 108.33 301.088 108.859 301.218C109.387 301.348 109.937 301.369 110.474 301.28Z" fill="#00B0FF"/>
</g>
<path opacity="0.1" d="M324.188 415.501C335.05 420.233 348.305 417.354 360.632 417.687C362.316 417.733 364.105 417.873 365.456 418.691C366.807 419.51 367.477 420.832 368.404 421.969C371.858 426.189 378.937 427.546 385.124 426.829C391.31 426.113 396.982 423.742 402.82 421.938C412.911 418.816 424.444 417.392 434.398 420.802C435.31 421.112 436.29 421.472 437.251 421.347C439.434 421.071 440.085 418.805 441.61 417.513C444.365 415.175 450.35 415.812 451.561 412.732C452.269 410.928 450.638 409.079 448.86 407.848C442.049 403.135 432.325 402.358 423.422 403.086C414.519 403.813 405.767 405.817 396.819 405.825C385.668 405.825 374.896 402.749 363.856 401.487C356.209 400.616 347.862 400.729 340.692 403.294C332.92 406.067 331.21 412.315 324.188 415.501Z" fill="#00B0FF"/>
<path opacity="0.1" d="M118.613 400.987C137.153 406.333 159.779 403.078 180.816 403.457C183.696 403.51 186.745 403.665 189.057 404.594C191.369 405.522 192.504 407.018 194.09 408.299C199.984 413.069 212.066 414.603 222.622 413.793C233.179 412.982 242.865 410.303 252.831 408.265C270.054 404.738 289.745 403.131 306.733 406.977C308.292 407.329 309.934 407.734 311.607 407.594C315.33 407.28 316.438 404.722 319.045 403.26C323.748 400.608 333.961 401.339 336.026 397.861C337.237 395.823 334.452 393.731 331.418 392.341C319.81 387.018 303.199 386.139 288 386.961C272.801 387.783 257.863 390.045 242.596 390.056C223.564 390.056 205.176 386.582 186.329 385.154C173.276 384.169 159.03 384.29 146.79 387.2C133.52 390.341 130.596 397.399 118.613 400.987Z" fill="#00B0FF"/>
<path opacity="0.1" d="M68.9858 414.088C74.283 417.278 80.7152 415.338 86.7161 415.562C87.5372 415.592 88.4074 415.687 89.0658 416.236C89.7242 416.786 90.0496 417.684 90.4998 418.449C92.1798 421.294 95.6229 422.211 98.6309 421.726C101.639 421.241 104.401 419.646 107.243 418.426C112.161 416.323 117.765 415.365 122.604 417.668C123.019 417.934 123.505 418.066 123.997 418.047C125.056 417.858 125.374 416.331 126.116 415.46C127.455 413.884 130.368 414.323 130.955 412.235C131.299 411.019 130.505 409.773 129.642 408.943C126.335 405.764 121.598 405.242 117.266 405.73C112.933 406.219 108.677 407.545 104.322 407.545C98.8996 407.545 93.6592 405.473 88.2864 404.62C84.5632 404.029 80.5033 404.105 77.0148 405.84C73.2349 407.735 72.4025 411.948 68.9858 414.088Z" fill="#00B0FF"/>
<path d="M316.147 123.514H140.35C138.235 123.511 136.141 123.924 134.186 124.732C132.231 125.539 130.454 126.724 128.956 128.219C127.459 129.713 126.27 131.489 125.458 133.444C124.646 135.399 124.227 137.495 124.224 139.612V383.502C124.233 387.776 125.936 391.872 128.96 394.889C131.984 397.905 136.081 399.596 140.35 399.589H316.147C318.261 399.592 320.356 399.179 322.311 398.372C324.266 397.564 326.042 396.379 327.54 394.885C329.037 393.39 330.226 391.614 331.038 389.659C331.85 387.704 332.27 385.608 332.273 383.491V139.612C332.27 137.495 331.85 135.399 331.038 133.444C330.226 131.489 329.037 129.713 327.54 128.219C326.042 126.724 324.266 125.539 322.311 124.732C320.356 123.924 318.261 123.511 316.147 123.514Z" fill="url(#paint0_linear)"/>
<path d="M322.212 126.822H134.269C130.09 126.822 126.702 130.214 126.702 134.399V389.545C126.702 393.73 130.09 397.122 134.269 397.122H322.212C326.391 397.122 329.78 393.73 329.78 389.545V134.399C329.78 130.214 326.391 126.822 322.212 126.822Z" fill="#535461"/>
<path d="M319.461 152.388H137.02V371.553H319.461V152.388Z" fill="#F6F7F9"/>
<path d="M227.416 141.7C228.785 141.7 229.894 140.589 229.894 139.218C229.894 137.848 228.785 136.737 227.416 136.737C226.047 136.737 224.938 137.848 224.938 139.218C224.938 140.589 226.047 141.7 227.416 141.7Z" fill="#F6F7F9"/>
<path d="M227.416 391.337C231.52 391.337 234.847 388.006 234.847 383.896C234.847 379.787 231.52 376.455 227.416 376.455C223.312 376.455 219.985 379.787 219.985 383.896C219.985 388.006 223.312 391.337 227.416 391.337Z" fill="#F6F7F9"/>
<g opacity="0.2">
<path opacity="0.2" d="M319.461 152.388H137.02V163.311H319.461V152.388Z" fill="#00B0FF"/>
</g>
<path d="M142.726 160.181C144.011 160.181 145.053 159.138 145.053 157.851C145.053 156.564 144.011 155.521 142.726 155.521C141.441 155.521 140.399 156.564 140.399 157.851C140.399 159.138 141.441 160.181 142.726 160.181Z" fill="#F6F7F9"/>
<path d="M148.655 160.181C149.94 160.181 150.982 159.138 150.982 157.851C150.982 156.564 149.94 155.521 148.655 155.521C147.37 155.521 146.328 156.564 146.328 157.851C146.328 159.138 147.37 160.181 148.655 160.181Z" fill="#F6F7F9"/>
<path d="M154.58 160.181C155.866 160.181 156.907 159.138 156.907 157.851C156.907 156.564 155.866 155.521 154.58 155.521C153.295 155.521 152.253 156.564 152.253 157.851C152.253 159.138 153.295 160.181 154.58 160.181Z" fill="#F6F7F9"/>
<path d="M312.359 216.815H142.469V217.383H312.359V216.815Z" fill="#DCE0ED"/>
<path d="M312.359 230.011H142.469V230.579H312.359V230.011Z" fill="#DCE0ED"/>
<path d="M312.359 243.21H142.469V243.779H312.359V243.21Z" fill="#DCE0ED"/>
<path d="M312.359 256.406H142.469V256.975H312.359V256.406Z" fill="#DCE0ED"/>
<path d="M312.359 269.603H142.469V270.171H312.359V269.603Z" fill="#DCE0ED"/>
<g opacity="0.2">
<path opacity="0.2" d="M312.36 270.171H142.261V244.218L157.861 251.917L174.006 254.111L188.172 249.833L205.263 236.561L213.859 231.591L220.144 230.378L226.156 230.7L236.043 235.591L249.486 244.165L260.035 245.522L268.397 242.635L286.127 228.097L295.178 224.866L304.648 226.332L312.36 230.791V270.171Z" fill="#00B0FF"/>
</g>
<path d="M171.909 254.103C156.589 254.103 142.435 244.722 142.257 244.601L142.681 243.972C142.9 244.12 164.686 258.551 183.2 251.322C189.95 248.67 194.755 244.586 199.405 240.619C204.26 236.478 208.842 232.568 215.093 230.871C222.259 228.927 230.091 230.685 236.043 235.584C241.132 239.77 251.264 246.492 261.968 244.484C267.424 243.457 272.022 239.467 276.891 235.243C286.226 227.143 295.882 218.766 312.583 230.784L312.14 231.397C295.923 219.728 286.502 227.908 277.387 235.815C272.438 240.108 267.765 244.15 262.108 245.226C251.098 247.295 240.753 240.437 235.562 236.167C229.8 231.428 222.225 229.727 215.289 231.602C209.205 233.254 204.695 237.111 199.894 241.195C195.198 245.203 190.344 249.344 183.476 252.027C179.784 253.435 175.861 254.139 171.909 254.103Z" fill="#00B0FF"/>
<path d="M224.219 234.557C226.545 234.557 228.43 232.669 228.43 230.34C228.43 228.011 226.545 226.123 224.219 226.123C221.893 226.123 220.008 228.011 220.008 230.34C220.008 232.669 221.893 234.557 224.219 234.557Z" fill="#00B0FF"/>
<g opacity="0.2">
<path opacity="0.2" d="M279.15 174.54H226.027C225.798 174.54 225.579 174.631 225.417 174.793C225.255 174.955 225.165 175.175 225.165 175.404V211.378C225.165 211.551 225.217 211.72 225.314 211.863C225.411 212.006 225.549 212.116 225.71 212.18C225.87 212.244 226.046 212.257 226.215 212.22C226.383 212.182 226.537 212.095 226.655 211.969L235.861 202.137C235.941 202.051 236.039 201.982 236.147 201.935C236.255 201.889 236.371 201.864 236.489 201.864H279.15C279.379 201.864 279.598 201.773 279.76 201.611C279.922 201.449 280.013 201.23 280.013 201.001V175.397C280.011 175.169 279.919 174.951 279.757 174.791C279.596 174.63 279.377 174.54 279.15 174.54Z" fill="#00B0FF"/>
</g>
<path d="M267.712 181.201H237.462V184.99H267.712V181.201Z" fill="#F6F7F9"/>
<path d="M245.767 189.597H237.462V193.385H245.767V189.597Z" fill="#F6F7F9"/>
<g opacity="0.2">
<path opacity="0.2" d="M165.122 297.283H156.816V301.071H165.122V297.283Z" fill="#00B0FF"/>
</g>
<g opacity="0.2">
<path opacity="0.2" d="M165.122 304.606H156.816V308.395H165.122V304.606Z" fill="#00B0FF"/>
</g>
<g opacity="0.2">
<path opacity="0.2" d="M165.122 311.93H156.816V315.719H165.122V311.93Z" fill="#00B0FF"/>
</g>
<g opacity="0.2">
<path opacity="0.2" d="M165.122 319.257H156.816V323.046H165.122V319.257Z" fill="#00B0FF"/>
</g>
<g opacity="0.2">
<path opacity="0.2" d="M165.122 326.581H156.816V330.369H165.122V326.581Z" fill="#00B0FF"/>
</g>
<g opacity="0.2">
<path opacity="0.2" d="M165.122 333.904H156.816V337.693H165.122V333.904Z" fill="#00B0FF"/>
</g>
<g opacity="0.2">
<path opacity="0.2" d="M165.122 341.232H156.816V345.02H165.122V341.232Z" fill="#00B0FF"/>
</g>
<g opacity="0.2">
<path opacity="0.2" d="M165.122 348.555H156.816V352.344H165.122V348.555Z" fill="#00B0FF"/>
</g>
<g opacity="0.2">
<path opacity="0.2" d="M180.76 352.344H172.455V356.132H180.76V352.344Z" fill="#00B0FF"/>
</g>
<g opacity="0.2">
<path opacity="0.2" d="M195.391 352.344H187.086V356.132H195.391V352.344Z" fill="#00B0FF"/>
</g>
<g opacity="0.2">
<path opacity="0.2" d="M210.022 352.344H201.717V356.132H210.022V352.344Z" fill="#00B0FF"/>
</g>
<g opacity="0.2">
<path opacity="0.2" d="M224.65 352.344H216.345V356.132H224.65V352.344Z" fill="#00B0FF"/>
</g>
<g opacity="0.2">
<path opacity="0.2" d="M239.282 352.344H230.977V356.132H239.282V352.344Z" fill="#00B0FF"/>
</g>
<g opacity="0.2">
<path opacity="0.2" d="M253.913 352.344H245.608V356.132H253.913V352.344Z" fill="#00B0FF"/>
</g>
<g opacity="0.2">
<path opacity="0.2" d="M268.541 352.344H260.236V356.132H268.541V352.344Z" fill="#00B0FF"/>
</g>
<g opacity="0.2">
<path opacity="0.2" d="M283.172 352.344H274.867V356.132H283.172V352.344Z" fill="#00B0FF"/>
</g>
<g opacity="0.2">
<path opacity="0.2" d="M297.804 352.344H289.499V356.132H297.804V352.344Z" fill="#00B0FF"/>
</g>
<path d="M267.712 189.597H255.101V193.385H267.712V189.597Z" fill="#F6F7F9"/>
<path d="M180.76 324.811H172.455V348.555H180.76V324.811Z" fill="#00B0FF"/>
<path d="M195.391 313.824H187.086V348.555H195.391V313.824Z" fill="#00B0FF"/>
<path d="M210.022 304.606H201.717V348.555H210.022V304.606Z" fill="#00B0FF"/>
<path d="M224.65 309.384H216.345V348.551H224.65V309.384Z" fill="#00B0FF"/>
<path d="M239.282 301.071H230.977V348.555H239.282V301.071Z" fill="#00B0FF"/>
<g opacity="0.2">
<path opacity="0.2" d="M253.913 319.257H245.608V348.555H253.913V319.257Z" fill="#00B0FF"/>
</g>
<g opacity="0.2">
<path opacity="0.2" d="M268.541 319.257H260.236V348.555H268.541V319.257Z" fill="#00B0FF"/>
</g>
<g opacity="0.2">
<path opacity="0.2" d="M283.172 319.257H274.867V348.555H283.172V319.257Z" fill="#00B0FF"/>
</g>
<g opacity="0.2">
<path opacity="0.2" d="M297.804 319.257H289.499V348.555H297.804V319.257Z" fill="#00B0FF"/>
</g>
<path d="M427.387 213.242C418.393 208.063 414.996 206.778 414.977 206.771L414.795 206.638C413.814 205.884 413.034 204.899 412.525 203.77C412.525 203.562 412.525 203.357 412.525 203.153V203.213C412.669 200.47 414.617 197.973 416.467 195.795L421.193 190.226C421.732 189.676 422.148 189.017 422.412 188.293C422.509 187.906 422.552 187.507 422.54 187.108C422.54 186.945 422.54 186.782 422.54 186.623C422.518 185.24 422.476 183.853 422.427 182.455C422.381 181.246 422.071 179.723 420.864 179.473C420.236 179.344 419.407 179.572 419.074 179.03C418.963 178.809 418.935 178.554 418.995 178.314C418.993 178.333 418.993 178.352 418.995 178.371V178.303C419.23 177.37 419.381 176.417 419.445 175.457C419.469 174.969 419.402 174.481 419.248 174.018C418.548 172.01 416.142 171.187 414.012 170.809C411.882 170.43 409.498 170.104 408.162 168.437C407.75 167.922 407.47 167.3 407.001 166.834C406.384 166.288 405.633 165.916 404.825 165.758C402.183 165.104 399.399 165.347 396.91 166.448C395.881 166.906 394.848 167.528 393.72 167.459C392.593 167.391 391.544 166.577 390.387 166.38C388.517 166.061 386.728 167.437 385.808 169.062C385.262 170.029 384.971 171.119 384.961 172.229C384.961 172.29 384.961 172.354 384.961 172.415C384.933 173.609 385.368 174.767 386.175 175.647C386.981 176.484 388.185 177.06 388.517 178.162C388.654 178.609 388.62 179.094 388.741 179.549C388.741 179.606 388.775 179.663 388.794 179.716L388.733 179.795C386.804 182.271 385.759 185.323 385.767 188.464C385.786 191.51 386.773 194.472 388.585 196.919C390.396 199.367 392.938 201.175 395.843 202.08C395.843 202.221 395.843 202.365 395.843 202.505C395.843 204.225 395.355 205.979 393.887 207.271L381.151 212.401C381.151 212.401 373.474 211.488 370.704 222.725C370.258 224.591 370.098 226.513 370.227 228.427C370.329 230.121 370.095 233.106 368.127 236.967C364.975 243.142 365.694 257.32 372.134 258.725C378.215 260.051 380.594 259.483 380.837 259.434V259.68C380.738 262.332 379.773 285.288 376.266 288.065C375.297 288.823 375.479 289.353 376.266 289.702C376.266 289.702 376.266 289.849 376.243 290.115C376.137 291.793 375.596 298.184 373.25 301.822C370.53 306.031 370.814 330.32 370.814 330.32L368.986 344.653C368.986 344.653 370.121 353.496 368.986 355.041C367.965 356.417 366.602 389.14 366.338 396.228H366.217C365.656 396.262 365.112 396.433 364.633 396.725C364.153 397.018 363.753 397.423 363.466 397.907C361.952 400.354 356.693 404.874 356.693 404.874C355.558 406.499 351.324 408.053 349.088 408.788C348.788 408.884 348.499 409.011 348.225 409.167C347.39 409.623 346.719 410.331 346.307 411.19C346.161 411.443 346.068 411.723 346.032 412.014C345.996 412.304 346.019 412.598 346.099 412.88C346.674 414.281 358.555 415.263 361.559 413.861C363.924 412.755 373.288 411.303 377.174 410.735C377.88 410.645 378.536 410.324 379.039 409.82C379.542 409.317 379.864 408.661 379.955 407.954C379.989 407.708 379.973 407.458 379.908 407.218C379.843 406.979 379.731 406.755 379.577 406.56C378.82 405.636 378.442 403.116 378.279 401.472C378.595 401.344 378.89 401.169 379.153 400.953C378.834 395.852 379.564 390.741 381.298 385.934C384.162 378.357 385.021 364.312 384.325 355.189C384.325 355.189 393.058 317.567 399.929 314.055C400.035 314.188 403.368 318.477 403.792 331.741C404.224 345.217 409.089 354.06 409.089 354.06C409.089 354.06 406.94 376.944 409.089 385.506L406.278 399.017C406.074 398.839 405.941 398.702 405.941 398.702C405.941 398.702 406.025 399.081 406.142 399.68L406.081 399.964L406.202 399.994C406.52 401.684 406.993 404.628 406.8 406.355C406.687 407.337 406.422 408.686 406.225 410.008C405.93 412.088 405.847 414.103 406.94 414.554C408.73 415.274 419.252 416.259 421.042 413.944C421.443 413.472 421.705 412.897 421.797 412.284C421.89 411.67 421.809 411.043 421.564 410.474C421.434 410.156 421.258 409.858 421.042 409.591C421.042 409.591 418.25 405.018 419.037 401.794C419.111 401.479 419.12 401.152 419.063 400.833C419.006 400.514 418.883 400.211 418.704 399.941C418.825 398.358 419.46 391.034 421.114 384.813C422.904 378.058 426.683 363.248 423.902 353.507C423.796 353.128 423.675 352.749 423.547 352.37C421.942 347.054 421.407 341.471 421.973 335.946C420.94 331.229 420.94 326.343 421.973 321.625C423.69 313.764 424.89 306.042 424.89 306.042C424.89 306.042 425.84 295.657 425.011 289.289L424.954 288.879L425.408 288.777C425.408 288.777 422.975 277.968 422.116 271.091C421.912 269.466 421.647 267.409 421.36 265.211C422.153 265.085 422.934 264.891 423.694 264.632C431.398 261.953 433.819 237.812 433.819 237.812V230.158C433.819 230.158 436.407 218.436 427.387 213.242ZM369.8 399.672C369.561 399.551 369.421 399.471 369.421 399.471L369.8 399.672Z" fill="url(#paint1_linear)"/>
<path d="M422.722 352.575C426.074 362.228 422.162 377.895 420.346 384.889C418.529 391.883 417.969 400.282 417.969 400.282C410.845 401.4 405.676 399.998 405.676 399.998L408.609 385.601C406.512 377.069 408.609 354.265 408.609 354.265C408.609 354.265 403.86 345.452 403.44 332.021C403.028 318.799 399.774 314.529 399.656 314.396C392.952 317.893 384.427 355.39 384.427 355.39C385.127 364.483 384.287 378.471 381.495 386.025C379.801 390.824 379.088 395.914 379.399 400.994C378.422 401.82 377.064 401.961 375.596 401.726C371.619 401.063 366.848 397.622 366.848 397.622C366.848 397.622 368.362 356.777 369.497 355.235C370.632 353.693 369.497 344.88 369.497 344.88L371.309 330.612C371.309 330.612 371.033 306.406 373.685 302.197C375.978 298.571 376.504 292.202 376.606 290.531C376.606 290.266 376.629 290.118 376.629 290.118L380.67 285.269C380.67 285.269 419.793 282.333 422.725 285.269C423.448 285.992 423.891 287.629 424.156 289.694C424.962 296.04 424.038 306.391 424.038 306.391C424.038 306.391 422.865 314.086 421.189 321.924C420.18 326.627 420.18 331.49 421.189 336.193C420.633 341.701 421.153 347.266 422.722 352.575Z" fill="#65617D"/>
<path d="M420.277 413.921C418.529 416.229 408.26 415.247 406.512 414.531C405.445 414.088 405.529 412.08 405.816 410.008C405.998 408.689 406.266 407.356 406.376 406.367C406.656 403.847 405.536 398.74 405.536 398.74C405.536 398.74 407.844 401.188 408.4 398.74C408.646 397.672 409.505 397.122 410.394 396.846C411.592 396.486 412.879 396.566 414.023 397.073C415.835 397.861 418.866 399.543 418.321 401.817C417.564 405.029 420.277 409.587 420.277 409.587C420.488 409.854 420.658 410.15 420.784 410.466C421.024 411.033 421.103 411.656 421.014 412.265C420.924 412.874 420.67 413.447 420.277 413.921Z" fill="#A27772"/>
<path opacity="0.1" d="M420.278 413.921C418.529 416.229 408.261 415.247 406.513 414.531C405.446 414.088 405.529 412.08 405.816 410.008C406.917 410.523 408.794 410.955 411.919 410.663C412.65 410.595 413.384 410.572 414.118 410.595C416.34 410.697 418.568 410.653 420.785 410.462C421.025 411.03 421.104 411.653 421.015 412.263C420.926 412.873 420.67 413.447 420.278 413.921Z" fill="black"/>
<path opacity="0.1" d="M384.439 355.375C385.138 364.468 384.299 378.455 381.506 386.01C379.813 390.809 379.1 395.899 379.41 400.979C378.434 401.805 377.075 401.945 375.607 401.71C376.451 395.8 380.042 370.386 382.361 350.302C384.964 327.429 397.224 311.691 397.224 311.691L399.668 314.385C392.956 317.878 384.439 355.375 384.439 355.375Z" fill="black"/>
<path d="M416.085 208.339L414.379 216.731L406.025 230.791L395.722 226.385C395.722 226.385 381.722 211.696 390.519 209.597C391.573 209.372 392.568 208.928 393.44 208.294C395.169 206.991 395.71 205.092 395.71 203.236C395.71 200.171 394.28 197.216 394.28 197.216L412.302 191.533C411.557 193.904 411.122 196.362 411.008 198.845C410.871 203.77 412.695 206.18 414.19 207.335C414.749 207.792 415.393 208.133 416.085 208.339Z" fill="#FBBEBE"/>
<path opacity="0.1" d="M412.313 191.552C411.568 193.923 411.133 196.381 411.019 198.864C410.691 199.255 410.341 199.627 409.971 199.978C408.11 201.758 405.804 203.001 403.295 203.575C400.786 204.149 398.169 204.031 395.721 203.236C395.721 200.171 394.291 197.216 394.291 197.216L412.313 191.552Z" fill="black"/>
<path d="M414.379 189.244C414.378 192.067 413.541 194.826 411.974 197.172C410.407 199.518 408.181 201.346 405.576 202.425C402.971 203.504 400.106 203.785 397.341 203.233C394.577 202.681 392.039 201.32 390.047 199.323C388.055 197.326 386.699 194.782 386.152 192.013C385.604 189.245 385.888 186.376 386.969 183.769C388.05 181.162 389.879 178.935 392.224 177.369C394.569 175.803 397.326 174.969 400.144 174.972C402.017 174.966 403.872 175.331 405.603 176.047C407.334 176.762 408.906 177.813 410.23 179.14C411.553 180.467 412.601 182.043 413.313 183.777C414.025 185.511 414.387 187.369 414.379 189.244Z" fill="#FBBEBE"/>
<path opacity="0.1" d="M416.085 208.339L414.379 216.731L406.025 230.791L395.722 226.385C395.722 226.385 381.722 211.696 390.519 209.597C391.573 209.372 392.568 208.928 393.44 208.294C391.851 212.67 398.412 221.77 398.412 221.77C399.169 222.907 400.928 222.187 400.928 222.187C405.151 221.55 412.934 209.377 414.201 207.354C414.759 207.803 415.399 208.138 416.085 208.339Z" fill="black"/>
<path opacity="0.1" d="M424.152 289.717C421.674 290.281 407.946 293.327 402.74 292.566C397.015 291.725 385.876 291.168 385.876 291.168C385.876 291.168 378.786 291.547 376.603 290.554C376.603 290.289 376.625 290.141 376.625 290.141L380.666 285.291C380.666 285.291 419.789 282.355 422.722 285.291C423.444 286.008 423.887 287.644 424.152 289.717Z" fill="black"/>
<path d="M398.411 222.187C398.411 222.187 391.041 211.958 393.818 207.983L381.366 213.094C381.366 213.094 373.87 212.185 371.15 223.384C370.716 225.245 370.559 227.16 370.685 229.067C370.783 230.757 370.556 233.731 368.634 237.577C365.558 243.733 366.258 257.861 372.546 259.263C378.835 260.665 381.067 259.96 381.067 259.96C381.067 259.96 380.231 285.564 376.599 288.501C372.966 291.437 385.857 290.74 385.857 290.74C385.857 290.74 396.996 291.3 402.725 292.138C408.453 292.975 424.519 289.201 424.519 289.201C424.519 289.201 422.143 278.426 421.306 271.573C420.47 264.719 418.51 250.121 418.51 250.121L432.763 230.799C432.763 230.799 435.276 219.118 426.475 213.943C417.674 208.767 414.367 207.502 414.367 207.502C414.367 207.502 405.536 221.899 400.928 222.608C400.928 222.608 399.176 223.312 398.411 222.187Z" fill="#7C7CDD"/>
<path opacity="0.1" d="M382.066 226.245C382.066 226.245 381.926 230.863 382.762 232.686C383.598 234.508 386.675 244.578 386.675 244.578H379.69C379.69 244.578 383.474 240.521 383.182 238.562C382.891 236.603 382.066 226.245 382.066 226.245Z" fill="black"/>
<path d="M402.744 261.082C402.744 261.082 387.314 257.293 385.876 254.084C384.438 250.875 380.469 243.669 380.469 243.669L382.096 241.471L389.603 247.37C389.603 247.37 398.544 254.505 402.736 255.205C406.928 255.906 402.744 261.082 402.744 261.082Z" fill="#FBBEBE"/>
<path opacity="0.05" d="M402.744 261.082C402.744 261.082 387.314 257.293 385.876 254.084C384.438 250.875 380.469 243.669 380.469 243.669L382.096 241.471L389.603 247.37C389.603 247.37 398.544 254.505 402.736 255.205C406.928 255.906 402.744 261.082 402.744 261.082Z" fill="black"/>
<path d="M416.085 242.896V251.277H414.738C408.091 251.278 401.553 252.973 395.74 256.202L393.221 257.604L392.543 257.983L388.211 248.215L392.263 244.578H392.471C393.463 244.673 397.75 245.033 399.566 244.419C401.291 243.832 403.433 241.972 408.514 243.282C411.019 243.923 413.157 246.734 415.586 245.855L416.085 242.896Z" fill="#FBBEBE"/>
<path opacity="0.1" d="M429.567 227.647L432.363 230.791V238.418C432.363 238.418 429.987 262.48 422.442 265.139C414.897 267.799 401.431 263.597 401.431 263.597C401.431 263.597 397.95 254.364 399.577 253.807C401.204 253.25 413.955 249.875 413.955 249.875C413.955 249.875 413.777 235.758 416.57 231.56C416.57 231.56 414.753 218.413 421.042 218.133C427.33 217.853 429.567 227.647 429.567 227.647Z" fill="black"/>
<path d="M429.986 227.647L432.783 230.791V238.418C432.783 238.418 430.414 262.48 422.847 265.139C415.279 267.799 401.832 263.597 401.832 263.597C401.832 263.597 398.355 254.364 399.982 253.807C401.609 253.25 414.36 249.875 414.36 249.875C414.36 249.875 414.178 235.758 416.974 231.56C416.974 231.56 415.158 218.413 421.447 218.133C427.735 217.853 429.986 227.647 429.986 227.647Z" fill="#7C7CDD"/>
<path opacity="0.1" d="M410.47 195.306C410.527 194.386 410.546 193.412 410.152 192.582C409.759 191.752 408.836 191.089 407.935 191.302C406.739 191.582 406.225 193.139 405.052 193.514C404.064 193.829 402.986 193.135 402.517 192.203C402.048 191.271 402.033 190.195 402.029 189.172C402.029 188.005 402.029 186.835 402.029 185.668C402.029 184.395 401.987 183.016 401.204 182.023C400.232 180.777 397.942 180.235 396.414 180.284C395.396 180.296 394.419 180.691 393.678 181.39C392.861 182.084 391.915 182.599 390.799 182.413C390.335 182.343 389.901 182.143 389.546 181.836C389.191 181.529 388.93 181.127 388.793 180.678V180.633C389.981 179.061 391.482 177.753 393.2 176.791C394.917 175.829 396.816 175.233 398.775 175.043C400.734 174.852 402.711 175.069 404.582 175.682C406.453 176.294 408.177 177.288 409.645 178.6C411.114 179.913 412.295 181.516 413.113 183.309C413.932 185.101 414.371 187.044 414.403 189.015C414.434 190.985 414.058 192.941 413.297 194.759C412.536 196.577 411.407 198.217 409.982 199.576C410.225 198.163 410.388 196.738 410.47 195.306Z" fill="black"/>
<path d="M390.791 181.981C390.327 181.91 389.893 181.709 389.538 181.402C389.183 181.094 388.923 180.692 388.786 180.242C388.669 179.791 388.699 179.31 388.567 178.859C388.241 177.761 387.053 177.189 386.296 176.355C384.722 174.681 384.824 171.93 385.941 169.914C386.841 168.293 388.589 166.925 390.409 167.24C391.544 167.437 392.517 168.244 393.663 168.316C394.81 168.388 395.771 167.766 396.777 167.308C399.199 166.209 401.922 165.967 404.5 166.622C405.292 166.781 406.026 167.152 406.626 167.694C407.032 168.206 407.41 168.738 407.761 169.289C409.066 170.952 411.397 171.278 413.474 171.653C415.552 172.028 417.898 172.851 418.582 174.851C419.033 176.177 418.582 177.617 418.336 178.996C418.249 179.277 418.268 179.58 418.389 179.848C418.715 180.386 419.525 180.163 420.137 180.292C421.318 180.538 421.621 182.057 421.651 183.262C421.701 184.641 421.739 186.02 421.764 187.399C421.835 188.039 421.752 188.686 421.524 189.287C421.296 189.888 420.928 190.427 420.452 190.858L415.839 196.409C413.792 198.871 411.62 201.739 412.033 204.914C411.064 205.35 409.914 204.509 409.596 203.494C409.278 202.478 409.536 201.387 409.748 200.345C410.121 198.544 410.365 196.718 410.478 194.882C410.535 193.957 410.553 192.988 410.16 192.158C409.766 191.328 408.843 190.642 407.943 190.873C406.747 191.154 406.232 192.711 405.06 193.086C404.076 193.4 402.994 192.707 402.524 191.775C402.055 190.843 402.04 189.767 402.036 188.744V185.236C402.036 183.967 401.995 182.584 401.212 181.591C400.239 180.345 397.95 179.803 396.421 179.852C395.403 179.865 394.427 180.26 393.686 180.958C392.853 181.652 391.908 182.163 390.791 181.981Z" fill="#7C5C5C"/>
<path opacity="0.1" d="M394.011 225.896L398.385 243.892C398.385 243.892 401.836 243.873 394.011 225.896Z" fill="black"/>
<path opacity="0.1" d="M408.961 222.888C408.961 222.888 403.232 232.284 405.468 241.994L406.535 242.074C406.535 242.074 404.628 237.577 408.961 222.888Z" fill="black"/>
<path opacity="0.1" d="M412.593 276.051C412.593 276.051 419.627 273.721 420.137 279.127C420.137 279.127 418.809 275.422 412.593 276.051Z" fill="black"/>
<path opacity="0.1" d="M392.263 245.01C392.263 245.01 390.867 254.804 393.398 258.721C393.398 258.721 388.283 260.82 381.101 260.4L380.25 245.01H392.263Z" fill="black"/>
<path opacity="0.1" d="M393.221 257.6L392.543 257.979L388.211 248.212L392.263 244.574H392.471C392.407 245.044 391.279 253.455 393.221 257.6Z" fill="black"/>
<path d="M392.263 244.574C392.263 244.574 390.867 254.364 393.398 258.282C393.398 258.282 388.283 260.381 381.101 259.96L376.213 244.574H392.263Z" fill="#7C7CDD"/>
<path d="M380.178 407.966C380.097 408.663 379.786 409.314 379.295 409.816C378.804 410.317 378.16 410.641 377.465 410.735C373.681 411.303 364.532 412.751 362.224 413.85C359.292 415.248 347.695 414.27 347.135 412.872C346.977 412.307 347.049 411.702 347.336 411.19C347.739 410.335 348.401 409.628 349.227 409.17C349.494 409.017 349.776 408.89 350.067 408.792C352.251 408.06 356.375 406.518 357.491 404.889C357.491 404.889 362.633 400.384 364.097 397.948C364.374 397.47 364.763 397.067 365.232 396.775C365.7 396.483 366.233 396.311 366.784 396.274C368.01 396.217 369.372 396.834 369.928 399.521C369.928 399.521 376.633 403.351 378.445 399.99C378.445 399.99 378.725 405.151 379.837 406.56C379.985 406.76 380.09 406.987 380.149 407.229C380.207 407.47 380.217 407.72 380.178 407.966Z" fill="#A27772"/>
<path opacity="0.1" d="M380.178 407.966C380.097 408.663 379.786 409.314 379.295 409.816C378.804 410.317 378.16 410.641 377.465 410.735C373.681 411.303 364.532 412.751 362.224 413.849C359.292 415.247 347.695 414.27 347.135 412.872C346.977 412.307 347.049 411.702 347.336 411.19C347.739 410.335 348.401 409.628 349.227 409.17C351.119 410.428 355.315 411.656 364.548 410.212C373.352 408.837 377.711 407.488 379.837 406.568C379.984 406.767 380.089 406.993 380.147 407.232C380.206 407.472 380.216 407.722 380.178 407.966Z" fill="black"/>
<g opacity="0.1">
<path opacity="0.1" d="M418.306 179.201V179.132C418.507 178.083 418.806 176.999 418.738 175.954C418.648 176.812 418.504 177.663 418.306 178.503C418.253 178.733 418.253 178.971 418.306 179.201Z" fill="black"/>
<path opacity="0.1" d="M410.149 192.294C410.369 192.799 410.486 193.342 410.493 193.893C410.558 193.134 410.44 192.37 410.149 191.665C409.77 190.828 408.836 190.169 407.935 190.381C406.74 190.661 406.225 192.218 405.052 192.594C404.064 192.908 402.986 192.215 402.513 191.283C402.04 190.351 402.033 189.275 402.029 188.252C402.029 187.081 402.029 185.914 402.029 184.743C402.029 183.474 401.987 182.091 401.204 181.099C400.232 179.852 397.939 179.31 396.414 179.36C395.396 179.371 394.419 179.766 393.678 180.466C392.857 181.163 391.915 181.675 390.799 181.493C390.335 181.422 389.9 181.221 389.546 180.913C389.191 180.605 388.93 180.203 388.794 179.754C388.676 179.303 388.707 178.822 388.574 178.371C388.245 177.272 387.061 176.7 386.304 175.866C385.568 175.054 385.15 174.004 385.127 172.907C385.069 173.554 385.143 174.206 385.346 174.823C385.548 175.44 385.874 176.009 386.304 176.495C387.091 177.329 388.26 177.905 388.574 179.003C388.707 179.451 388.676 179.932 388.794 180.383C388.93 180.832 389.191 181.234 389.546 181.542C389.9 181.849 390.335 182.05 390.799 182.122C391.934 182.303 392.857 181.792 393.678 181.095C394.419 180.395 395.396 180 396.414 179.989C397.927 179.939 400.232 180.485 401.204 181.728C401.987 182.728 402.025 184.103 402.029 185.372C402.029 186.543 402.029 187.71 402.029 188.881C402.029 189.919 402.029 190.998 402.513 191.912C402.998 192.825 404.064 193.537 405.052 193.222C406.225 192.844 406.74 191.29 407.935 191.01C408.847 190.801 409.759 191.457 410.149 192.294Z" fill="black"/>
<path opacity="0.1" d="M421.632 188.441C421.377 189.16 420.972 189.816 420.444 190.366C418.908 192.217 417.37 194.067 415.831 195.916C413.89 198.254 411.832 200.959 411.983 203.941C412.123 201.205 414.027 198.716 415.831 196.545L420.444 190.998C420.971 190.447 421.376 189.79 421.632 189.07C421.746 188.574 421.787 188.063 421.753 187.555C421.749 187.854 421.708 188.152 421.632 188.441Z" fill="black"/>
<path opacity="0.1" d="M409.604 203.001C409.529 202.755 409.483 202.5 409.467 202.243C409.428 202.707 409.474 203.175 409.604 203.622C409.921 204.638 411.075 205.475 412.044 205.039C412.018 204.835 412.002 204.63 411.995 204.426C411.019 204.827 409.899 204.001 409.604 203.001Z" fill="black"/>
</g>
<path opacity="0.1" d="M363.163 399.21C363.163 399.21 364.624 401.782 369.913 399.517L363.163 399.21Z" fill="black"/>
<path opacity="0.1" d="M407.901 399.843C407.901 399.843 412.464 405.223 418.215 401.604L407.901 399.843Z" fill="black"/>
<path opacity="0.1" d="M421.185 336.204C421.185 336.204 417.958 338.223 417.856 339.379C417.754 340.534 419.521 338.538 419.521 338.538L421.185 336.204Z" fill="black"/>
<path opacity="0.1" d="M422.468 351.673C421.347 352.608 419.952 353.153 418.495 353.227C416.085 353.333 416.285 356.481 417.859 355.534C419.433 354.587 422.468 351.673 422.468 351.673Z" fill="black"/>
<path opacity="0.1" d="M423.07 353.693C423.07 353.693 421.522 361.308 420.266 359.838L423.07 353.693Z" fill="black"/>
<path d="M104.746 389.117C104.746 389.117 106.823 391.837 103.785 395.936C100.746 400.036 98.2414 403.514 99.2441 406.075C99.2441 406.075 103.826 398.445 107.568 398.339C111.31 398.232 108.851 393.705 104.746 389.117Z" fill="#00B0FF"/>
<path opacity="0.1" d="M104.745 389.117C104.927 389.379 105.07 389.666 105.169 389.969C108.809 394.251 110.75 398.248 107.25 398.35C103.992 398.441 100.061 404.279 99.1455 405.753C99.1764 405.866 99.213 405.977 99.2552 406.086C99.2552 406.086 103.837 398.456 107.579 398.35C111.321 398.244 108.851 393.705 104.745 389.117Z" fill="black"/>
<path d="M108.608 392.584C108.608 393.542 108.503 394.319 108.37 394.319C108.238 394.319 108.128 393.542 108.128 392.584C108.128 391.625 108.264 392.08 108.397 392.08C108.529 392.08 108.608 391.633 108.608 392.584Z" fill="#FFD037"/>
<path d="M109.937 393.728C109.097 394.186 108.363 394.463 108.298 394.349C108.234 394.235 108.866 393.766 109.706 393.307C110.546 392.849 110.213 393.182 110.277 393.307C110.342 393.432 110.777 393.269 109.937 393.728Z" fill="#FFD037"/>
<path d="M93.7651 389.117C93.7651 389.117 91.6879 391.837 94.7262 395.936C97.7645 400.036 100.269 403.514 99.2666 406.075C99.2666 406.075 94.6845 398.445 90.9425 398.339C87.2004 398.232 89.6636 393.705 93.7651 389.117Z" fill="#00B0FF"/>
<path opacity="0.1" d="M93.7655 389.117C93.5851 389.38 93.4425 389.667 93.3417 389.969C89.7019 394.251 87.7608 398.248 91.2607 398.35C94.5223 398.441 98.4497 404.279 99.3654 405.753C99.3362 405.866 99.2995 405.978 99.2556 406.086C99.2556 406.086 94.6736 398.456 90.9316 398.35C87.1895 398.244 89.664 393.705 93.7655 389.117Z" fill="black"/>
<path d="M89.9023 392.584C89.9023 393.542 90.0083 394.319 90.1407 394.319C90.2731 394.319 90.3829 393.542 90.3829 392.584C90.3829 391.625 90.2467 392.08 90.1142 392.08C89.9818 392.08 89.9023 391.633 89.9023 392.584Z" fill="#FFD037"/>
<path d="M88.578 393.728C89.4179 394.186 90.1482 394.463 90.2125 394.349C90.2768 394.235 89.6449 393.766 88.805 393.307C87.965 392.849 88.298 393.182 88.2336 393.307C88.1693 393.432 87.738 393.269 88.578 393.728Z" fill="#FFD037"/>
<path d="M90.5645 405.73C90.5645 405.73 96.3762 405.552 98.1318 404.302C99.8874 403.052 107.069 401.563 107.504 403.567C107.939 405.571 116.237 413.527 109.676 413.58C103.115 413.634 94.4314 412.558 92.6833 411.489C90.9352 410.421 90.5645 405.73 90.5645 405.73Z" fill="#A8A8A8"/>
<path opacity="0.2" d="M109.789 412.883C103.228 412.936 94.5449 411.86 92.7968 410.792C91.465 409.981 90.9353 407.068 90.7574 405.723H90.5645C90.5645 405.723 90.9428 410.417 92.6795 411.481C94.4162 412.546 103.111 413.626 109.672 413.573C111.564 413.573 112.222 412.883 112.184 411.883C111.923 412.493 111.201 412.872 109.789 412.883Z" fill="black"/>
</g>
<path d="M66.56 486.1C66.2 485.407 65.7 484.887 65.06 484.54C64.42 484.18 63.68 484 62.84 484C61.92 484 61.1 484.207 60.38 484.62C59.66 485.033 59.0933 485.62 58.68 486.38C58.28 487.14 58.08 488.02 58.08 489.02C58.08 490.02 58.28 490.907 58.68 491.68C59.0933 492.44 59.66 493.027 60.38 493.44C61.1 493.853 61.92 494.06 62.84 494.06C64.08 494.06 65.0867 493.713 65.86 493.02C66.6333 492.327 67.1067 491.387 67.28 490.2H62.06V488.38H69.72V490.16C69.5733 491.24 69.1867 492.233 68.56 493.14C67.9467 494.047 67.14 494.773 66.14 495.32C65.1533 495.853 64.0533 496.12 62.84 496.12C61.5333 496.12 60.34 495.82 59.26 495.22C58.18 494.607 57.32 493.76 56.68 492.68C56.0533 491.6 55.74 490.38 55.74 489.02C55.74 487.66 56.0533 486.44 56.68 485.36C57.32 484.28 58.18 483.44 59.26 482.84C60.3533 482.227 61.5467 481.92 62.84 481.92C64.32 481.92 65.6333 482.287 66.78 483.02C67.94 483.74 68.78 484.767 69.3 486.1H66.56ZM82.0688 490.22C82.0688 490.633 82.0421 491.007 81.9888 491.34H73.5688C73.6354 492.22 73.9621 492.927 74.5488 493.46C75.1354 493.993 75.8554 494.26 76.7088 494.26C77.9354 494.26 78.8021 493.747 79.3088 492.72H81.7687C81.4354 493.733 80.8288 494.567 79.9488 495.22C79.0821 495.86 78.0021 496.18 76.7088 496.18C75.6554 496.18 74.7088 495.947 73.8688 495.48C73.0421 495 72.3888 494.333 71.9088 493.48C71.4421 492.613 71.2088 491.613 71.2088 490.48C71.2088 489.347 71.4354 488.353 71.8888 487.5C72.3554 486.633 73.0021 485.967 73.8288 485.5C74.6688 485.033 75.6288 484.8 76.7088 484.8C77.7488 484.8 78.6754 485.027 79.4888 485.48C80.3021 485.933 80.9354 486.573 81.3888 487.4C81.8421 488.213 82.0688 489.153 82.0688 490.22ZM79.6888 489.5C79.6754 488.66 79.3754 487.987 78.7888 487.48C78.2021 486.973 77.4754 486.72 76.6088 486.72C75.8221 486.72 75.1488 486.973 74.5888 487.48C74.0288 487.973 73.6954 488.647 73.5888 489.5H79.6888ZM89.8725 484.8C90.7392 484.8 91.5125 484.98 92.1925 485.34C92.8858 485.7 93.4258 486.233 93.8125 486.94C94.1992 487.647 94.3925 488.5 94.3925 489.5V496H92.1325V489.84C92.1325 488.853 91.8858 488.1 91.3925 487.58C90.8992 487.047 90.2258 486.78 89.3725 486.78C88.5192 486.78 87.8392 487.047 87.3325 487.58C86.8392 488.1 86.5925 488.853 86.5925 489.84V496H84.3125V484.98H86.5925V486.24C86.9658 485.787 87.4392 485.433 88.0125 485.18C88.5992 484.927 89.2192 484.8 89.8725 484.8ZM107.401 490.22C107.401 490.633 107.374 491.007 107.321 491.34H98.9008C98.9674 492.22 99.2941 492.927 99.8808 493.46C100.467 493.993 101.187 494.26 102.041 494.26C103.267 494.26 104.134 493.747 104.641 492.72H107.101C106.767 493.733 106.161 494.567 105.281 495.22C104.414 495.86 103.334 496.18 102.041 496.18C100.987 496.18 100.041 495.947 99.2008 495.48C98.3741 495 97.7208 494.333 97.2408 493.48C96.7741 492.613 96.5408 491.613 96.5408 490.48C96.5408 489.347 96.7674 488.353 97.2208 487.5C97.6874 486.633 98.3341 485.967 99.1608 485.5C100.001 485.033 100.961 484.8 102.041 484.8C103.081 484.8 104.007 485.027 104.821 485.48C105.634 485.933 106.267 486.573 106.721 487.4C107.174 488.213 107.401 489.153 107.401 490.22ZM105.021 489.5C105.007 488.66 104.707 487.987 104.121 487.48C103.534 486.973 102.807 486.72 101.941 486.72C101.154 486.72 100.481 486.973 99.9208 487.48C99.3608 487.973 99.0274 488.647 98.9208 489.5H105.021ZM111.925 486.58C112.258 486.02 112.698 485.587 113.245 485.28C113.805 484.96 114.465 484.8 115.225 484.8V487.16H114.645C113.751 487.16 113.071 487.387 112.605 487.84C112.151 488.293 111.925 489.08 111.925 490.2V496H109.645V484.98H111.925V486.58ZM116.56 490.44C116.56 489.333 116.787 488.353 117.24 487.5C117.707 486.647 118.334 485.987 119.12 485.52C119.92 485.04 120.8 484.8 121.76 484.8C122.627 484.8 123.38 484.973 124.02 485.32C124.674 485.653 125.194 486.073 125.58 486.58V484.98H127.88V496H125.58V494.36C125.194 494.88 124.667 495.313 124 495.66C123.334 496.007 122.574 496.18 121.72 496.18C120.774 496.18 119.907 495.94 119.12 495.46C118.334 494.967 117.707 494.287 117.24 493.42C116.787 492.54 116.56 491.547 116.56 490.44ZM125.58 490.48C125.58 489.72 125.42 489.06 125.1 488.5C124.794 487.94 124.387 487.513 123.88 487.22C123.374 486.927 122.827 486.78 122.24 486.78C121.654 486.78 121.107 486.927 120.6 487.22C120.094 487.5 119.68 487.92 119.36 488.48C119.054 489.027 118.9 489.68 118.9 490.44C118.9 491.2 119.054 491.867 119.36 492.44C119.68 493.013 120.094 493.453 120.6 493.76C121.12 494.053 121.667 494.2 122.24 494.2C122.827 494.2 123.374 494.053 123.88 493.76C124.387 493.467 124.794 493.04 125.1 492.48C125.42 491.907 125.58 491.24 125.58 490.48ZM133.535 486.84V492.94C133.535 493.353 133.628 493.653 133.815 493.84C134.015 494.013 134.348 494.1 134.815 494.1H136.215V496H134.415C133.388 496 132.602 495.76 132.055 495.28C131.508 494.8 131.235 494.02 131.235 492.94V486.84H129.935V484.98H131.235V482.24H133.535V484.98H136.215V486.84H133.535ZM148.416 490.22C148.416 490.633 148.39 491.007 148.336 491.34H139.916C139.983 492.22 140.31 492.927 140.896 493.46C141.483 493.993 142.203 494.26 143.056 494.26C144.283 494.26 145.15 493.747 145.656 492.72H148.116C147.783 493.733 147.176 494.567 146.296 495.22C145.43 495.86 144.35 496.18 143.056 496.18C142.003 496.18 141.056 495.947 140.216 495.48C139.39 495 138.736 494.333 138.256 493.48C137.79 492.613 137.556 491.613 137.556 490.48C137.556 489.347 137.783 488.353 138.236 487.5C138.703 486.633 139.35 485.967 140.176 485.5C141.016 485.033 141.976 484.8 143.056 484.8C144.096 484.8 145.023 485.027 145.836 485.48C146.65 485.933 147.283 486.573 147.736 487.4C148.19 488.213 148.416 489.153 148.416 490.22ZM146.036 489.5C146.023 488.66 145.723 487.987 145.136 487.48C144.55 486.973 143.823 486.72 142.956 486.72C142.17 486.72 141.496 486.973 140.936 487.48C140.376 487.973 140.043 488.647 139.936 489.5H146.036ZM166.595 496L164.875 494.28C164.209 494.947 163.482 495.447 162.695 495.78C161.909 496.1 161.029 496.26 160.055 496.26C159.069 496.26 158.195 496.087 157.435 495.74C156.675 495.393 156.089 494.9 155.675 494.26C155.262 493.607 155.055 492.853 155.055 492C155.055 491.04 155.329 490.187 155.875 489.44C156.422 488.68 157.235 488.08 158.315 487.64C157.929 487.173 157.655 486.74 157.495 486.34C157.335 485.927 157.255 485.473 157.255 484.98C157.255 484.367 157.409 483.82 157.715 483.34C158.035 482.86 158.489 482.48 159.075 482.2C159.662 481.92 160.342 481.78 161.115 481.78C161.902 481.78 162.569 481.933 163.115 482.24C163.675 482.533 164.089 482.94 164.355 483.46C164.635 483.98 164.749 484.56 164.695 485.2H162.415C162.429 484.707 162.309 484.327 162.055 484.06C161.802 483.78 161.455 483.64 161.015 483.64C160.575 483.64 160.215 483.773 159.935 484.04C159.669 484.293 159.535 484.607 159.535 484.98C159.535 485.34 159.635 485.7 159.835 486.06C160.049 486.407 160.415 486.86 160.935 487.42L164.615 491.08L166.035 488.74H168.495L166.695 491.82L166.195 492.64L169.575 496H166.595ZM160.055 494.32C161.309 494.32 162.415 493.807 163.375 492.78L159.695 489.08C158.122 489.707 157.335 490.653 157.335 491.92C157.335 492.6 157.589 493.173 158.095 493.64C158.602 494.093 159.255 494.32 160.055 494.32ZM180.846 496.14C179.912 496.14 179.072 495.98 178.326 495.66C177.579 495.327 176.992 494.86 176.566 494.26C176.139 493.66 175.926 492.96 175.926 492.16H178.366C178.419 492.76 178.652 493.253 179.066 493.64C179.492 494.027 180.086 494.22 180.846 494.22C181.632 494.22 182.246 494.033 182.686 493.66C183.126 493.273 183.346 492.78 183.346 492.18C183.346 491.713 183.206 491.333 182.926 491.04C182.659 490.747 182.319 490.52 181.906 490.36C181.506 490.2 180.946 490.027 180.226 489.84C179.319 489.6 178.579 489.36 178.006 489.12C177.446 488.867 176.966 488.48 176.566 487.96C176.166 487.44 175.966 486.747 175.966 485.88C175.966 485.08 176.166 484.38 176.566 483.78C176.966 483.18 177.526 482.72 178.246 482.4C178.966 482.08 179.799 481.92 180.746 481.92C182.092 481.92 183.192 482.26 184.046 482.94C184.912 483.607 185.392 484.527 185.486 485.7H182.966C182.926 485.193 182.686 484.76 182.246 484.4C181.806 484.04 181.226 483.86 180.506 483.86C179.852 483.86 179.319 484.027 178.906 484.36C178.492 484.693 178.286 485.173 178.286 485.8C178.286 486.227 178.412 486.58 178.666 486.86C178.932 487.127 179.266 487.34 179.666 487.5C180.066 487.66 180.612 487.833 181.306 488.02C182.226 488.273 182.972 488.527 183.546 488.78C184.132 489.033 184.626 489.427 185.026 489.96C185.439 490.48 185.646 491.18 185.646 492.06C185.646 492.767 185.452 493.433 185.066 494.06C184.692 494.687 184.139 495.193 183.406 495.58C182.686 495.953 181.832 496.14 180.846 496.14ZM187.576 490.48C187.576 489.347 187.803 488.353 188.256 487.5C188.723 486.633 189.363 485.967 190.176 485.5C190.989 485.033 191.923 484.8 192.976 484.8C194.309 484.8 195.409 485.12 196.276 485.76C197.156 486.387 197.749 487.287 198.056 488.46H195.596C195.396 487.913 195.076 487.487 194.636 487.18C194.196 486.873 193.643 486.72 192.976 486.72C192.043 486.72 191.296 487.053 190.736 487.72C190.189 488.373 189.916 489.293 189.916 490.48C189.916 491.667 190.189 492.593 190.736 493.26C191.296 493.927 192.043 494.26 192.976 494.26C194.296 494.26 195.169 493.68 195.596 492.52H198.056C197.736 493.64 197.136 494.533 196.256 495.2C195.376 495.853 194.283 496.18 192.976 496.18C191.923 496.18 190.989 495.947 190.176 495.48C189.363 495 188.723 494.333 188.256 493.48C187.803 492.613 187.576 491.613 187.576 490.48ZM206.028 484.8C206.868 484.8 207.615 484.98 208.268 485.34C208.935 485.7 209.455 486.233 209.828 486.94C210.215 487.647 210.408 488.5 210.408 489.5V496H208.148V489.84C208.148 488.853 207.901 488.1 207.408 487.58C206.915 487.047 206.241 486.78 205.388 486.78C204.535 486.78 203.855 487.047 203.348 487.58C202.855 488.1 202.608 488.853 202.608 489.84V496H200.328V481.2H202.608V486.26C202.995 485.793 203.481 485.433 204.068 485.18C204.668 484.927 205.321 484.8 206.028 484.8ZM223.416 490.22C223.416 490.633 223.39 491.007 223.336 491.34H214.916C214.983 492.22 215.31 492.927 215.896 493.46C216.483 493.993 217.203 494.26 218.056 494.26C219.283 494.26 220.15 493.747 220.656 492.72H223.116C222.783 493.733 222.176 494.567 221.296 495.22C220.43 495.86 219.35 496.18 218.056 496.18C217.003 496.18 216.056 495.947 215.216 495.48C214.39 495 213.736 494.333 213.256 493.48C212.79 492.613 212.556 491.613 212.556 490.48C212.556 489.347 212.783 488.353 213.236 487.5C213.703 486.633 214.35 485.967 215.176 485.5C216.016 485.033 216.976 484.8 218.056 484.8C219.096 484.8 220.023 485.027 220.836 485.48C221.65 485.933 222.283 486.573 222.736 487.4C223.19 488.213 223.416 489.153 223.416 490.22ZM221.036 489.5C221.023 488.66 220.723 487.987 220.136 487.48C219.55 486.973 218.823 486.72 217.956 486.72C217.17 486.72 216.496 486.973 215.936 487.48C215.376 487.973 215.043 488.647 214.936 489.5H221.036ZM224.9 490.44C224.9 489.333 225.127 488.353 225.58 487.5C226.047 486.647 226.673 485.987 227.46 485.52C228.26 485.04 229.147 484.8 230.12 484.8C230.84 484.8 231.547 484.96 232.24 485.28C232.947 485.587 233.507 486 233.92 486.52V481.2H236.22V496H233.92V494.34C233.547 494.873 233.027 495.313 232.36 495.66C231.707 496.007 230.953 496.18 230.1 496.18C229.14 496.18 228.26 495.94 227.46 495.46C226.673 494.967 226.047 494.287 225.58 493.42C225.127 492.54 224.9 491.547 224.9 490.44ZM233.92 490.48C233.92 489.72 233.76 489.06 233.44 488.5C233.133 487.94 232.727 487.513 232.22 487.22C231.713 486.927 231.167 486.78 230.58 486.78C229.993 486.78 229.447 486.927 228.94 487.22C228.433 487.5 228.02 487.92 227.7 488.48C227.393 489.027 227.24 489.68 227.24 490.44C227.24 491.2 227.393 491.867 227.7 492.44C228.02 493.013 228.433 493.453 228.94 493.76C229.46 494.053 230.007 494.2 230.58 494.2C231.167 494.2 231.713 494.053 232.22 493.76C232.727 493.467 233.133 493.04 233.44 492.48C233.76 491.907 233.92 491.24 233.92 490.48ZM249.195 484.98V496H246.915V494.7C246.555 495.153 246.082 495.513 245.495 495.78C244.922 496.033 244.308 496.16 243.655 496.16C242.788 496.16 242.008 495.98 241.315 495.62C240.635 495.26 240.095 494.727 239.695 494.02C239.308 493.313 239.115 492.46 239.115 491.46V484.98H241.375V491.12C241.375 492.107 241.622 492.867 242.115 493.4C242.608 493.92 243.282 494.18 244.135 494.18C244.988 494.18 245.662 493.92 246.155 493.4C246.662 492.867 246.915 492.107 246.915 491.12V484.98H249.195ZM254.483 481.2V496H252.203V481.2H254.483ZM267.577 490.22C267.577 490.633 267.55 491.007 267.497 491.34H259.077C259.143 492.22 259.47 492.927 260.057 493.46C260.643 493.993 261.363 494.26 262.217 494.26C263.443 494.26 264.31 493.747 264.817 492.72H267.277C266.943 493.733 266.337 494.567 265.457 495.22C264.59 495.86 263.51 496.18 262.217 496.18C261.163 496.18 260.217 495.947 259.377 495.48C258.55 495 257.897 494.333 257.417 493.48C256.95 492.613 256.717 491.613 256.717 490.48C256.717 489.347 256.943 488.353 257.397 487.5C257.863 486.633 258.51 485.967 259.337 485.5C260.177 485.033 261.137 484.8 262.217 484.8C263.257 484.8 264.183 485.027 264.997 485.48C265.81 485.933 266.443 486.573 266.897 487.4C267.35 488.213 267.577 489.153 267.577 490.22ZM265.197 489.5C265.183 488.66 264.883 487.987 264.297 487.48C263.71 486.973 262.983 486.72 262.117 486.72C261.33 486.72 260.657 486.973 260.097 487.48C259.537 487.973 259.203 488.647 259.097 489.5H265.197ZM277.296 486.58C277.629 486.02 278.069 485.587 278.616 485.28C279.176 484.96 279.836 484.8 280.596 484.8V487.16H280.016C279.122 487.16 278.442 487.387 277.976 487.84C277.522 488.293 277.296 489.08 277.296 490.2V496H275.016V484.98H277.296V486.58ZM292.791 490.22C292.791 490.633 292.765 491.007 292.711 491.34H284.291C284.358 492.22 284.685 492.927 285.271 493.46C285.858 493.993 286.578 494.26 287.431 494.26C288.658 494.26 289.525 493.747 290.031 492.72H292.491C292.158 493.733 291.551 494.567 290.671 495.22C289.805 495.86 288.725 496.18 287.431 496.18C286.378 496.18 285.431 495.947 284.591 495.48C283.765 495 283.111 494.333 282.631 493.48C282.165 492.613 281.931 491.613 281.931 490.48C281.931 489.347 282.158 488.353 282.611 487.5C283.078 486.633 283.725 485.967 284.551 485.5C285.391 485.033 286.351 484.8 287.431 484.8C288.471 484.8 289.398 485.027 290.211 485.48C291.025 485.933 291.658 486.573 292.111 487.4C292.565 488.213 292.791 489.153 292.791 490.22ZM290.411 489.5C290.398 488.66 290.098 487.987 289.511 487.48C288.925 486.973 288.198 486.72 287.331 486.72C286.545 486.72 285.871 486.973 285.311 487.48C284.751 487.973 284.418 488.647 284.311 489.5H290.411ZM297.315 486.6C297.702 486.093 298.228 485.667 298.895 485.32C299.562 484.973 300.315 484.8 301.155 484.8C302.115 484.8 302.988 485.04 303.775 485.52C304.575 485.987 305.202 486.647 305.655 487.5C306.108 488.353 306.335 489.333 306.335 490.44C306.335 491.547 306.108 492.54 305.655 493.42C305.202 494.287 304.575 494.967 303.775 495.46C302.988 495.94 302.115 496.18 301.155 496.18C300.315 496.18 299.568 496.013 298.915 495.68C298.262 495.333 297.728 494.907 297.315 494.4V501.24H295.035V484.98H297.315V486.6ZM304.015 490.44C304.015 489.68 303.855 489.027 303.535 488.48C303.228 487.92 302.815 487.5 302.295 487.22C301.788 486.927 301.242 486.78 300.655 486.78C300.082 486.78 299.535 486.927 299.015 487.22C298.508 487.513 298.095 487.94 297.775 488.5C297.468 489.06 297.315 489.72 297.315 490.48C297.315 491.24 297.468 491.907 297.775 492.48C298.095 493.04 298.508 493.467 299.015 493.76C299.535 494.053 300.082 494.2 300.655 494.2C301.242 494.2 301.788 494.053 302.295 493.76C302.815 493.453 303.228 493.013 303.535 492.44C303.855 491.867 304.015 491.2 304.015 490.44ZM313.37 496.18C312.33 496.18 311.39 495.947 310.55 495.48C309.71 495 309.05 494.333 308.57 493.48C308.09 492.613 307.85 491.613 307.85 490.48C307.85 489.36 308.097 488.367 308.59 487.5C309.083 486.633 309.757 485.967 310.61 485.5C311.463 485.033 312.417 484.8 313.47 484.8C314.523 484.8 315.477 485.033 316.33 485.5C317.183 485.967 317.857 486.633 318.35 487.5C318.843 488.367 319.09 489.36 319.09 490.48C319.09 491.6 318.837 492.593 318.33 493.46C317.823 494.327 317.13 495 316.25 495.48C315.383 495.947 314.423 496.18 313.37 496.18ZM313.37 494.2C313.957 494.2 314.503 494.06 315.01 493.78C315.53 493.5 315.95 493.08 316.27 492.52C316.59 491.96 316.75 491.28 316.75 490.48C316.75 489.68 316.597 489.007 316.29 488.46C315.983 487.9 315.577 487.48 315.07 487.2C314.563 486.92 314.017 486.78 313.43 486.78C312.843 486.78 312.297 486.92 311.79 487.2C311.297 487.48 310.903 487.9 310.61 488.46C310.317 489.007 310.17 489.68 310.17 490.48C310.17 491.667 310.47 492.587 311.07 493.24C311.683 493.88 312.45 494.2 313.37 494.2ZM323.624 486.58C323.957 486.02 324.397 485.587 324.944 485.28C325.504 484.96 326.164 484.8 326.924 484.8V487.16H326.344C325.45 487.16 324.77 487.387 324.304 487.84C323.85 488.293 323.624 489.08 323.624 490.2V496H321.344V484.98H323.624V486.58ZM331.68 486.84V492.94C331.68 493.353 331.773 493.653 331.96 493.84C332.16 494.013 332.493 494.1 332.96 494.1H334.36V496H332.56C331.533 496 330.746 495.76 330.2 495.28C329.653 494.8 329.38 494.02 329.38 492.94V486.84H328.08V484.98H329.38V482.24H331.68V484.98H334.36V486.84H331.68ZM340.461 496.18C339.594 496.18 338.814 496.027 338.121 495.72C337.441 495.4 336.901 494.973 336.501 494.44C336.101 493.893 335.888 493.287 335.861 492.62H338.221C338.261 493.087 338.481 493.48 338.881 493.8C339.294 494.107 339.808 494.26 340.421 494.26C341.061 494.26 341.554 494.14 341.901 493.9C342.261 493.647 342.441 493.327 342.441 492.94C342.441 492.527 342.241 492.22 341.841 492.02C341.454 491.82 340.834 491.6 339.981 491.36C339.154 491.133 338.481 490.913 337.961 490.7C337.441 490.487 336.988 490.16 336.601 489.72C336.228 489.28 336.041 488.7 336.041 487.98C336.041 487.393 336.214 486.86 336.561 486.38C336.908 485.887 337.401 485.5 338.041 485.22C338.694 484.94 339.441 484.8 340.281 484.8C341.534 484.8 342.541 485.12 343.301 485.76C344.074 486.387 344.488 487.247 344.541 488.34H342.261C342.221 487.847 342.021 487.453 341.661 487.16C341.301 486.867 340.814 486.72 340.201 486.72C339.601 486.72 339.141 486.833 338.821 487.06C338.501 487.287 338.341 487.587 338.341 487.96C338.341 488.253 338.448 488.5 338.661 488.7C338.874 488.9 339.134 489.06 339.441 489.18C339.748 489.287 340.201 489.427 340.801 489.6C341.601 489.813 342.254 490.033 342.761 490.26C343.281 490.473 343.728 490.793 344.101 491.22C344.474 491.647 344.668 492.213 344.681 492.92C344.681 493.547 344.508 494.107 344.161 494.6C343.814 495.093 343.321 495.48 342.681 495.76C342.054 496.04 341.314 496.18 340.461 496.18ZM362.44 490.22C362.44 490.633 362.413 491.007 362.36 491.34H353.94C354.007 492.22 354.333 492.927 354.92 493.46C355.507 493.993 356.227 494.26 357.08 494.26C358.307 494.26 359.173 493.747 359.68 492.72H362.14C361.807 493.733 361.2 494.567 360.32 495.22C359.453 495.86 358.373 496.18 357.08 496.18C356.027 496.18 355.08 495.947 354.24 495.48C353.413 495 352.76 494.333 352.28 493.48C351.813 492.613 351.58 491.613 351.58 490.48C351.58 489.347 351.807 488.353 352.26 487.5C352.727 486.633 353.373 485.967 354.2 485.5C355.04 485.033 356 484.8 357.08 484.8C358.12 484.8 359.047 485.027 359.86 485.48C360.673 485.933 361.307 486.573 361.76 487.4C362.213 488.213 362.44 489.153 362.44 490.22ZM360.06 489.5C360.047 488.66 359.747 487.987 359.16 487.48C358.573 486.973 357.847 486.72 356.98 486.72C356.193 486.72 355.52 486.973 354.96 487.48C354.4 487.973 354.067 488.647 353.96 489.5H360.06ZM369.304 486.84H367.264V496H364.964V486.84H363.664V484.98H364.964V484.2C364.964 482.933 365.297 482.013 365.964 481.44C366.644 480.853 367.704 480.56 369.144 480.56V482.46C368.45 482.46 367.964 482.593 367.684 482.86C367.404 483.113 367.264 483.56 367.264 484.2V484.98H369.304V486.84ZM375.944 486.84H373.904V496H371.604V486.84H370.304V484.98H371.604V484.2C371.604 482.933 371.938 482.013 372.604 481.44C373.284 480.853 374.344 480.56 375.784 480.56V482.46C375.091 482.46 374.604 482.593 374.324 482.86C374.044 483.113 373.904 483.56 373.904 484.2V484.98H375.944V486.84ZM379.125 483.52C378.712 483.52 378.365 483.38 378.085 483.1C377.805 482.82 377.665 482.473 377.665 482.06C377.665 481.647 377.805 481.3 378.085 481.02C378.365 480.74 378.712 480.6 379.125 480.6C379.525 480.6 379.865 480.74 380.145 481.02C380.425 481.3 380.565 481.647 380.565 482.06C380.565 482.473 380.425 482.82 380.145 483.1C379.865 483.38 379.525 483.52 379.125 483.52ZM380.245 484.98V496H377.965V484.98H380.245ZM382.478 490.48C382.478 489.347 382.705 488.353 383.158 487.5C383.625 486.633 384.265 485.967 385.078 485.5C385.892 485.033 386.825 484.8 387.878 484.8C389.212 484.8 390.312 485.12 391.178 485.76C392.058 486.387 392.652 487.287 392.958 488.46H390.498C390.298 487.913 389.978 487.487 389.538 487.18C389.098 486.873 388.545 486.72 387.878 486.72C386.945 486.72 386.198 487.053 385.638 487.72C385.092 488.373 384.818 489.293 384.818 490.48C384.818 491.667 385.092 492.593 385.638 493.26C386.198 493.927 386.945 494.26 387.878 494.26C389.198 494.26 390.072 493.68 390.498 492.52H392.958C392.638 493.64 392.038 494.533 391.158 495.2C390.278 495.853 389.185 496.18 387.878 496.18C386.825 496.18 385.892 495.947 385.078 495.48C384.265 495 383.625 494.333 383.158 493.48C382.705 492.613 382.478 491.613 382.478 490.48ZM396.39 483.52C395.977 483.52 395.63 483.38 395.35 483.1C395.07 482.82 394.93 482.473 394.93 482.06C394.93 481.647 395.07 481.3 395.35 481.02C395.63 480.74 395.977 480.6 396.39 480.6C396.79 480.6 397.13 480.74 397.41 481.02C397.69 481.3 397.83 481.647 397.83 482.06C397.83 482.473 397.69 482.82 397.41 483.1C397.13 483.38 396.79 483.52 396.39 483.52ZM397.51 484.98V496H395.23V484.98H397.51ZM410.604 490.22C410.604 490.633 410.577 491.007 410.524 491.34H402.104C402.171 492.22 402.497 492.927 403.084 493.46C403.671 493.993 404.391 494.26 405.244 494.26C406.471 494.26 407.337 493.747 407.844 492.72H410.304C409.971 493.733 409.364 494.567 408.484 495.22C407.617 495.86 406.537 496.18 405.244 496.18C404.191 496.18 403.244 495.947 402.404 495.48C401.577 495 400.924 494.333 400.444 493.48C399.977 492.613 399.744 491.613 399.744 490.48C399.744 489.347 399.971 488.353 400.424 487.5C400.891 486.633 401.537 485.967 402.364 485.5C403.204 485.033 404.164 484.8 405.244 484.8C406.284 484.8 407.211 485.027 408.024 485.48C408.837 485.933 409.471 486.573 409.924 487.4C410.377 488.213 410.604 489.153 410.604 490.22ZM408.224 489.5C408.211 488.66 407.911 487.987 407.324 487.48C406.737 486.973 406.011 486.72 405.144 486.72C404.357 486.72 403.684 486.973 403.124 487.48C402.564 487.973 402.231 488.647 402.124 489.5H408.224ZM418.408 484.8C419.274 484.8 420.048 484.98 420.728 485.34C421.421 485.7 421.961 486.233 422.348 486.94C422.734 487.647 422.928 488.5 422.928 489.5V496H420.668V489.84C420.668 488.853 420.421 488.1 419.928 487.58C419.434 487.047 418.761 486.78 417.908 486.78C417.054 486.78 416.374 487.047 415.868 487.58C415.374 488.1 415.128 488.853 415.128 489.84V496H412.848V484.98H415.128V486.24C415.501 485.787 415.974 485.433 416.548 485.18C417.134 484.927 417.754 484.8 418.408 484.8ZM428.496 486.84V492.94C428.496 493.353 428.589 493.653 428.776 493.84C428.976 494.013 429.309 494.1 429.776 494.1H431.176V496H429.376C428.349 496 427.563 495.76 427.016 495.28C426.469 494.8 426.196 494.02 426.196 492.94V486.84H424.896V484.98H426.196V482.24H428.496V484.98H431.176V486.84H428.496ZM435.557 481.2V496H433.277V481.2H435.557ZM448.471 484.98L441.711 501.18H439.351L441.591 495.82L437.251 484.98H439.791L442.891 493.38L446.111 484.98H448.471ZM451.111 496.14C450.698 496.14 450.351 496 450.071 495.72C449.791 495.44 449.651 495.093 449.651 494.68C449.651 494.267 449.791 493.92 450.071 493.64C450.351 493.36 450.698 493.22 451.111 493.22C451.511 493.22 451.851 493.36 452.131 493.64C452.411 493.92 452.551 494.267 452.551 494.68C452.551 495.093 452.411 495.44 452.131 495.72C451.851 496 451.511 496.14 451.111 496.14Z" fill="#1EAAE7"/>
<path d="M56.188 529.328C56.188 526.832 56.728 524.612 57.808 522.668C58.888 520.7 60.388 519.176 62.308 518.096C64.252 516.992 66.448 516.44 68.896 516.44C71.896 516.44 74.464 517.232 76.6 518.816C78.736 520.4 80.164 522.56 80.884 525.296H74.116C73.612 524.24 72.892 523.436 71.956 522.884C71.044 522.332 70 522.056 68.824 522.056C66.928 522.056 65.392 522.716 64.216 524.036C63.04 525.356 62.452 527.12 62.452 529.328C62.452 531.536 63.04 533.3 64.216 534.62C65.392 535.94 66.928 536.6 68.824 536.6C70 536.6 71.044 536.324 71.956 535.772C72.892 535.22 73.612 534.416 74.116 533.36H80.884C80.164 536.096 78.736 538.256 76.6 539.84C74.464 541.4 71.896 542.18 68.896 542.18C66.448 542.18 64.252 541.64 62.308 540.56C60.388 539.456 58.888 537.932 57.808 535.988C56.728 534.044 56.188 531.824 56.188 529.328ZM93.7979 542.288C91.8299 542.288 90.0539 541.868 88.4699 541.028C86.9099 540.188 85.6739 538.988 84.7619 537.428C83.8739 535.868 83.4299 534.044 83.4299 531.956C83.4299 529.892 83.8859 528.08 84.7979 526.52C85.7099 524.936 86.9579 523.724 88.5419 522.884C90.1259 522.044 91.9019 521.624 93.8699 521.624C95.8379 521.624 97.6139 522.044 99.1979 522.884C100.782 523.724 102.03 524.936 102.942 526.52C103.854 528.08 104.31 529.892 104.31 531.956C104.31 534.02 103.842 535.844 102.906 537.428C101.994 538.988 100.734 540.188 99.1259 541.028C97.5419 541.868 95.7659 542.288 93.7979 542.288ZM93.7979 536.96C94.9739 536.96 95.9699 536.528 96.7859 535.664C97.6259 534.8 98.0459 533.564 98.0459 531.956C98.0459 530.348 97.6379 529.112 96.8219 528.248C96.0299 527.384 95.0459 526.952 93.8699 526.952C92.6699 526.952 91.6739 527.384 90.8819 528.248C90.0899 529.088 89.6939 530.324 89.6939 531.956C89.6939 533.564 90.0779 534.8 90.8459 535.664C91.6379 536.528 92.6219 536.96 93.7979 536.96ZM133.208 521.696C135.704 521.696 137.684 522.452 139.148 523.964C140.636 525.476 141.38 527.576 141.38 530.264V542H135.26V531.092C135.26 529.796 134.912 528.8 134.216 528.104C133.544 527.384 132.608 527.024 131.408 527.024C130.208 527.024 129.26 527.384 128.564 528.104C127.892 528.8 127.556 529.796 127.556 531.092V542H121.436V531.092C121.436 529.796 121.088 528.8 120.392 528.104C119.72 527.384 118.784 527.024 117.584 527.024C116.384 527.024 115.436 527.384 114.74 528.104C114.068 528.8 113.732 529.796 113.732 531.092V542H107.576V521.912H113.732V524.432C114.356 523.592 115.172 522.932 116.18 522.452C117.188 521.948 118.328 521.696 119.6 521.696C121.112 521.696 122.456 522.02 123.632 522.668C124.832 523.316 125.768 524.24 126.44 525.44C127.136 524.336 128.084 523.436 129.284 522.74C130.484 522.044 131.792 521.696 133.208 521.696ZM148.781 519.824C147.701 519.824 146.813 519.512 146.117 518.888C145.445 518.24 145.109 517.448 145.109 516.512C145.109 515.552 145.445 514.76 146.117 514.136C146.813 513.488 147.701 513.164 148.781 513.164C149.837 513.164 150.701 513.488 151.373 514.136C152.069 514.76 152.417 515.552 152.417 516.512C152.417 517.448 152.069 518.24 151.373 518.888C150.701 519.512 149.837 519.824 148.781 519.824ZM151.841 521.912V542H145.685V521.912H151.841ZM168.542 521.696C170.894 521.696 172.766 522.464 174.158 524C175.574 525.512 176.282 527.6 176.282 530.264V542H170.162V531.092C170.162 529.748 169.814 528.704 169.118 527.96C168.422 527.216 167.486 526.844 166.31 526.844C165.134 526.844 164.198 527.216 163.502 527.96C162.806 528.704 162.458 529.748 162.458 531.092V542H156.302V521.912H162.458V524.576C163.082 523.688 163.922 522.992 164.978 522.488C166.034 521.96 167.222 521.696 168.542 521.696ZM188.192 521.624C189.608 521.624 190.844 521.912 191.9 522.488C192.98 523.064 193.808 523.82 194.384 524.756V521.912H200.54V541.964C200.54 543.812 200.168 545.48 199.424 546.968C198.704 548.48 197.588 549.68 196.076 550.568C194.588 551.456 192.728 551.9 190.496 551.9C187.52 551.9 185.108 551.192 183.26 549.776C181.412 548.384 180.356 546.488 180.092 544.088H186.176C186.368 544.856 186.824 545.456 187.544 545.888C188.264 546.344 189.152 546.572 190.208 546.572C191.48 546.572 192.488 546.2 193.232 545.456C194 544.736 194.384 543.572 194.384 541.964V539.12C193.784 540.056 192.956 540.824 191.9 541.424C190.844 542 189.608 542.288 188.192 542.288C186.536 542.288 185.036 541.868 183.692 541.028C182.348 540.164 181.28 538.952 180.488 537.392C179.72 535.808 179.336 533.984 179.336 531.92C179.336 529.856 179.72 528.044 180.488 526.484C181.28 524.924 182.348 523.724 183.692 522.884C185.036 522.044 186.536 521.624 188.192 521.624ZM194.384 531.956C194.384 530.42 193.952 529.208 193.088 528.32C192.248 527.432 191.216 526.988 189.992 526.988C188.768 526.988 187.724 527.432 186.86 528.32C186.02 529.184 185.6 530.384 185.6 531.92C185.6 533.456 186.02 534.68 186.86 535.592C187.724 536.48 188.768 536.924 189.992 536.924C191.216 536.924 192.248 536.48 193.088 535.592C193.952 534.704 194.384 533.492 194.384 531.956ZM221.767 542.252C219.919 542.252 218.263 541.952 216.799 541.352C215.335 540.752 214.159 539.864 213.271 538.688C212.407 537.512 211.951 536.096 211.903 534.44H218.455C218.551 535.376 218.875 536.096 219.427 536.6C219.979 537.08 220.699 537.32 221.587 537.32C222.499 537.32 223.219 537.116 223.747 536.708C224.275 536.276 224.539 535.688 224.539 534.944C224.539 534.32 224.323 533.804 223.891 533.396C223.483 532.988 222.967 532.652 222.343 532.388C221.743 532.124 220.879 531.824 219.751 531.488C218.119 530.984 216.787 530.48 215.755 529.976C214.723 529.472 213.835 528.728 213.091 527.744C212.347 526.76 211.975 525.476 211.975 523.892C211.975 521.54 212.827 519.704 214.531 518.384C216.235 517.04 218.455 516.368 221.191 516.368C223.975 516.368 226.219 517.04 227.923 518.384C229.627 519.704 230.539 521.552 230.659 523.928H223.999C223.951 523.112 223.651 522.476 223.099 522.02C222.547 521.54 221.839 521.3 220.975 521.3C220.231 521.3 219.631 521.504 219.175 521.912C218.719 522.296 218.491 522.86 218.491 523.604C218.491 524.42 218.875 525.056 219.643 525.512C220.411 525.968 221.611 526.46 223.243 526.988C224.875 527.54 226.195 528.068 227.203 528.572C228.235 529.076 229.123 529.808 229.867 530.768C230.611 531.728 230.983 532.964 230.983 534.476C230.983 535.916 230.611 537.224 229.867 538.4C229.147 539.576 228.091 540.512 226.699 541.208C225.307 541.904 223.663 542.252 221.767 542.252ZM243.915 542.288C241.947 542.288 240.171 541.868 238.587 541.028C237.027 540.188 235.791 538.988 234.879 537.428C233.991 535.868 233.547 534.044 233.547 531.956C233.547 529.892 234.003 528.08 234.915 526.52C235.827 524.936 237.075 523.724 238.659 522.884C240.243 522.044 242.019 521.624 243.987 521.624C245.955 521.624 247.731 522.044 249.315 522.884C250.899 523.724 252.147 524.936 253.059 526.52C253.971 528.08 254.427 529.892 254.427 531.956C254.427 534.02 253.959 535.844 253.023 537.428C252.111 538.988 250.851 540.188 249.243 541.028C247.659 541.868 245.883 542.288 243.915 542.288ZM243.915 536.96C245.091 536.96 246.087 536.528 246.903 535.664C247.743 534.8 248.163 533.564 248.163 531.956C248.163 530.348 247.755 529.112 246.939 528.248C246.147 527.384 245.163 526.952 243.987 526.952C242.787 526.952 241.791 527.384 240.999 528.248C240.207 529.088 239.811 530.324 239.811 531.956C239.811 533.564 240.195 534.8 240.963 535.664C241.755 536.528 242.739 536.96 243.915 536.96ZM266.837 542.288C264.869 542.288 263.093 541.868 261.509 541.028C259.949 540.188 258.713 538.988 257.801 537.428C256.913 535.868 256.469 534.044 256.469 531.956C256.469 529.892 256.925 528.08 257.837 526.52C258.749 524.936 259.997 523.724 261.581 522.884C263.165 522.044 264.941 521.624 266.909 521.624C268.877 521.624 270.653 522.044 272.237 522.884C273.821 523.724 275.069 524.936 275.981 526.52C276.893 528.08 277.349 529.892 277.349 531.956C277.349 534.02 276.881 535.844 275.945 537.428C275.033 538.988 273.773 540.188 272.165 541.028C270.581 541.868 268.805 542.288 266.837 542.288ZM266.837 536.96C268.013 536.96 269.009 536.528 269.825 535.664C270.665 534.8 271.085 533.564 271.085 531.956C271.085 530.348 270.677 529.112 269.861 528.248C269.069 527.384 268.085 526.952 266.909 526.952C265.709 526.952 264.713 527.384 263.921 528.248C263.129 529.088 262.733 530.324 262.733 531.956C262.733 533.564 263.117 534.8 263.885 535.664C264.677 536.528 265.661 536.96 266.837 536.96ZM292.855 521.696C295.207 521.696 297.079 522.464 298.471 524C299.887 525.512 300.595 527.6 300.595 530.264V542H294.475V531.092C294.475 529.748 294.127 528.704 293.431 527.96C292.735 527.216 291.799 526.844 290.623 526.844C289.447 526.844 288.511 527.216 287.815 527.96C287.119 528.704 286.771 529.748 286.771 531.092V542H280.615V521.912H286.771V524.576C287.395 523.688 288.235 522.992 289.291 522.488C290.347 521.96 291.535 521.696 292.855 521.696ZM312.973 515.828L312.253 533.072H307.033L306.313 515.828H312.973ZM309.733 542.288C308.653 542.288 307.765 541.976 307.069 541.352C306.397 540.704 306.061 539.912 306.061 538.976C306.061 538.016 306.397 537.212 307.069 536.564C307.765 535.916 308.653 535.592 309.733 535.592C310.789 535.592 311.653 535.916 312.325 536.564C313.021 537.212 313.369 538.016 313.369 538.976C313.369 539.912 313.021 540.704 312.325 541.352C311.653 541.976 310.789 542.288 309.733 542.288Z" fill="#1EAAE7"/>
<defs>
<filter id="filter0_d" x="0" y="166" width="508" height="449" filterUnits="userSpaceOnUse" color-interpolation-filters="sRGB">
<feFlood flood-opacity="0" result="BackgroundImageFix"/>
<feColorMatrix in="SourceAlpha" type="matrix" values="0 0 0 0 0 0 0 0 0 0 0 0 0 0 0 0 0 0 127 0" result="hardAlpha"/>
<feOffset dy="4"/>
<feGaussianBlur stdDeviation="3"/>
<feColorMatrix type="matrix" values="0 0 0 0 0 0 0 0 0 0 0 0 0 0 0 0 0 0 0.04 0"/>
<feBlend mode="normal" in2="BackgroundImageFix" result="effect1_dropShadow"/>
<feBlend mode="normal" in="SourceGraphic" in2="effect1_dropShadow" result="shape"/>
</filter>
<filter id="filter1_d" x="2" y="0" width="504" height="613" filterUnits="userSpaceOnUse" color-interpolation-filters="sRGB">
<feFlood flood-opacity="0" result="BackgroundImageFix"/>
<feColorMatrix in="SourceAlpha" type="matrix" values="0 0 0 0 0 0 0 0 0 0 0 0 0 0 0 0 0 0 127 0" result="hardAlpha"/>
<feOffset dy="4"/>
<feGaussianBlur stdDeviation="2"/>
<feColorMatrix type="matrix" values="0 0 0 0 0 0 0 0 0 0 0 0 0 0 0 0 0 0 0.04 0"/>
<feBlend mode="normal" in2="BackgroundImageFix" result="effect1_dropShadow"/>
<feBlend mode="normal" in="SourceGraphic" in2="effect1_dropShadow" result="shape"/>
</filter>
<linearGradient id="paint0_linear" x1="228.241" y1="399.6" x2="228.241" y2="123.514" gradientUnits="userSpaceOnUse">
<stop stop-color="#808080" stop-opacity="0.25"/>
<stop offset="0.54" stop-color="#808080" stop-opacity="0.12"/>
<stop offset="1" stop-color="#808080" stop-opacity="0.1"/>
</linearGradient>
<linearGradient id="paint1_linear" x1="84120.8" y1="209569" x2="84120.8" y2="44641.6" gradientUnits="userSpaceOnUse">
<stop stop-color="#808080" stop-opacity="0.25"/>
<stop offset="0.54" stop-color="#808080" stop-opacity="0.12"/>
<stop offset="1" stop-color="#808080" stop-opacity="0.1"/>
</linearGradient>
<clipPath id="clip0">
<rect width="409" height="317" fill="white" transform="translate(53 110)"/>
</clipPath>
</defs>
</svg>
